<?xml version="1.0" standalone="no"?>
<!DOCTYPE svg PUBLIC "-//W3C//DTD SVG 1.1//EN" "http://www.w3.org/Graphics/SVG/1.1/DTD/svg11.dtd" >
<svg>
<metadata>
Created by FontForge 20090914 at Wed May  8 18:19:34 2013
 By www-data
Copyright (c)  2-2004-M.Klein
</metadata>
<defs>
<font id="Sansumi-Regular" horiz-adv-x="852" >
  <font-face 
    font-family="Sansumi"
    font-weight="400"
    font-stretch="normal"
    units-per-em="1000"
    panose-1="2 0 5 7 4 0 0 2 0 4"
    ascent="800"
    descent="-200"
    x-height="540"
    cap-height="717"
    bbox="-297.001 -290 1398 847"
    underline-thickness="50"
    underline-position="-75"
    unicode-range="U+0005-U+E00F"
  />
<missing-glyph horiz-adv-x="653" 
d="M578 -8l-0.000976562 13.0059c-7.33301 8 -13.166 15 -17.499 21s-7.5 12 -9.5 18s-3.33301 13 -4 21s-1 18.333 -1 31v280c0 57.333 -17.5 101 -52.5 131s-92.833 45 -173.5 45c-36.667 0 -66.667 -2.16699 -90 -6.5l-35 -6.5l3 -34l26.5 7
c17.667 4.66699 49.167 7 94.5 7c36.667 0 67.167 -3 91.5 -9s43.833 -15.167 58.5 -27.5s25.167 -27.833 31.5 -46.5s9.5 -40.334 9.5 -65.001v-19c-73.333 -6 -138.166 -13.667 -194.499 -23s-103.666 -22 -141.999 -38s-67.333 -36.5 -87 -61.5s-29.5 -56.5 -29.5 -94.5
c0 -18.667 3.83301 -37.334 11.5 -56.001s20.5 -35.334 38.5 -50.001s42.167 -26.5 72.5 -35.5s68.5 -13.5 114.5 -13.5c13.333 0 29.166 1.16699 47.499 3.5s37.333 6.66602 57 12.999s39.5 14.666 59.5 24.999s38 23.5 54 39.5
c1.33301 -12.667 4.16602 -24.334 8.49902 -35.001s11.833 -22 22.5 -34h35zM509.999 105.006c-16 -20 -33.998 -36.001 -53.998 -48.001s-40 -21.333 -60 -28s-38.833 -11 -56.5 -13s-32.167 -3 -43.5 -3c-42 0 -76.167 4 -102.5 12s-47 18 -62 30
s-25.167 25.167 -30.5 39.5s-8 28.166 -8 41.499c0 30.667 8.66699 56.334 26 77.001s43.166 37.834 77.499 51.501s77.666 24.667 129.999 33s113.5 15.5 183.5 21.5v-214z" />
    <glyph glyph-name=".notdef" horiz-adv-x="653" 
d="M578 -8l-0.000976562 13.0059c-7.33301 8 -13.166 15 -17.499 21s-7.5 12 -9.5 18s-3.33301 13 -4 21s-1 18.333 -1 31v280c0 57.333 -17.5 101 -52.5 131s-92.833 45 -173.5 45c-36.667 0 -66.667 -2.16699 -90 -6.5l-35 -6.5l3 -34l26.5 7
c17.667 4.66699 49.167 7 94.5 7c36.667 0 67.167 -3 91.5 -9s43.833 -15.167 58.5 -27.5s25.167 -27.833 31.5 -46.5s9.5 -40.334 9.5 -65.001v-19c-73.333 -6 -138.166 -13.667 -194.499 -23s-103.666 -22 -141.999 -38s-67.333 -36.5 -87 -61.5s-29.5 -56.5 -29.5 -94.5
c0 -18.667 3.83301 -37.334 11.5 -56.001s20.5 -35.334 38.5 -50.001s42.167 -26.5 72.5 -35.5s68.5 -13.5 114.5 -13.5c13.333 0 29.166 1.16699 47.499 3.5s37.333 6.66602 57 12.999s39.5 14.666 59.5 24.999s38 23.5 54 39.5
c1.33301 -12.667 4.16602 -24.334 8.49902 -35.001s11.833 -22 22.5 -34h35zM509.999 105.006c-16 -20 -33.998 -36.001 -53.998 -48.001s-40 -21.333 -60 -28s-38.833 -11 -56.5 -13s-32.167 -3 -43.5 -3c-42 0 -76.167 4 -102.5 12s-47 18 -62 30
s-25.167 25.167 -30.5 39.5s-8 28.166 -8 41.499c0 30.667 8.66699 56.334 26 77.001s43.166 37.834 77.499 51.501s77.666 24.667 129.999 33s113.5 15.5 183.5 21.5v-214z" />
    <glyph glyph-name="breve" horiz-adv-x="500" 
d="M386 693h-39.002c-11.333 -13.333 -24.166 -24.833 -38.499 -34.5s-33.833 -14.5 -58.5 -14.5s-44.167 4.83301 -58.5 14.5s-27.166 21.167 -38.499 34.5h-39c6.66699 -10.667 14.167 -21 22.5 -31s18 -18.833 29 -26.5s23.333 -13.834 37 -18.501s29.5 -7 47.5 -7
s33.833 2.33301 47.5 7s26 10.834 37 18.501s20.667 16.5 29 26.5s15.833 20.333 22.5 31z" />
    <glyph glyph-name="dotaccent" horiz-adv-x="500" 
d="M267 604v93h-34v-93h34z" />
    <glyph glyph-name="ring" horiz-adv-x="500" 
d="M335 643c0 12 -2.5 22.333 -7.5 31s-11.667 15.834 -20 21.501s-17.5 10 -27.5 13s-20 4.5 -30 4.5s-20 -1.5 -30 -4.5s-19.167 -7.33301 -27.5 -13s-15 -12.834 -20 -21.501s-7.5 -19 -7.5 -31s2.5 -22.333 7.5 -31s11.5 -15.834 19.5 -21.501s17 -10 27 -13
s20 -4.5 30 -4.5h1c10 0 20 1.5 30 4.5s19.167 7.33301 27.5 13s15 12.834 20 21.501s7.5 19 7.5 31zM299 643c0 -9.33301 -3.83301 -17.833 -11.5 -25.5s-20.167 -11.5 -37.5 -11.5h-1c-18.667 0 -31.667 3.83301 -39 11.5s-11 16.167 -11 25.5
c0 11.333 4.5 20.333 13.5 27s21.167 10 36.5 10s27.5 -3.33301 36.5 -10s13.5 -15.667 13.5 -27z" />
    <glyph glyph-name="hungarumlaut" unicode="&#xa;" horiz-adv-x="500" 
d="M452 710h-54l-102 -157h31zM297 710h-54l-102 -157h31z" />
    <glyph glyph-name="ogonek" horiz-adv-x="500" 
d="M355 -102l-23.9971 18c-22.667 -19.333 -46 -29 -70 -29c-10.667 0 -19.334 1.16699 -26.001 3.5s-11.834 5.16602 -15.501 8.49902s-6.16699 6.83301 -7.5 10.5s-2 7.16699 -2 10.5c0 8 2.16699 15.833 6.5 23.5s12.166 16.5 23.499 26.5l45 38h-48l-20 -16
c-17.333 -13.333 -28.833 -26.166 -34.5 -38.499s-8.5 -24.166 -8.5 -35.499c0 -21.333 8.33301 -37.5 25 -48.5s35.667 -16.5 57 -16.5c19.333 0 37.333 4.16699 54 12.5s31.667 19.166 45 32.499z" />
    <glyph glyph-name="caron" horiz-adv-x="500" 
d="M417 686h-47l-120 -65l-120 65h-47l164 -108h6z" />
    <glyph glyph-name="dotlessi" unicode="&#xd;" horiz-adv-x="280" 
d="M158 -8v548h-36v-548h36z" />
    <glyph glyph-name="fraction" horiz-adv-x="296" 
d="M486 713h-43l-622 -733h44z" />
    <glyph glyph-name="fi" horiz-adv-x="869" 
d="M747 639v96h-36v-96h36zM747 -8v548h-36v-548h36zM636 722c-16 12.667 -30.998 22.5 -44.998 29.5s-27.667 13.167 -41 18.5c-20.667 8 -42.5 13.5 -65.5 16.5s-47.167 4.5 -72.5 4.5c-68 0 -122.667 -12.333 -164 -37c-54 -32.667 -81 -83 -81 -151v-63h-131v-34h131
v-764h36v764h324v34h-324v62c0 30 6.16699 55.5 18.5 76.5s28.166 37.167 47.499 48.5s41.166 19.333 65.499 24s50.166 7 77.499 7c48 0 90 -6.66699 126 -20c16.667 -5.33301 30.834 -11.833 42.501 -19.5s23.167 -17.167 34.5 -28.5z" />
    <glyph glyph-name="fl" horiz-adv-x="869" 
d="M747 -8v743h-36v-743h36zM636 722c-16 12.667 -30.998 22.5 -44.998 29.5s-27.667 13.167 -41 18.5c-20.667 8 -42.5 13.5 -65.5 16.5s-47.167 4.5 -72.5 4.5c-68 0 -122.667 -12.333 -164 -37c-54 -32.667 -81 -83 -81 -151v-63h-131v-34h131v-764h36v764h324v34h-324
v62c0 30 6.16699 55.5 18.5 76.5s28.166 37.167 47.499 48.5s41.166 19.333 65.499 24s50.166 7 77.499 7c48 0 90 -6.66699 126 -20c16.667 -5.33301 30.834 -11.833 42.501 -19.5s23.167 -17.167 34.5 -28.5z" />
    <glyph glyph-name="Lslash" horiz-adv-x="689" 
d="M652 -8v35h-472v299l209 64v35l-209 -64v356h-38v-367l-87 -27v-35l87 27v-323h510z" />
    <glyph glyph-name="lslash" horiz-adv-x="280" 
d="M231 434v40l-73 -57v318h-36v-346l-70 -55v-40l70 55v-357h36v385z" />
    <glyph glyph-name="Zcaron" horiz-adv-x="695" 
d="M535 830h-56l-131 -44c0.666992 0 -5.83301 2.33301 -19.5 7l-45.5 15l-45.5 15l-20.5 7h-56l184 -83h6zM629 -8v35h-502l484 660v30h-499v-35h451l-485 -660v-30h551z" />
    <glyph glyph-name="zcaron" horiz-adv-x="604" 
d="M469 686h-47l-120 -65l-120 65h-47l164 -108h6zM576 -8v34h-470l454 483v31h-484v-34h434l-455 -483v-31h521z" />
    <glyph glyph-name="space" unicode=" " horiz-adv-x="266" 
 />
    <glyph glyph-name="exclam" unicode="!" horiz-adv-x="320" 
d="M178 717h-36l3 -569h30zM178 -8v96h-36v-96h36z" />
    <glyph glyph-name="quotedbl" unicode="&#x22;" horiz-adv-x="353" 
d="M258 717h-40l6 -179h28zM135 717h-40l6 -179h28z" />
    <glyph glyph-name="numbersign" unicode="#" horiz-adv-x="720" 
d="M686 456h-173l99 244h-36l-99 -244h-149l99 244h-36l-99 -244h-175l-12 -32h173l-58 -142h-174l-12 -32h173l-105 -258h36l105 258h149l-105 -258h36l105 258h175l12 32h-174l58 142h175zM463 424l-58 -142h-149l58 142h149z" />
    <glyph glyph-name="dollar" unicode="$" 
d="M717 199c0 18 -2.83203 34.333 -8.49902 49s-13.334 27.667 -23.001 39s-21 21.333 -34 30s-26.833 16.334 -41.5 23.001s-30 12.5 -46 17.5s-31.667 9.16699 -47 12.5c-14 3.33301 -27.833 6.33301 -41.5 9s-26.167 5.33398 -37.5 8.00098v263
c32 -0.666992 59.833 -3.5 83.5 -8.5s44 -11.5 61 -19.5s31 -17.333 42 -28s20.167 -22 27.5 -34l31 18c-10 16 -21.333 30.167 -34 42.5s-28.5 23 -47.5 32s-41.667 16 -68 21s-58.166 8.16699 -95.499 9.5v73h-34v-73c-52 -0.666992 -94.667 -6.16699 -128 -16.5
s-59.833 -23 -79.5 -38s-33.167 -31.333 -40.5 -49s-11 -34.5 -11 -50.5c0 -26.667 5.66699 -48.834 17 -66.501s26 -32.167 44 -43.5s38 -20.166 60 -26.499s43.333 -11.5 64 -15.5c13.333 -3.33301 26.166 -6 38.499 -8s24.166 -4.66699 35.499 -8v-324
c-52 1.33301 -99.667 9 -143 23s-79.666 39 -108.999 75l-27 -25c16.667 -20 36 -36.833 58 -50.5s45.167 -24.5 69.5 -32.5s49.5 -13.833 75.5 -17.5s51.333 -5.5 76 -5.5v-82h34v82c40 1.33301 77 7.16602 111 17.499s63.5 24.166 88.5 41.499s44.5 37.5 58.5 60.5
s21 48.167 21 75.5zM404.001 395c-9.33301 2.66699 -19.498 5.00098 -30.498 7.00098s-22.167 4.33301 -33.5 7c-13.333 2.66699 -26.333 5.66699 -39 9s-25.334 7 -38.001 11c-24 9.33301 -43.667 21.333 -59 36s-23 34.667 -23 60c0 13.333 2.66699 27 8 41s16 27 32 39
s38.667 22.167 68 30.5s67.666 13.166 114.999 14.499v-255zM681.003 195.001c0 -20 -5.83301 -39.1699 -17.5 -57.5029s-28 -34.833 -49 -49.5s-46.5 -26.5 -76.5 -35.5s-63.333 -14.167 -100 -15.5v316c11.333 -2.66699 23 -5.16699 35 -7.5s24.333 -5.16602 37 -8.49902
c14.667 -3.33301 29 -7.16602 43 -11.499s27.333 -9.16602 40 -14.499c25.333 -11.333 46.333 -26 63 -44s25 -42 25 -72z" />
    <glyph glyph-name="percent" unicode="%" horiz-adv-x="1016" 
d="M939 166v0.998047c0 26.667 -4.5 51.5 -13.5 74.5s-21.667 42.833 -38 59.5s-35.833 29.834 -58.5 39.501s-48 14.5 -76 14.5s-53.333 -4.83301 -76 -14.5s-42.167 -22.834 -58.5 -39.501s-29 -36.5 -38 -59.5s-13.5 -47.833 -13.5 -74.5s4.5 -51.5 13.5 -74.5
s21.667 -42.833 38 -59.5s35.833 -29.834 58.5 -39.501s48 -14.5 76 -14.5s53.333 4.83301 76 14.5s42.167 22.834 58.5 39.501s29 36.334 38 59.001s13.5 47.334 13.5 74.001zM903 165.998c0 -23.333 -3.66699 -44.5 -11 -63.5s-17.5 -35.167 -30.5 -48.5
s-28.667 -23.833 -47 -31.5s-38.5 -11.5 -60.5 -11.5h-1c-22.667 0 -43.167 3.83301 -61.5 11.5s-34 18.167 -47 31.5s-23.167 29.5 -30.5 48.5s-11 40.167 -11 63.5c0 22.667 3.66699 43.667 11 63s17.5 35.666 30.5 48.999s28.667 23.833 47 31.5s38.833 11.5 61.5 11.5
s43.167 -3.83301 61.5 -11.5s34 -18.167 47 -31.5s23.167 -29.666 30.5 -48.999s11 -40.333 11 -63zM809 723.998h-42l-560 -743h43zM450 537.998v0.998047c0 26.667 -4.5 51.5 -13.5 74.5s-21.667 42.833 -38 59.5s-35.833 29.834 -58.5 39.501s-48 14.5 -76 14.5
s-53.333 -4.83301 -76 -14.5s-42.167 -22.834 -58.5 -39.501s-29 -36.5 -38 -59.5s-13.5 -47.833 -13.5 -74.5s4.5 -51.5 13.5 -74.5s21.667 -42.833 38 -59.5s35.833 -29.834 58.5 -39.501s48 -14.5 76 -14.5s53.333 4.83301 76 14.5s42.167 22.834 58.5 39.501
s29 36.334 38 59.001s13.5 47.334 13.5 74.001zM414 537.996c0 -23.333 -3.66699 -44.5 -11 -63.5s-17.5 -35.167 -30.5 -48.5s-28.667 -23.833 -47 -31.5s-38.5 -11.5 -60.5 -11.5h-1c-22.667 0 -43.167 3.83301 -61.5 11.5s-34 18.167 -47 31.5s-23.167 29.5 -30.5 48.5
s-11 40.167 -11 63.5c0 22.667 3.66699 43.667 11 63s17.5 35.666 30.5 48.999s28.667 23.833 47 31.5s38.833 11.5 61.5 11.5s43.167 -3.83301 61.5 -11.5s34 -18.167 47 -31.5s23.167 -29.666 30.5 -48.999s11 -40.333 11 -63z" />
    <glyph glyph-name="ampersand" unicode="&#x26;" horiz-adv-x="935" 
d="M903 -8l-54 27.4961c-16.667 8.33301 -32.834 16.833 -48.501 25.5l-46 26c-15 8.66699 -30.833 18.334 -47.5 29.001c30.667 32.667 57.5 70.334 80.5 113.001s37.833 91 44.5 145h-34c-6.66699 -50 -21 -95 -43 -135s-47.667 -75 -77 -105
c-57.333 40 -110.5 80.5 -159.5 121.5s-95.5 83.167 -139.5 126.5c28 11.333 54 23.333 78 36s44.833 26.5 62.5 41.5s31.667 31.333 42 49s15.5 37.5 15.5 59.5c0 22.667 -5 42.167 -15 58.5s-23.167 29.833 -39.5 40.5s-35.333 18.5 -57 23.5s-44.5 7.5 -68.5 7.5
c-22.667 0 -44.167 -2.66699 -64.5 -8s-38.333 -13.5 -54 -24.5s-28.167 -24.833 -37.5 -41.5s-14 -36 -14 -58c0 -16.667 2.66699 -33 8 -49s12.5 -31.333 21.5 -46s18.833 -28.667 29.5 -42s21.667 -25.666 33 -36.999c-28 -10 -54.833 -21.667 -80.5 -35
s-48.167 -28.666 -67.5 -45.999s-34.833 -36.833 -46.5 -58.5s-17.5 -46.167 -17.5 -73.5c0 -31.333 6.33301 -58.5 19 -81.5s30.834 -42.167 54.501 -57.5s52 -26.833 85 -34.5s70.167 -11.5 111.5 -11.5c36.667 0 70.667 3 102 9s59.5 13.667 84.5 23s47 20 66 32
s35.167 23.667 48.5 35c30.667 -19.333 57.667 -35.5 81 -48.5l67 -36.5h77zM542 553.996c0 -18 -4.66602 -34.668 -13.999 -50.001s-22.5 -29.5 -39.5 -42.5s-37 -25.5 -60 -37.5s-47.833 -23.667 -74.5 -35c-26.667 28.667 -48.5 55.334 -65.5 80.001
s-25.5 51.667 -25.5 81v1c0 28 11.667 51.333 35 70s58 28 104 28c20 0 38.5 -2.16699 55.5 -6.5s31.667 -10.5 44 -18.5s22.166 -18 29.499 -30s11 -25.333 11 -40zM651.001 93.9951c-40 -32 -83.1689 -54.001 -129.502 -66.001s-93.5 -18 -141.5 -18
c-8.66699 0 -20.667 0.333008 -36 1s-31.666 2.5 -48.999 5.5s-35 7.5 -53 13.5s-34.333 14.667 -49 26s-26.667 25.5 -36 42.5s-14 37.833 -14 62.5v1c0 38.667 15.833 73.334 47.5 104.001s82.834 59.334 153.501 86.001c47.333 -48 97.5 -94.333 150.5 -139
s105.167 -84.334 156.5 -119.001z" />
    <glyph glyph-name="quotesingle" unicode="'" horiz-adv-x="230" 
d="M135 717h-40l6 -179h28z" />
    <glyph glyph-name="parenleft" unicode="(" horiz-adv-x="496" 
d="M410 -174c-30 24 -56.1719 49.5029 -78.5049 76.5029s-42.166 57.5 -59.499 91.5c-14 26.667 -25.167 53.834 -33.5 81.501s-14.666 54.5 -18.999 80.5s-7.33301 50.667 -9 74s-2.5 44 -2.5 62s0.833008 38.667 2.5 62s4.66699 47.666 9 72.999s10.5 51.666 18.5 78.999
s18.667 54 32 80c18 36 38.333 67.667 61 95s49 53 79 77l-23 20c-16 -12 -30.667 -24 -44 -36s-25.666 -24.667 -36.999 -38s-22.166 -27.666 -32.499 -42.999s-20.833 -33 -31.5 -53c-24.667 -46.667 -42.5 -96.834 -53.5 -150.501s-16.5 -108.834 -16.5 -165.501
s5.5 -111.5 16.5 -164.5s29.167 -104.167 54.5 -153.5c18.667 -36 39.334 -66.833 62.001 -92.5s50 -50.834 82 -75.501z" />
    <glyph glyph-name="parenright" unicode=")" horiz-adv-x="496" 
d="M324 292c0 56.667 -5.50195 111.831 -16.502 165.498s-28.833 103.834 -53.5 150.501c-10.667 20 -21.167 37.667 -31.5 53s-21.333 29.666 -33 42.999s-24 26 -37 38s-27.5 24 -43.5 36l-23 -20c30 -24 56.333 -49.667 79 -77s43 -59 61 -95
c12.667 -26 23.167 -52.667 31.5 -80s14.666 -53.666 18.999 -78.999s7.33301 -49.666 9 -72.999s2.5 -44 2.5 -62s-0.833008 -38.667 -2.5 -62s-4.66699 -48 -9 -74s-10.666 -52.833 -18.999 -80.5s-19.5 -54.834 -33.5 -81.501c-17.333 -34 -37.166 -64.5 -59.499 -91.5
s-48.5 -52.5 -78.5 -76.5l23 -20c32 24.667 59.333 49.834 82 75.501s43.334 56.5 62.001 92.5c25.333 49.333 43.5 100.5 54.5 153.5s16.5 107.833 16.5 164.5z" />
    <glyph glyph-name="asterisk" unicode="*" horiz-adv-x="682" 
d="M533 431l-166 89l165 89l-18 32l-160 -99l5 189h-36l5 -189l-160 99l-18 -32l165 -89l-166 -89l18 -32l161 97l-5 -187h36l-5 187l161 -97z" />
    <glyph glyph-name="plus" unicode="+" horiz-adv-x="800" 
d="M664 237v32h-247v185h-34v-185h-247v-32h247v-201h34v201h247z" />
    <glyph glyph-name="comma" unicode="," horiz-adv-x="260" 
d="M160 88h-41l-34 -176h28z" />
    <glyph glyph-name="hyphen" unicode="-" horiz-adv-x="399" 
d="M306 319v34h-299v-34h299z" />
    <glyph glyph-name="period" unicode="." horiz-adv-x="260" 
d="M76 -8v96h-36v-96h36z" />
    <glyph glyph-name="slash" unicode="/" horiz-adv-x="724" 
d="M652 747h-40l-534 -767h41z" />
    <glyph glyph-name="zero" unicode="0" 
d="M785 347c0 56.667 -9.16699 107.668 -27.5 153.001s-43.5 83.666 -75.5 114.999s-69.833 55.5 -113.5 72.5s-91.167 25.5 -142.5 25.5s-98.833 -8.5 -142.5 -25.5s-81.5 -41.167 -113.5 -72.5s-57.167 -69.5 -75.5 -114.5s-27.5 -95.833 -27.5 -152.5v-1
c0 -57.333 9.16699 -108.666 27.5 -153.999s43.5 -83.666 75.5 -114.999s69.833 -55.5 113.5 -72.5s91.167 -25.5 142.5 -25.5s98.833 8.5 142.5 25.5s81.5 41.167 113.5 72.5s57.167 69.666 75.5 114.999s27.5 96.666 27.5 153.999zM749 347.001
c0 -54.667 -8.5 -102.667 -25.5 -144s-40.333 -76 -70 -104s-64 -49.167 -103 -63.5s-80.5 -21.5 -124.5 -21.5s-85.5 7.16699 -124.5 21.5s-73.333 35.5 -103 63.5s-53 62.667 -70 104s-25.5 89.333 -25.5 144s8.5 102.834 25.5 144.501s40.167 76.5 69.5 104.5
s63.5 49.167 102.5 63.5s80.5 21.5 124.5 21.5h1c44 0 85.5 -7.16699 124.5 -21.5s73.333 -35.5 103 -63.5s53 -62.833 70 -104.5s25.5 -89.834 25.5 -144.501z" />
    <glyph glyph-name="one" unicode="1" horiz-adv-x="707" 
d="M411 -8v714h-16l-281 -112l15 -31l246 98v-669h36z" />
    <glyph glyph-name="two" unicode="2" 
d="M727 -8v36.002h-573c12.667 36 30.167 67.5 52.5 94.5s47.333 50.833 75 71.5s57.334 39 89.001 55s63.5 31 95.5 45l47.5 21.5c15.667 7 30.834 14.167 45.501 21.5c15.333 7.33301 29.666 15 42.999 23s25.666 16.667 36.999 26c23.333 18 42.166 38.667 56.499 62
s21.5 51 21.5 83c0 21.333 -5 42.833 -15 64.5s-26.667 41.167 -50 58.5s-54.833 31.5 -94.5 42.5s-88.834 16.5 -147.501 16.5c-78.667 0 -141.167 -13.667 -187.5 -41s-78.166 -68 -95.499 -122l40 -5c14 44 40.667 77.5 80 100.5s93 34.5 161 34.5
c57.333 0 103.833 -5 139.5 -15s63.334 -22.5 83.001 -37.5s33 -31.167 40 -48.5s10.5 -33.333 10.5 -48c0 -26.667 -6.5 -49.834 -19.5 -69.501s-31.167 -37.834 -54.5 -54.501c-11.333 -8 -23.5 -15.833 -36.5 -23.5s-27.167 -15.167 -42.5 -22.5l-46.5 -22l-48.5 -22
c-32.667 -15.333 -65.667 -31.833 -99 -49.5s-64.666 -38.5 -93.999 -62.5s-55.333 -52 -78 -84s-39.334 -70 -50.001 -114l15 -15h600z" />
    <glyph glyph-name="three" unicode="3" 
d="M721 183c0 24 -5.66699 47.3301 -17 69.9971s-27.5 42.667 -48.5 60s-46 31.166 -75 41.499s-60.833 15.5 -95.5 15.5c28.667 0 55.167 5.5 79.5 16.5s45.166 24.667 62.499 41s30.833 34 40.5 53s14.5 36.833 14.5 53.5c0 24.667 -5.16699 47.834 -15.5 69.501
s-26.166 40.667 -47.499 57s-48 29.166 -80 38.499s-70 14 -114 14c-46 0 -85.333 -4.83301 -118 -14.5s-59.5 -22.334 -80.5 -38.001s-37.333 -33.167 -49 -52.5s-19.5 -38.333 -23.5 -57l36 -7c4 14.667 10.5 30.167 19.5 46.5s22.333 31 40 44s40.667 23.833 69 32.5
s63.833 13 106.5 13c41.333 0 76 -4.16699 104 -12.5s50.667 -19.333 68 -33s29.833 -29.167 37.5 -46.5s11.5 -35 11.5 -53c0 -13.333 -3 -28.5 -9 -45.5s-18.333 -33 -37 -48s-45.5 -28.167 -80.5 -39.5s-81.833 -18 -140.5 -20v-31c64 -2 116 -8 156 -18
s71 -22.667 93 -38s37 -32.666 45 -51.999s12 -39.333 12 -60c0 -24 -5 -46.333 -15 -67s-25.5 -38.667 -46.5 -54s-47.5 -27.333 -79.5 -36s-69.667 -13 -113 -13c-44.667 0 -82.667 3.83301 -114 11.5s-57.666 18.334 -78.999 32.001s-38.666 29.834 -51.999 48.501
s-24.333 38.667 -33 60l-36 -11c10 -26 23.333 -49.667 40 -71s37.5 -39.666 62.5 -54.999s54.833 -27.166 89.5 -35.499s75.334 -12.5 122.001 -12.5c47.333 0 89.166 5 125.499 15s66.666 24 90.999 42s42.666 39.5 54.999 64.5s18.5 52.167 18.5 81.5z" />
    <glyph glyph-name="four" unicode="4" 
d="M733 192v34h-161v480h-28l-439 -489v-25h431v-200h36v200h161zM545 659c-4.66699 -32 -7.33301 -65.333 -8 -100s-1 -70 -1 -106v-227h-376l221 248l82 92z" />
    <glyph glyph-name="five" unicode="5" 
d="M727 213c0 34.667 -7.50391 66.3291 -22.5039 94.9961s-36 53.334 -63 74.001s-59.5 36.834 -97.5 48.501s-80 17.5 -126 17.5c-43.333 0 -82.166 -5.33301 -116.499 -16s-62.833 -23.667 -85.5 -39l56 271h403v36h-433l-72 -356l23 -9c20.667 21.333 49.667 40 87 56
s83 24 137 24c42.667 0 80.834 -5.16699 114.501 -15.5s62.334 -24.5 86.001 -42.5s41.834 -39.333 54.501 -64s19 -51.667 19 -81c0 -30.667 -7.33301 -58.167 -22 -82.5s-34.667 -45.166 -60 -62.499s-55 -30.666 -89 -39.999s-70.333 -14 -109 -14
c-40 0 -74.5 4 -103.5 12s-54 18.833 -75 32.5s-38.5 29.5 -52.5 47.5s-26 37 -36 57l-35 -12c10 -22.667 23.167 -44.167 39.5 -64.5s36.833 -38.333 61.5 -54s53.5 -28.167 86.5 -37.5s71.5 -14 115.5 -14c52 0 97.5 6.66699 136.5 20s71.833 30.833 98.5 52.5
s46.667 46.5 60 74.5s20 56.667 20 86z" />
    <glyph glyph-name="six" unicode="6" 
d="M763 217c0 35.333 -7.8291 67.167 -23.4961 95.5s-38 52.5 -67 72.5s-64 35.5 -105 46.5s-86.5 16.5 -136.5 16.5c-40 0 -76 -3.5 -108 -10.5s-60.167 -16.5 -84.5 -28.5s-44.833 -26 -61.5 -42s-30 -33 -40 -51c3.33301 117.333 30.166 207.333 80.499 270
s128.166 94 233.499 94c34 0 64.167 -3.16699 90.5 -9.5s49.5 -15.5 69.5 -27.5s37.167 -26.333 51.5 -43s26.166 -35.334 35.499 -56.001l34 12c-22 48 -55.5 86.167 -100.5 114.5s-105.167 42.5 -180.5 42.5c-63.333 0 -117.166 -10.5 -161.499 -31.5
s-80.5 -50.167 -108.5 -87.5s-48.333 -81.666 -61 -132.999s-19 -107.666 -19 -168.999c0 -33.333 4.66699 -68.333 14 -105s26.666 -70.334 51.999 -101.001s60.166 -56 104.499 -76s101.5 -30 171.5 -30c62.667 0 114.5 8.33301 155.5 25s73.667 37 98 61
s41.5 49.667 51.5 77s15 52 15 74zM727.004 216.001c0 -21.333 -4.66895 -43.832 -14.002 -67.499s-25 -45.5 -47 -65.5s-51.167 -36.667 -87.5 -50s-81.5 -20 -135.5 -20c-44.667 0 -83 4.5 -115 13.5s-59 20.667 -81 35s-39.667 30.166 -53 47.499s-23.666 34 -30.999 50
s-12.166 30.5 -14.499 43.5s-3.5 22.5 -3.5 28.5v1c0 17.333 5 36.666 15 57.999s26.5 41.166 49.5 59.499s53 33.833 90 46.5s82.5 19 136.5 19c45.333 0 86 -4.66699 122 -14s66.5 -22.666 91.5 -39.999s44.167 -38.166 57.5 -62.499s20 -51.833 20 -82.5z" />
    <glyph glyph-name="seven" unicode="7" 
d="M699 678v22h-557v-35h512l-343 -673h41z" />
    <glyph glyph-name="eight" unicode="8" 
d="M751 180c0 25.333 -5.1709 48.6611 -15.5039 69.9941s-24.5 40 -42.5 56s-38.667 29.667 -62 41s-48 19.666 -74 24.999c23.333 4.66699 45.333 11.334 66 20.001s38.5 19.5 53.5 32.5s26.833 28.333 35.5 46s13 37.834 13 60.501c0 26 -6.83301 50.167 -20.5 72.5
s-33.167 41.5 -58.5 57.5s-56.666 28.667 -93.999 38s-79.333 14 -126 14c-47.333 0 -89.5 -4.66699 -126.5 -14s-68.167 -22 -93.5 -38s-44.833 -35.167 -58.5 -57.5s-20.5 -46.5 -20.5 -72.5c0 -22 4.33301 -41.667 13 -59s20.5 -32.666 35.5 -45.999
s32.5 -24.5 52.5 -33.5s41.333 -15.833 64 -20.5c-25.333 -5.33301 -49.666 -13.666 -72.999 -24.999s-43.666 -25.166 -60.999 -41.499s-31.166 -35.166 -41.499 -56.499s-15.5 -44.333 -15.5 -69c0 -32 8.16699 -60.333 24.5 -85s39 -45.5 68 -62.5
s63.333 -29.833 103 -38.5s82.834 -13 129.501 -13c49.333 0 94 4.66699 134 14s74.167 22.5 102.5 39.5s50.166 37.833 65.499 62.5s23 52.334 23 83.001zM688.996 530.995c0 -19.333 -5.33105 -37.832 -15.998 -55.499s-26.834 -33 -48.501 -46s-49 -23.333 -82 -31
s-71.833 -11.5 -116.5 -11.5s-83.5 3.83301 -116.5 11.5s-60.333 18 -82 31s-37.834 28.167 -48.501 45.5s-16 35.666 -16 54.999v1c0 20 5.5 39 16.5 57s27.5 33.833 49.5 47.5s49.5 24.5 82.5 32.5s71.167 12 114.5 12s81.5 -4 114.5 -12s60.5 -18.833 82.5 -32.5
s38.5 -29.5 49.5 -47.5s16.5 -37 16.5 -57zM714.998 178.996c0 -25.333 -6.83301 -48.167 -20.5 -68.5s-33 -37.833 -58 -52.5s-55.333 -25.834 -91 -33.501s-75.5 -11.5 -119.5 -11.5s-83.833 3.83301 -119.5 11.5s-66 18.834 -91 33.501s-44.333 32 -58 52
s-20.5 42.667 -20.5 68v1c0 21.333 5.66699 42.666 17 63.999s28.833 40.5 52.5 57.5s53.667 30.833 90 41.5s79.5 16 129.5 16s93.167 -5.33301 129.5 -16s66.333 -24.5 90 -41.5s41.167 -36.167 52.5 -57.5s17 -42.666 17 -63.999z" />
    <glyph glyph-name="nine" unicode="9" 
d="M763 401c0 12.667 -1 29.332 -3 49.999s-6.83301 42.5 -14.5 65.5s-19 46.167 -34 69.5s-35.333 44.5 -61 63.5s-57.5 34.333 -95.5 46s-83.667 17.5 -137 17.5c-60.667 0 -111.334 -7.5 -152.001 -22.5s-73.167 -34 -97.5 -57s-41.666 -48 -51.999 -75
s-15.5 -52.167 -15.5 -75.5c0 -28 5.66699 -56.167 17 -84.5s30 -53.833 56 -76.5s60.167 -41.167 102.5 -55.5s94.5 -21.5 156.5 -21.5c40 0 76 3.5 108 10.5s60.167 16.5 84.5 28.5s45 26 62 42s30.167 33 39.5 51c-2 -54.667 -8.83301 -104.334 -20.5 -149.001
s-29.834 -83 -54.501 -115s-56.667 -56.667 -96 -74s-87 -26 -143 -26c-34.667 0 -65.334 3.66699 -92.001 11s-50.167 17.333 -70.5 30s-38.166 27.834 -53.499 45.501s-28.666 36.5 -39.999 56.5l-35 -13c13.333 -23.333 28.833 -45 46.5 -65s38.167 -37.167 61.5 -51.5
s50 -25.666 80 -33.999s64.333 -12.5 103 -12.5c65.333 0 120.333 10.833 165 32.5s80.667 51.5 108 89.5s47 82.5 59 133.5s18 106.167 18 165.5zM719 460.998c0 -20.667 -5.66504 -41.833 -16.998 -63.5s-28.666 -41.334 -51.999 -59.001s-53.5 -32.167 -90.5 -43.5
s-80.833 -17 -131.5 -17c-47.333 0 -89 5 -125 15s-66.333 24 -91 42s-43.334 39.5 -56.001 64.5s-19 52.5 -19 82.5c0 19.333 4.16699 40.5 12.5 63.5s23.166 44.5 44.499 64.5s50.333 36.667 87 50s83.334 20 140.001 20c44.667 0 83 -4.5 115 -13.5s59 -20.667 81 -35
s39.667 -30.166 53 -47.499s23.666 -34 30.999 -50s12.166 -30.5 14.499 -43.5s3.5 -22.5 3.5 -28.5v-1z" />
    <glyph glyph-name="colon" unicode=":" horiz-adv-x="260" 
d="M148 399v96h-36v-96h36zM148 -8v96h-36v-96h36z" />
    <glyph glyph-name="semicolon" unicode=";" horiz-adv-x="260" 
d="M148 399v96h-36v-96h36zM160 88h-41l-34 -176h28z" />
    <glyph glyph-name="less" unicode="&#x3c;" horiz-adv-x="800" 
d="M624 21v35l-444 197l444 197v35l-488 -219v-26z" />
    <glyph glyph-name="equal" unicode="=" horiz-adv-x="800" 
d="M664 301v32h-528v-32h528zM664 173v32h-528v-32h528z" />
    <glyph glyph-name="greater" unicode="&#x3e;" horiz-adv-x="800" 
d="M664 240v26l-488 219v-35l444 -197l-444 -197v-35z" />
    <glyph glyph-name="question" unicode="?" horiz-adv-x="585" 
d="M576 552c0 32.667 -7.5 60.001 -22.5 82.001s-35.167 39.5 -60.5 52.5s-54.666 22.333 -87.999 28s-68 8.5 -104 8.5c-46 0 -85.833 -3.66699 -119.5 -11s-62.5 -17.666 -86.5 -30.999s-44 -29 -60 -47s-29 -38 -39 -60l33 -14c8.66699 19.333 20.167 37 34.5 53
s32.166 29.667 53.499 41s46.833 20.166 76.5 26.499s64.167 9.5 103.5 9.5c32.667 0 63.834 -2.33301 93.501 -7s55.5 -12.334 77.5 -23.001s39.5 -24.667 52.5 -42s19.5 -38.666 19.5 -63.999c0 -17.333 -2.16699 -33 -6.5 -47s-11.333 -26.833 -21 -38.5
s-22.334 -22.834 -38.001 -33.501s-34.834 -21.667 -57.501 -33c-35.333 -17.333 -64.333 -33.833 -87 -49.5s-40.5 -33 -53.5 -52s-21.5 -40.667 -25.5 -65s-5.33301 -53.5 -4 -87.5h31c-0.666992 27.333 0.5 51.333 3.5 72s9.83301 39.5 20.5 56.5
s25.834 32.833 45.501 47.5s45.5 29.667 77.5 45c28 12.667 51.5 25.5 70.5 38.5s34.5 26.667 46.5 41s20.667 29.833 26 46.5s8 35.667 8 57zM283 -7.99902v96h-36v-96h36z" />
    <glyph glyph-name="at" unicode="@" horiz-adv-x="996" 
d="M700 111l-5.99805 -10.002c-16 -18.667 -33.833 -33.5 -53.5 -44.5s-39 -19.5 -58 -25.5s-37 -10 -54 -12s-31.167 -3 -42.5 -3c-42 0 -76.167 4 -102.5 12s-47 18 -62 30s-25.167 25.167 -30.5 39.5s-8 28.166 -8 41.499c0 30.667 8.66699 56.334 26 77.001
s43.166 37.834 77.499 51.501s77.666 24.834 129.999 33.501s113.5 16 183.5 22v-212zM700.002 380.998l3.99414 1.00586l-4 -1v-25c-73.333 -6 -138.166 -13.667 -194.499 -23s-103.666 -22.166 -141.999 -38.499s-67.333 -37 -87 -62s-29.5 -56.5 -29.5 -94.5
c0 -18.667 3.83301 -37.334 11.5 -56.001s20.5 -35.334 38.5 -50.001s42.167 -26.5 72.5 -35.5s68.5 -13.5 114.5 -13.5c14 0 30.5 1.5 49.5 4.5s39 8.16699 60 15.5s41.667 17 62 29s39.166 26.667 56.499 44l14 14l8.5 -0.5c5.66699 -0.333008 10.167 -0.5 13.5 -0.5
c4 0.666992 8 1 12 1h12c8 0 16.5 0.833008 25.5 2.5s17.5 6.16699 25.5 13.5c16 14 30.5 31.333 43.5 52s24 42.667 33 66s16 47 21 71s7.5 46.333 7.5 67c0 36 -8 70.667 -24 104s-39.667 62.833 -71 88.5s-70 46.167 -116 61.5s-99.333 23 -160 23
c-67.333 0 -130.166 -9.5 -188.499 -28.5s-109 -46.333 -152 -82s-76.833 -78.834 -101.5 -129.501s-37 -107.667 -37 -171c0 -49.333 9.66699 -94.833 29 -136.5s46.333 -77.667 81 -108s76.167 -54.166 124.5 -71.499s101.166 -26 158.499 -26
c46 0 92.667 4.16699 140 12.5s92.666 26.833 135.999 55.5l-24 23c-36.667 -22 -74 -37.167 -112 -45.5s-80.333 -12.5 -127 -12.5c-54 0 -103.667 7.66699 -149 23s-84.333 36.666 -117 63.999s-58.167 59.833 -76.5 97.5s-27.5 79.167 -27.5 124.5
c0 65.333 13 121.5 39 168.5s60.333 86.5 103 118.5c42 32 88.333 55.167 139 69.5s105.334 21.5 164.001 21.5c62 0 113.333 -7.66699 154 -23s74 -33.333 100 -54c30.667 -24.667 51.5 -51.834 62.5 -81.501s16.5 -58.167 16.5 -85.5c0 -21.333 -2.16699 -43 -6.5 -65
s-10.5 -43.167 -18.5 -63.5s-17.5 -39.166 -28.5 -56.499s-22.833 -32 -35.5 -44c-5.33301 -4.66699 -10.666 -7.66699 -15.999 -9s-11 -2 -17 -2c-5.33301 0 -10.833 0.166992 -16.5 0.5s-11.5 0.166016 -17.5 -0.500977v264v4l-1 -1
c0 9.33301 -2.16699 23.666 -6.5 42.999s-12.666 38.666 -24.999 57.999s-30 36.166 -53 50.499s-53.167 21.5 -90.5 21.5c-18 0 -37.333 -0.666992 -58 -2s-39.667 -2.83301 -57 -4.5s-31.666 -3.16699 -42.999 -4.5l-17 -2l3 -34l14 2c9.33301 1.33301 21.833 3 37.5 5
s33.834 3.66699 54.501 5s42.334 2 65.001 2c36.667 0 64.5 -7.66699 83.5 -23s32.833 -32.333 41.5 -51s13.5 -35.667 14.5 -51z" />
    <glyph glyph-name="A" unicode="A" horiz-adv-x="691" 
d="M678 -8l-321 725h-24l-320 -725h40l110 247h363l111 -247h41zM511 274h-332l85 198l40.5 93c13.667 30.667 27.167 62.667 40.5 96l42 -98l41 -95z" />
    <glyph glyph-name="B" unicode="B" horiz-adv-x="801" 
d="M734 194c0 51.333 -19.334 92.166 -58.001 122.499s-90.667 50.166 -156 59.499c60 11.333 103 31.5 129 60.5s39 63.833 39 104.5c0 26 -6.16699 49.667 -18.5 71s-32 39.833 -59 55.5s-62.333 27.834 -106 36.501s-96.5 13 -158.5 13h-204v-725h200
c28 0 57.167 0.833008 87.5 2.5s60 4.83398 89 9.50098s56.5 11.5 82.5 20.5s48.833 21 68.5 36s35.334 33.5 47.001 55.5s17.5 48 17.5 78zM649.999 543c0 -18 -3.33203 -36.001 -9.99902 -54.001s-20.834 -34.167 -42.501 -48.5s-52.667 -26 -93 -35
s-93.833 -13.5 -160.5 -13.5h-164v290h163c58 0 106.667 -3.66699 146 -11s71 -17.166 95 -29.499s41 -27 51 -44s15 -35.167 15 -54.5zM696 193.999c0 -36.667 -10.5 -65.999 -31.5 -87.999s-48.5 -38.833 -82.5 -50.5s-72 -19.334 -114 -23.001s-84 -5.5 -126 -5.5h-162
v330h178c118 0 203.833 -14.667 257.5 -44s80.5 -69 80.5 -119z" />
    <glyph glyph-name="C" unicode="C" horiz-adv-x="844" 
d="M782 153l-30 21.0029c-11.333 -16 -25.833 -33.5 -43.5 -52.5s-38.334 -36.667 -62.001 -53s-50.667 -29.833 -81 -40.5s-63.833 -16 -100.5 -16c-45.333 0 -89.333 7 -132 21s-80.5 35 -113.5 63s-59.5 63.5 -79.5 106.5s-30 93.5 -30 151.5
c0 61.333 10.667 113.666 32 156.999s49 78.833 83 106.5s72.5 47.834 115.5 60.501s86.167 19 129.5 19c32 0 61 -3.83301 87 -11.5s49.5 -18 70.5 -31s39.667 -28.167 56 -45.5s30.833 -36 43.5 -56l32 19c-14 22 -30.5 42.667 -49.5 62s-40.5 36.166 -64.5 50.499
s-50.5 25.666 -79.5 33.999s-60.833 12.5 -95.5 12.5c-58.667 0 -112 -8.83301 -160 -26.5s-89.667 -42.834 -125 -75.501c-36 -33.333 -63.833 -73 -83.5 -119s-29.5 -97.667 -29.5 -155c0 -58 10.167 -110.333 30.5 -157s49.5 -87.667 87.5 -123
c29.333 -27.333 67.5 -50.333 114.5 -69s100.5 -28 160.5 -28c40.667 0 77.334 5.33301 110.001 16s62 24.5 88 41.5s48.833 35.833 68.5 56.5s36.5 41 50.5 61z" />
    <glyph glyph-name="D" unicode="D" horiz-adv-x="861" 
d="M789 354c0 54.667 -8.33301 104.501 -25 149.501s-42.167 83.167 -76.5 114.5s-77.333 55.666 -129 72.999s-112.5 26 -182.5 26h-234v-725h234c70 0 130.833 8.66699 182.5 26s94.667 41.666 129 72.999s59.833 69.333 76.5 114s25 94.334 25 149.001zM751 354.001
c0 -48.667 -7.16699 -93 -21.5 -133s-36.666 -74.333 -66.999 -103s-69 -51 -116 -67s-103.167 -24 -168.5 -24h-198v655h198c65.333 0 121.5 -8 168.5 -24s85.667 -38.333 116 -67s52.666 -63.167 66.999 -103.5s21.5 -84.833 21.5 -133.5z" />
    <glyph glyph-name="E" unicode="E" horiz-adv-x="719" 
d="M637 -8v35h-457v326h360v35h-360v294h443v35h-481v-725h495z" />
    <glyph glyph-name="F" unicode="F" horiz-adv-x="700" 
d="M623 682v35h-481v-725h38v361h360v35h-360v294h443z" />
    <glyph glyph-name="G" unicode="G" horiz-adv-x="836" 
d="M749 586c-18 22.667 -36.3281 42.999 -54.9951 60.999s-39.334 33.167 -62.001 45.5s-48 21.833 -76 28.5s-60 10 -96 10c-28 0 -57 -3 -87 -9s-59.333 -15.333 -88 -28s-55.834 -29 -81.501 -49s-48.334 -43.833 -68.001 -71.5s-35.167 -59.834 -46.5 -96.501
s-17 -77.667 -17 -123c0 -60 10.5 -113.333 31.5 -160s49.333 -86 85 -118s77 -56.333 124 -73s96.167 -25 147.5 -25c52.667 0 101.5 6.33301 146.5 19s90.833 34.667 137.5 66v255h-327v-35h289v-203c-35.333 -22.667 -74 -39.667 -116 -51s-83 -17 -123 -17
c-49.333 0 -95.5 7.5 -138.5 22.5s-80.833 37 -113.5 66s-58.334 64.667 -77.001 107s-28 91.166 -28 146.499c0 64.667 11.5 118.834 34.5 162.501s52 78.834 87 105.501s73.167 45.834 114.5 57.501s80.666 17.5 117.999 17.5c30 0 57 -2.66699 81 -8s46 -13.5 66 -24.5
s38.667 -24.667 56 -41s34.333 -35.5 51 -57.5z" />
    <glyph glyph-name="H" unicode="H" horiz-adv-x="915" 
d="M773 -8v725h-38v-327h-555v327h-38v-725h38v363h555v-363h38z" />
    <glyph glyph-name="I" unicode="I" horiz-adv-x="342" 
d="M190 -8v725h-38v-725h38z" />
    <glyph glyph-name="J" unicode="J" horiz-adv-x="629" 
d="M492 321v395.998h-38v-395c0 -105.333 -19.833 -183.166 -59.5 -233.499s-95.834 -75.5 -168.501 -75.5c-44 0 -81.833 8.33301 -113.5 25s-62.167 39 -91.5 67l-25 -26c15.333 -15.333 30.833 -29.166 46.5 -41.499s32.5 -22.833 50.5 -31.5s37.833 -15.5 59.5 -20.5
s45.834 -7.5 72.501 -7.5c84 0 149.5 28.833 196.5 86.5s70.5 143.167 70.5 256.5z" />
    <glyph glyph-name="K" unicode="K" horiz-adv-x="744" 
d="M723 -8l-377 424l316 301h-53l-226 -216l-101 -97.5l-102 -98.5v192v220h-38v-725h38v265l141 134l351 -399h51z" />
    <glyph glyph-name="L" unicode="L" horiz-adv-x="689" 
d="M652 -8v35h-472v690h-38v-725h510z" />
    <glyph glyph-name="M" unicode="M" horiz-adv-x="1275" 
d="M1135 -8v725h-42l-282 -422.5l-172 -259.5l-172.5 259.5l-281.5 422.5h-43v-725h38c0 164 -0.166992 301.333 -0.5 412s-0.833008 196.667 -1.5 258l170.5 -257.5l274.5 -412.5h30l274 411.5l172 258.5c-1.33301 -61.333 -2 -147.333 -2 -258v-412h38z" />
    <glyph glyph-name="N" unicode="N" horiz-adv-x="904" 
d="M762 -8v725h-38v-416c0 -110.667 0.666992 -196.667 2 -258l-208 258l-337 416h-39v-725h38v415c0 110.667 -0.666992 197 -2 259l208.5 -259l336.5 -415h39z" />
    <glyph glyph-name="O" unicode="O" horiz-adv-x="940" 
d="M868 354c0 64 -11 119.5 -33 166.5s-51.5 86.167 -88.5 117.5s-79.5 54.666 -127.5 69.999s-97.667 23 -149 23s-101 -7.66699 -149 -23s-90.5 -38.5 -127.5 -69.5s-66.5 -70.167 -88.5 -117.5s-33 -102.666 -33 -165.999v-1c0 -63.333 11 -118.666 33 -165.999
s51.5 -86.5 88.5 -117.5s79.5 -54.167 127.5 -69.5s97.667 -23 149 -23s101 7.66699 149 23s90.5 38.5 127.5 69.5s66.5 70.167 88.5 117.5s33 102.666 33 165.999zM830 355c0 -58 -10.001 -108.5 -30.001 -151.5s-46.5 -78.5 -79.5 -106.5s-71.333 -49 -115 -63
s-88.834 -21 -135.501 -21c-47.333 0 -92.666 7 -135.999 21s-81.5 35 -114.5 63s-59.5 63.5 -79.5 106.5s-30 93.5 -30 151.5s10 108.5 30 151.5s46.5 78.667 79.5 107s71.167 49.5 114.5 63.5s88.333 21 135 21h1c46.667 0 91.834 -7 135.501 -21s82 -35.167 115 -63.5
s59.5 -64 79.5 -107s30 -93.5 30 -151.5z" />
    <glyph glyph-name="P" unicode="P" horiz-adv-x="811" 
d="M758 503c0 32 -7 61.167 -21 87.5s-36.167 48.833 -66.5 67.5s-69.333 33.167 -117 43.5s-105.167 15.5 -172.5 15.5h-239v-725h38v292h181c70.667 0 131.167 5 181.5 15s91.5 24.333 123.5 43s55.333 41.667 70 69s22 58 22 92zM720 503
c0 -26.667 -5.83398 -51.1689 -17.501 -73.502s-31.334 -41.666 -59.001 -57.999s-64.667 -29.166 -111 -38.499s-104.166 -14 -173.499 -14h-179v363h209c62.667 0 115.334 -4.83301 158.001 -14.5s76.667 -22.667 102 -39s43.5 -35.333 54.5 -57s16.5 -44.5 16.5 -68.5z
" />
    <glyph glyph-name="Q" unicode="Q" horiz-adv-x="940" 
d="M868 354c0 64 -10.9961 119.497 -32.9961 166.497s-51.5 86.167 -88.5 117.5s-79.5 54.666 -127.5 69.999s-97.667 23 -149 23s-101 -7.66699 -149 -23s-90.5 -38.5 -127.5 -69.5s-66.5 -70.167 -88.5 -117.5s-33 -102.666 -33 -165.999v-1
c0 -63.333 11 -118.666 33 -165.999s51.5 -86.5 88.5 -117.5s79.5 -54.167 127.5 -69.5s97.667 -23 149 -23c11.333 0 22.666 0.5 33.999 1.5s22.666 2.16699 33.999 3.5c9.33301 -10.667 20.833 -22.334 34.5 -35.001s30.167 -25.334 49.5 -38.001
c15.333 -10.667 33.166 -18.667 53.499 -24s40.333 -8.66602 60 -9.99902s37.834 -1.5 54.501 -0.5s29.667 2.83301 39 5.5l-17 31c-8 -1.33301 -19.167 -2.16602 -33.5 -2.49902s-29.833 0.333984 -46.5 2.00098s-33.334 4.66699 -50.001 9s-31 10.5 -43 18.5
c-9.33301 6.66699 -19 14 -29 22s-20.667 17.667 -32 29c40 8.66699 77.667 22.834 113 42.501s66.166 44.667 92.499 75s47 66 62 107s22.5 87.5 22.5 139.5zM830.004 354.997c0 -50 -7.33594 -94.166 -22.0029 -132.499s-34.667 -71.333 -60 -99s-55 -50.167 -89 -67.5
s-70 -29.333 -108 -36l-35 40c-9.33301 11.333 -22.833 25 -40.5 41s-38.167 29.667 -61.5 41c-20 9.33301 -41.667 15.333 -65 18s-46.166 3.5 -68.499 2.5s-43 -3.16699 -62 -6.5s-34.167 -6.33301 -45.5 -9c-19.333 26.667 -34.666 57.167 -45.999 91.5
s-17 73.166 -17 116.499c0 58 10 108.5 30 151.5s46.5 78.667 79.5 107s71.167 49.5 114.5 63.5s88.333 21 135 21h1c46.667 0 91.834 -7 135.501 -21s82 -35.167 115 -63.5s59.5 -64 79.5 -107s30 -93.5 30 -151.5zM510.001 14.998
c-6.66699 -0.666992 -13.3311 -1.16797 -19.998 -1.50098s-13.334 -0.5 -20.001 -0.5c-52 0 -101.667 8.5 -149 25.5s-88 42.833 -122 77.5c12 2.66699 26.333 5.33398 43 8.00098s34 4.33398 52 5.00098s36.167 -0.333008 54.5 -3s35.166 -7.66699 50.499 -15
c20 -9.33301 36 -19.333 48 -30s25.667 -24.334 41 -41.001z" />
    <glyph glyph-name="R" unicode="R" horiz-adv-x="809" 
d="M811 -8l-321.999 309.999c37.333 2.66699 72 9.66699 104 21s59.667 26.333 83 45s41.666 40.334 54.999 65.001s20 51.667 20 81c0 31.333 -6.66699 59.5 -20 84.5s-34.5 46.333 -63.5 64s-66 31.167 -111 40.5s-99.5 14 -163.5 14h-246v-725h38v308h257l317 -308h52z
M713.001 513.999c0 -23.333 -5.5 -45.666 -16.5 -66.999s-27.5 -40.333 -49.5 -57s-49.333 -30 -82 -40s-70.334 -15 -113.001 -15h-267v347h200c68.667 0 124.334 -4.83301 167.001 -14.5s76 -22.334 100 -38.001s40.167 -33.667 48.5 -54s12.5 -40.833 12.5 -61.5z" />
    <glyph glyph-name="S" unicode="S" horiz-adv-x="790" 
d="M720 193c0 34 -8.1709 62.1709 -24.5039 84.5039s-34.5 40.166 -54.5 53.499c-12 8 -24.833 15 -38.5 21s-29.5 11.667 -47.5 17s-38.5 10.666 -61.5 15.999l-80.5 18l-90.5 20c-24.333 5.33301 -45 10.333 -62 15s-31.167 9 -42.5 13s-22 8.33301 -32 13
c-18.667 9.33301 -33.667 22.166 -45 38.499s-17 35.166 -17 56.499c0 42.667 21.667 76 65 100c23.333 13.333 53 23 89 29s74.667 9 116 9c73.333 0 129.833 -9 169.5 -27s68.167 -42.333 85.5 -73l33 18c-10.667 18.667 -24 35.167 -40 49.5s-35.5 26.5 -58.5 36.5
s-50 17.5 -81 22.5s-67.167 7.5 -108.5 7.5c-46.667 0 -88.667 -3.33301 -126 -10s-70 -17.334 -98 -32.001c-30 -15.333 -51.5 -34.5 -64.5 -57.5s-19.5 -46.167 -19.5 -69.5c0 -33.333 7.5 -60.166 22.5 -80.499s32.167 -35.5 51.5 -45.5
c8.66699 -4.66699 17.834 -9 27.501 -13s22.334 -8.33301 38.001 -13s35.834 -10 60.501 -16s56.334 -13.333 95.001 -22c37.333 -8 68.5 -15 93.5 -21s46.167 -11.5 63.5 -16.5s31.5 -9.83301 42.5 -14.5s21.167 -9.33398 30.5 -14.001
c8.66699 -4.66699 17.167 -10.334 25.5 -17.001s15.833 -14.667 22.5 -24s12.167 -20.166 16.5 -32.499s6.5 -26.166 6.5 -41.499c0 -24 -6.5 -46.333 -19.5 -67s-30.167 -38 -51.5 -52c-27.333 -18 -59 -32.5 -95 -43.5s-78 -16.5 -126 -16.5
c-75.333 0 -137.333 10 -186 30s-85.667 45.667 -111 77l-29 -24c30.667 -36 71.667 -64.5 123 -85.5s118.666 -31.5 201.999 -31.5c50 0 95.333 5.83301 136 17.5s75.667 27.167 105 46.5c28.667 19.333 50.834 41.833 66.501 67.5s23.5 53.5 23.5 83.5z" />
    <glyph glyph-name="T" unicode="T" horiz-adv-x="686" 
d="M660 682v35h-622v-35h292v-690h38v690h292z" />
    <glyph glyph-name="U" unicode="U" horiz-adv-x="833" 
d="M701 287l0.000976562 430h-38v-428c0 -50 -3.66699 -92.667 -11 -128s-20.333 -64 -39 -86s-44 -38 -76 -48s-72.667 -15 -122 -15c-48 0 -87.667 5 -119 15s-56.333 26 -75 48s-31.834 50.667 -39.501 86s-11.5 78 -11.5 128v428h-38v-430
c0 -59.333 5.5 -108.833 16.5 -148.5s28 -71.334 51 -95.001s52.333 -40.5 88 -50.5s78.167 -15 127.5 -15c50.667 0 94 5 130 15s65.5 26.833 88.5 50.5s40 55.334 51 95.001s16.5 89.167 16.5 148.5z" />
    <glyph glyph-name="V" unicode="V" horiz-adv-x="753" 
d="M731 717h-40l-162 -350l-75 -162l-75 -166l-75 165.5l-75 162.5l-162 350h-40l337 -725h30z" />
    <glyph glyph-name="W" unicode="W" horiz-adv-x="1210" 
d="M1187 717h-39l-136 -346l-63 -161.5l-63 -168.5l-63.5 167.5l-63.5 162.5l-136 346h-31l-136 -347l-63.5 -161.5l-63.5 -168.5l-63 168l-63 162l-136 347h-39l286 -725h30l136 347l63.5 162.5l63.5 164.5l64 -165l64 -163l136 -346h30z" />
    <glyph glyph-name="X" unicode="X" horiz-adv-x="806" 
d="M749 -8l-323 377l298 348h-48l-273 -322l-273 322h-48l298 -348l-323 -377h47l299 351l299 -351h47z" />
    <glyph glyph-name="Y" unicode="Y" horiz-adv-x="700" 
d="M681 717h-45l-146 -195l-70 -92.5l-70 -93.5l-70 92l-70 93l-146 196h-45l312 -415v-310h38v310z" />
    <glyph glyph-name="Z" unicode="Z" horiz-adv-x="695" 
d="M629 -8v35h-502l484 660v30h-499v-35h451l-485 -660v-30h551z" />
    <glyph glyph-name="bracketleft" unicode="[" horiz-adv-x="479" 
d="M365 -164v33h-134v845h134v33h-170v-911h170z" />
    <glyph glyph-name="backslash" unicode="\" horiz-adv-x="724" 
d="M647 -20l-534 767h-40l533 -767h41z" />
    <glyph glyph-name="bracketright" unicode="]" horiz-adv-x="479" 
d="M284 -164v911h-170v-33h134v-845h-134v-33h170z" />
    <glyph glyph-name="asciicircum" unicode="^" horiz-adv-x="800" 
d="M634 309l-220 404h-26l-220 -404h36l197 363l197 -363h36z" />
    <glyph glyph-name="underscore" unicode="_" horiz-adv-x="800" 
d="M808 -290v46h-816v-46h816z" />
    <glyph glyph-name="grave" unicode="`" horiz-adv-x="500" 
d="M295 564l-159 129h-65l181 -129h43z" />
    <glyph glyph-name="a" unicode="a" horiz-adv-x="653" 
d="M578 -8l-0.000976562 13.0059c-7.33301 8 -13.166 15 -17.499 21s-7.5 12 -9.5 18s-3.33301 13 -4 21s-1 18.333 -1 31v280c0 57.333 -17.5 101 -52.5 131s-92.833 45 -173.5 45c-36.667 0 -66.667 -2.16699 -90 -6.5l-35 -6.5l3 -34l26.5 7
c17.667 4.66699 49.167 7 94.5 7c36.667 0 67.167 -3 91.5 -9s43.833 -15.167 58.5 -27.5s25.167 -27.833 31.5 -46.5s9.5 -40.334 9.5 -65.001v-19c-73.333 -6 -138.166 -13.667 -194.499 -23s-103.666 -22 -141.999 -38s-67.333 -36.5 -87 -61.5s-29.5 -56.5 -29.5 -94.5
c0 -18.667 3.83301 -37.334 11.5 -56.001s20.5 -35.334 38.5 -50.001s42.167 -26.5 72.5 -35.5s68.5 -13.5 114.5 -13.5c13.333 0 29.166 1.16699 47.499 3.5s37.333 6.66602 57 12.999s39.5 14.666 59.5 24.999s38 23.5 54 39.5
c1.33301 -12.667 4.16602 -24.334 8.49902 -35.001s11.833 -22 22.5 -34h35zM509.999 105.006c-16 -20 -33.998 -36.001 -53.998 -48.001s-40 -21.333 -60 -28s-38.833 -11 -56.5 -13s-32.167 -3 -43.5 -3c-42 0 -76.167 4 -102.5 12s-47 18 -62 30
s-25.167 25.167 -30.5 39.5s-8 28.166 -8 41.499c0 30.667 8.66699 56.334 26 77.001s43.166 37.834 77.499 51.501s77.666 24.667 129.999 33s113.5 15.5 183.5 21.5v-214z" />
    <glyph glyph-name="b" unicode="b" horiz-adv-x="734" 
d="M672 266c0 40.667 -6.99902 78.3301 -20.999 112.997s-33.667 64.834 -59 90.501s-56.333 45.834 -93 60.501s-77.334 22 -122.001 22c-42 0 -82.5 -6.83301 -121.5 -20.5s-74.833 -35.5 -107.5 -65.5v269h-36v-743h36l-1 76l10.5 -8
c3.66699 -2.66699 7.5 -5.66699 11.5 -9c6.66699 -5.33301 13.834 -10.666 21.501 -15.999s16.167 -10.666 25.5 -15.999c19.333 -10.667 42 -19.834 68 -27.501s56.333 -11.5 91 -11.5c49.333 0 92.666 8 129.999 24s68.333 37.333 93 64s43.167 57.167 55.5 91.5
s18.5 69.833 18.5 106.5zM636.001 265.996c0 -33.333 -5.66602 -65.167 -16.999 -95.5s-28 -57.166 -50 -80.499s-49.167 -42 -81.5 -56s-69.5 -21 -111.5 -21c-33.333 0 -62.5 3.83301 -87.5 11.5s-46.833 17.167 -65.5 28.5c-19.333 12 -35 23 -47 33l-15 13.5
c-4.66699 4.33301 -9 8.16602 -13 11.499v311c36 36 72.5 61.167 109.5 75.5s76.5 21.5 118.5 21.5c41.333 0 78.166 -6.66699 110.499 -20s59.5 -31.333 81.5 -54s38.833 -49.5 50.5 -80.5s17.5 -63.833 17.5 -98.5z" />
    <glyph glyph-name="c" unicode="c" horiz-adv-x="673" 
d="M625 112l-32.9941 15.9951c-10 -16 -21.5 -31 -34.5 -45s-28.5 -26.167 -46.5 -36.5s-38.833 -18.5 -62.5 -24.5s-50.834 -9 -81.501 -9c-34 0 -67 4.83301 -99 14.5s-60.667 24.667 -86 45s-45.666 46.5 -60.999 78.5s-23 70.333 -23 115
c0 42.667 7.66699 79.834 23 111.501s35.666 58 60.999 79s54.166 36.667 86.499 47s65.166 15.5 98.499 15.5c27.333 0 51.5 -2.16699 72.5 -6.5s39.833 -10.666 56.5 -18.999s31.667 -18.666 45 -30.999s25.666 -26.166 36.999 -41.499l31 19
c-13.333 18 -27.833 33.833 -43.5 47.5s-33.334 25.334 -53.001 35.001s-41.334 17 -65.001 22s-50.5 7.5 -80.5 7.5c-38 0 -75.333 -5.83301 -112 -17.5s-69.167 -29.167 -97.5 -52.5s-51.333 -53 -69 -89s-26.5 -78.333 -26.5 -127c0 -50 8.5 -93 25.5 -129
s39.667 -65.667 68 -89s60.833 -40.5 97.5 -51.5s74.667 -16.5 114 -16.5c35.333 0 66.5 3.66699 93.5 11s50.833 17 71.5 29s38.5 26 53.5 42s28.167 32.667 39.5 50z" />
    <glyph glyph-name="d" unicode="d" horiz-adv-x="734" 
d="M622 -8l-0.00195312 743.003h-36v-269c-32.667 30 -68.5 51.833 -107.5 65.5s-79.5 20.5 -121.5 20.5c-45.333 0 -86.166 -7.33301 -122.499 -22s-67.166 -34.834 -92.499 -60.501s-45 -55.834 -59 -90.501s-21 -72.334 -21 -113.001
c0 -36.667 6.16699 -72.167 18.5 -106.5s30.833 -64.833 55.5 -91.5s55.667 -48 93 -64s80.666 -24 129.999 -24c36.667 0 68.334 4.16699 95.001 12.5s49.667 18.166 69 29.499c9.33301 5.33301 18 10.833 26 16.5s15 11.167 21 16.5l8.5 7c2.33301 2 4.83301 4 7.5 6l6 5
c-1.33301 -4 -2.33301 -10.333 -3 -19l-2 -27c-0.666992 -9.33301 -1 -17.666 -1 -24.999v-10h36zM585.998 111.003l-14.999 -12.998l-17 -15c-12 -10 -27.667 -21 -47 -33c-18.667 -10 -40 -18.667 -64 -26s-52 -11 -84 -11h-1c-42 0 -79.167 7 -111.5 21
s-59.5 32.667 -81.5 56s-38.667 50.166 -50 80.499s-17 62.166 -17 95.499c0 34.667 5.83301 67.5 17.5 98.5s28.5 57.833 50.5 80.5s49.167 40.667 81.5 54s69.166 20 110.499 20c42 0 81.5 -7.16699 118.5 -21.5s73.5 -39.5 109.5 -75.5v-311z" />
    <glyph glyph-name="e" unicode="e" horiz-adv-x="682" 
d="M633 261c0 44.667 -7.00098 83.9961 -21.001 117.996s-32 62.667 -54 86c-27.333 28.667 -58.166 50.334 -92.499 65.001s-70.5 22 -108.5 22c-44 0 -83.167 -6.5 -117.5 -19.5s-64.166 -30.833 -89.499 -53.5c-28 -24.667 -49.667 -54.167 -65 -88.5
s-23 -73.5 -23 -117.5c0 -48.667 7.33301 -90.667 22 -126s34.334 -65 59.001 -89c28.667 -27.333 61.834 -47.166 99.501 -59.499s75.834 -18.5 114.501 -18.5c26.667 0 55.667 2.66699 87 8s60.666 11.333 87.999 18s50.166 12.667 68.499 18l27.5 8l-2 32
c-2.66699 -1.33301 -12.834 -4.66602 -30.501 -9.99902s-39.667 -11 -66 -17s-54.833 -11.5 -85.5 -16.5s-60.334 -7.5 -89.001 -7.5c-28 0 -57 4.16699 -87 12.5s-57.5 22.333 -82.5 42s-45.667 45.334 -62 77.001s-24.833 70.5 -25.5 116.5h535zM594.999 294.996h-497
c0.666992 30.667 7.5 59.5 20.5 86.5s30.833 50.667 53.5 71s49.667 36.5 81 48.5s66 18 104 18c34 0 65.167 -6.16699 93.5 -18.5s52.833 -29 73.5 -50s37.167 -45 49.5 -72s19.5 -54.833 21.5 -83.5z" />
    <glyph glyph-name="f" unicode="f" horiz-adv-x="589" 
d="M645 722c-16 12.667 -30.9971 22.5 -44.9971 29.5s-27.667 13.167 -41 18.5c-20.667 8 -42.334 13.5 -65.001 16.5s-47 4.5 -73 4.5c-68 0 -122.667 -12.333 -164 -37c-54 -32.667 -81 -83 -81 -151v-63h-131v-34h131v-764h36v764h324v34h-324v62
c0 30 6.16699 55.5 18.5 76.5s28.166 37.167 47.499 48.5s41.166 19.333 65.499 24s50.166 7 77.499 7c48 0 90 -6.66699 126 -20c16.667 -5.33301 30.834 -11.833 42.501 -19.5s23.167 -17.167 34.5 -28.5z" />
    <glyph glyph-name="g" unicode="g" horiz-adv-x="730" 
d="M623 16l-0.00488281 524.002h-36l1 -72c-30 28 -62.667 49 -98 63s-76.666 21 -123.999 21c-59.333 0 -108.5 -9.83301 -147.5 -29.5s-70.167 -44 -93.5 -73s-39.666 -60.333 -48.999 -94s-14 -64.834 -14 -93.501c0 -47.333 8.66699 -88.666 26 -123.999
s40 -64.666 68 -87.999s59.5 -40.833 94.5 -52.5s70.5 -17.5 106.5 -17.5c28.667 0 54.667 2.66699 78 8s44.333 12 63 20s35.334 17.167 50.001 27.5s27.667 20.5 39 30.5v-50c0 -44.667 -4.66699 -81 -14 -109s-23.333 -52.667 -42 -74
c-11.333 -12.667 -24.166 -23.334 -38.499 -32.001s-29.333 -15.834 -45 -21.501s-31.5 -9.66699 -47.5 -12s-31.333 -3.5 -46 -3.5c-28 0 -53.5 2.33301 -76.5 7s-43.5 10.667 -61.5 18c-24.667 11.333 -45.167 23.333 -61.5 36s-30.5 26 -42.5 40l-28 -23
c20 -20.667 39.833 -37.834 59.5 -51.501s38.834 -24.167 57.501 -31.5c23.333 -10 47.5 -17.167 72.5 -21.5s52.167 -6.5 81.5 -6.5c42 0 80.333 7 115 21s63.667 33.667 87 59c24 26 41 55.5 51 88.5s15 71.833 15 116.5zM586.995 109.002
c-12 -11.333 -25.167 -22.832 -39.5 -34.499s-30.666 -22 -48.999 -31s-38.833 -16.333 -61.5 -22s-48.334 -8.5 -77.001 -8.5c-35.333 0 -68.833 5.5 -100.5 16.5s-59.5 27.167 -83.5 48.5s-43 47.666 -57 78.999s-21 67.333 -21 108v1c0 21.333 3.66699 46.5 11 75.5
s21 56.667 41 83s47.5 48.666 82.5 66.999s80.167 27.5 135.5 27.5c52 0 95.5 -8.66699 130.5 -26s64.5 -40.666 88.5 -69.999v-314z" />
    <glyph glyph-name="h" unicode="h" horiz-adv-x="721" 
d="M621 -8l-0.00195312 382.999c0 29.333 -3.66699 53.833 -11 73.5s-18.666 37.167 -33.999 52.5c-32.667 34 -82 51 -148 51c-22.667 0 -45.667 -2.16699 -69 -6.5s-47 -11.5 -71 -21.5c-44 -16.667 -88.333 -41.667 -133 -75v286h-36v-743h36v417
c8.66699 7.33301 18.834 15 30.501 23s24 15.833 37 23.5s25.833 14.834 38.5 21.501s24.667 12 36 16c48 17.333 91 26 129 26c32 0 58 -4 78 -12s35.667 -18 47 -30c14 -13.333 23.167 -29 27.5 -47s6.5 -36.667 6.5 -56v-382h36z" />
    <glyph glyph-name="i" unicode="i" horiz-adv-x="280" 
d="M165 639v96h-36v-96h36zM165 -8v548h-36v-548h36z" />
    <glyph glyph-name="j" unicode="j" horiz-adv-x="280" 
d="M158 639v96h-36v-96h36zM158 -45l-0.00195312 584.999h-36v-586c0 -35.333 -3 -62.666 -9 -81.999s-15 -36 -27 -50c-10 -12 -21.833 -21.667 -35.5 -29s-27.667 -13.166 -42 -17.499s-28.833 -7.33301 -43.5 -9s-28.334 -2.5 -41.001 -2.5
c-14.667 0 -27.667 0.666992 -39 2s-21.333 3 -30 5c-9.33301 2 -17.166 4.16699 -23.499 6.5s-12.166 4.16602 -17.499 5.49902c-17.333 6.66699 -32.5 13.834 -45.5 21.501s-27.833 17.834 -44.5 30.501l-21 -29c18.667 -14 36 -25.167 52 -33.5s32 -15.833 48 -22.5
c17.333 -6 35.333 -10.667 54 -14s39.334 -5 62.001 -5c87.333 0 151.333 23 192 69c16 17.333 27.833 37.666 35.5 60.999s11.5 54.666 11.5 93.999z" />
    <glyph glyph-name="k" unicode="k" horiz-adv-x="633" 
d="M628 -8l-348 323l287 225h-56l-189 -149l-86.5 -68l-87.5 -69v131v350h-36v-743h36v220l104 80l325 -300h51z" />
    <glyph glyph-name="l" unicode="l" horiz-adv-x="280" 
d="M167 -8v743h-36v-743h36z" />
    <glyph glyph-name="m" unicode="m" horiz-adv-x="1045" 
d="M938 -8l0.000976562 407.999c0 21.333 -2.83301 41.166 -8.5 59.499s-15.167 34.166 -28.5 47.499s-30.166 24.166 -50.499 32.499s-45.166 12.5 -74.499 12.5c-18 0 -36.167 -1.83301 -54.5 -5.5s-37.833 -9.83398 -58.5 -18.501
c-19.333 -7.33301 -39.333 -17.666 -60 -30.999s-42.334 -28.666 -65.001 -45.999c-2.66699 10 -7.66699 21.333 -15 34s-16.666 23.334 -27.999 32.001c-13.333 10.667 -29.5 19.167 -48.5 25.5s-40.5 9.5 -64.5 9.5c-16.667 0 -34 -1.66699 -52 -5s-37 -9.33301 -57 -18
c-18.667 -7.33301 -38.5 -17.166 -59.5 -29.499s-43.167 -27.833 -66.5 -46.5l1 87h-36v-548h36v420c21.333 19.333 42.666 35.666 63.999 48.999s42 24.666 62 33.999c20.667 8.66699 40 14.834 58 18.501s34.667 5.5 50 5.5c20.667 0 38.5 -2.5 53.5 -7.5
s28.167 -12.167 39.5 -21.5c11.333 -10 19.5 -21.667 24.5 -35s7.5 -29 7.5 -47v-416h36v421c23.333 20 45.833 36.667 67.5 50s42.167 24.333 61.5 33c37.333 15.333 71.666 23 102.999 23c25.333 0 46 -3.33301 62 -10s28.667 -15 38 -25
c11.333 -13.333 18.666 -27.666 21.999 -42.999s5 -30.666 5 -45.999v-403h36z" />
    <glyph glyph-name="n" unicode="n" horiz-adv-x="721" 
d="M614 -8l-0.000976562 382.999c0 29.333 -3.66699 53.833 -11 73.5s-18.333 37.167 -33 52.5c-32.667 34 -82.334 51 -149.001 51c-22.667 0 -45.5 -2.16699 -68.5 -6.5s-46.833 -11.5 -71.5 -21.5c-46 -18 -92.333 -44.333 -139 -79c1.33301 4 2.33301 11.167 3 21.5
l2 32c0.666992 11 1 20.5 1 28.5v13h-36v-548h36v417c8.66699 7.33301 18.834 15 30.501 23s24 15.833 37 23.5s26 14.834 39 21.501s25.167 12 36.5 16c46.667 17.333 89.334 26 128.001 26c32 0 58 -4 78 -12s35.667 -18 47 -30c14 -13.333 23.167 -29 27.5 -47
s6.5 -36.667 6.5 -56v-382h36z" />
    <glyph glyph-name="o" unicode="o" horiz-adv-x="739" 
d="M677 265v1.00195c0 45.333 -8 85.666 -24 120.999s-37.833 65.333 -65.5 90s-60.167 43.334 -97.5 56.001s-77.333 19 -120 19s-82.667 -6.33301 -120 -19s-70 -31.334 -98 -56.001s-50 -54.667 -66 -90s-24 -75.666 -24 -120.999c0 -38 6.33301 -74.333 19 -109
s31.667 -65 57 -91s57.333 -46.833 96 -62.5s84 -23.5 136 -23.5c53.333 0 99.333 8.16699 138 24.5s70.5 37.666 95.5 63.999s43.5 56.666 55.5 90.999s18 69.5 18 105.5zM641 265.002c0 -33.333 -5.50098 -65.166 -16.501 -95.499s-27.667 -57.166 -50 -80.499
s-50.5 -42 -84.5 -56s-73.667 -21 -119 -21h-1c-46 0 -86.167 7 -120.5 21s-62.666 32.667 -84.999 56s-39 50.166 -50 80.499s-16.5 62.166 -16.5 95.499c0 40 7 75.667 21 107s33.167 57.833 57.5 79.5s53 38.167 86 49.5s68.833 17 107.5 17
c38 0 73.5 -5.66699 106.5 -17s61.667 -27.833 86 -49.5s43.5 -48.167 57.5 -79.5s21 -67 21 -107z" />
    <glyph glyph-name="p" unicode="p" horiz-adv-x="734" 
d="M672 268c0 40.667 -6.66699 77.334 -20 110.001s-31.333 61 -54 85c-56 59.333 -129.667 89 -221 89c-28 0 -53.333 -2.33301 -76 -7s-43.667 -11.667 -63 -21c-19.333 -8.66699 -36.5 -18 -51.5 -28s-28.167 -20.333 -39.5 -31l1 75h-36v-796h36v323
c14.667 -12.667 30.5 -24.5 47.5 -35.5s33.167 -19.5 48.5 -25.5c27.333 -12 52.333 -19.333 75 -22s42 -4 58 -4c48.667 0 91.5 8.16699 128.5 24.5s67.167 37.166 90.5 62.499c27.333 29.333 46.833 61.333 58.5 96s17.5 69.667 17.5 105zM636 268
c0 -38.667 -6.16992 -72.668 -18.5029 -102.001s-28.166 -54.666 -47.499 -75.999c-25.333 -28 -54.833 -47.833 -88.5 -59.5s-68.5 -17.5 -104.5 -17.5c-25.333 0 -48.166 2.16699 -68.499 6.5s-38.166 9.83301 -53.499 16.5
c-14.667 6.66699 -30.834 15.834 -48.501 27.501s-37.167 27.167 -58.5 46.5v312c15.333 15.333 31.833 29.166 49.5 41.499s35.5 22.833 53.5 31.5c21.333 9.33301 42.5 15.666 63.5 18.999s41.833 5 62.5 5c42.667 0 80.334 -7 113.001 -21s59.667 -32.667 81 -56
s37.5 -50.166 48.5 -80.499s16.5 -61.5 16.5 -93.5z" />
    <glyph glyph-name="q" unicode="q" horiz-adv-x="734" 
d="M622 -256v796h-36l1 -75c-11.333 10.667 -24.5 21 -39.5 31s-32.167 19.333 -51.5 28c-19.333 9.33301 -40.333 16.333 -63 21s-48 7 -76 7c-91.333 0 -165 -29.667 -221 -89c-22.667 -24 -40.667 -52.333 -54 -85s-20 -69.334 -20 -110.001
c0 -35.333 5.83301 -70.333 17.5 -105s31.167 -66.667 58.5 -96c23.333 -25.333 53.5 -46.166 90.5 -62.499s79.833 -24.5 128.5 -24.5c16 0 35.333 1.33301 58 4s47.667 10 75 22c15.333 6 31.5 14.5 48.5 25.5s32.833 22.833 47.5 35.5v-323h36zM586 110
c-21.333 -19.333 -40.834 -34.833 -58.501 -46.5s-33.834 -20.834 -48.501 -27.501c-15.333 -6.66699 -33.166 -12.167 -53.499 -16.5s-43.166 -6.5 -68.499 -6.5c-36 0 -70.667 6.16699 -104 18.5s-63 32.166 -89 59.499c-20 20 -36 44.833 -48 74.5
s-18 63.834 -18 102.501c0 32 5.33301 63.167 16 93.5s27 57.166 49 80.499s49.167 42 81.5 56s69.833 21 112.5 21c20.667 0 41.5 -1.66699 62.5 -5s42.167 -9.66602 63.5 -18.999c18 -8.66699 35.833 -19.167 53.5 -31.5s34.167 -26.166 49.5 -41.499v-312z" />
    <glyph glyph-name="r" unicode="r" horiz-adv-x="562" 
d="M526 494c-11.333 10 -21.332 18.168 -29.999 24.501s-18.334 11.833 -29.001 16.5c-14 6.66699 -28.5 11.167 -43.5 13.5s-30.167 3.5 -45.5 3.5c-24 0 -46.833 -2.83301 -68.5 -8.5s-42.167 -13.167 -61.5 -22.5c-18 -8 -35 -17.167 -51 -27.5
s-32.667 -21.833 -50 -34.5l1 81h-36v-548h36v426c17.333 15.333 35.833 29.333 55.5 42s39.167 23.667 58.5 33c22 10 42.667 16.833 62 20.5s37.333 5.5 54 5.5c29.333 0 54.333 -4.66699 75 -14c8 -4 15.833 -8.83301 23.5 -14.5s16.167 -13.834 25.5 -24.501z" />
    <glyph glyph-name="s" unicode="s" horiz-adv-x="652" 
d="M600 147c0 18.667 -4 36.6689 -12 54.002s-19 31.666 -33 42.999c-10 8 -20.833 15 -32.5 21s-25.834 11.333 -42.501 16s-36.5 9.16699 -59.5 13.5s-50.5 9.16602 -82.5 14.499c-35.333 5.33301 -64.166 10 -86.499 14s-40.666 7.83301 -54.999 11.5s-26 7.66699 -35 12
s-17.5 9.5 -25.5 15.5c-11.333 9.33301 -19.166 18.666 -23.499 27.999s-6.5 19.333 -6.5 30c0 16 4.33301 29.667 13 41s21 21 37 29c21.333 11.333 47.166 18.833 77.499 22.5s61.5 5.5 93.5 5.5c59.333 0 107 -7.83301 143 -23.5s62 -35.5 78 -59.5l28 24
c-13.333 16.667 -27 30 -41 40s-29.333 18.667 -46 26c-24.667 11.333 -50.667 18.666 -78 21.999s-55.333 5 -84 5c-39.333 0 -74.5 -2.5 -105.5 -7.5s-57.833 -12.833 -80.5 -23.5c-22.667 -10 -40.167 -23.5 -52.5 -40.5s-18.5 -37.167 -18.5 -60.5
c0 -18.667 4.16699 -35.167 12.5 -49.5s20.166 -27.166 35.499 -38.499c10 -7.33301 20.333 -13.5 31 -18.5s23.834 -9.5 39.501 -13.5s34.667 -8 57 -12s49.833 -8.33301 82.5 -13l83 -14c22.667 -4 41.5 -8.16699 56.5 -12.5s27.5 -9 37.5 -14s19 -10.833 27 -17.5
c11.333 -10 19.5 -21.667 24.5 -35s7.5 -26 7.5 -38c0 -36 -17 -64.667 -51 -86c-23.333 -15.333 -51.333 -26.5 -84 -33.5s-65.334 -10.5 -98.001 -10.5c-62.667 0 -115.667 8.33301 -159 25s-76 37 -98 61l-26 -26c17.333 -15.333 34.833 -28.833 52.5 -40.5
s38.167 -21.167 61.5 -28.5c24 -7.33301 50.333 -13.333 79 -18s60 -7 94 -7c44 0 82.5 4.33301 115.5 13s61.167 21 84.5 37c22 16 38.333 32.833 49 50.5s16 39.834 16 66.501z" />
    <glyph glyph-name="t" unicode="t" horiz-adv-x="676" 
d="M664 41l-16 31.999c-11.333 -6 -24.333 -12.5 -39 -19.5s-30.5 -13.5 -47.5 -19.5s-35 -11 -54 -15s-38.833 -6 -59.5 -6c-25.333 0 -51 2.16699 -77 6.5s-49.5 12.5 -70.5 24.5s-38.167 28.833 -51.5 50.5s-20 50.167 -20 85.5v326h371v34h-371v162h-36v-162h-166v-34
h166v-326c0 -43.333 8.33301 -78.166 25 -104.499s37.667 -46.5 63 -60.5s52.833 -23.333 82.5 -28s57.167 -7 82.5 -7c23.333 0 45.5 2 66.5 6s40.833 9 59.5 15s35.667 12.5 51 19.5s29 13.833 41 20.5z" />
    <glyph glyph-name="u" unicode="u" horiz-adv-x="721" 
d="M609 -8v548h-36v-417c-25.333 -19.333 -50.5 -36 -75.5 -50s-47.167 -25 -66.5 -33c-22.667 -8.66699 -45 -15.334 -67 -20.001s-42.667 -7 -62 -7c-34 0 -60.667 4.33301 -80 13s-34.333 18 -45 28c-14.667 14 -24 29.667 -28 47s-6 36.333 -6 57v382h-36v-383
c0 -29.333 3.66699 -53.833 11 -73.5s18.333 -37.167 33 -52.5c32.667 -34 82.334 -51 149.001 -51c46 0 92.667 9.66699 140 29c23.333 8.66699 45.666 19.5 66.999 32.5l72 45.5c-1.33301 -3.33301 -2.33301 -10.166 -3 -20.499l-2 -32c-0.666992 -11 -1 -20.833 -1 -29.5
v-13h36z" />
    <glyph glyph-name="v" unicode="v" horiz-adv-x="668" 
d="M646 540h-39l-140 -262l-66 -124l-67 -124l-65.5 121.5l-66.5 124.5l-140 264h-40l297 -548h29z" />
    <glyph glyph-name="w" unicode="w" horiz-adv-x="1244" 
d="M1222 540h-39l-140 -260l-66 -123.5l-67 -124.5l-67 123.5l-67 123.5l-142 261h-27l-137 -254l-136 -254l-67.5 124.5l-66.5 124.5l-139 259h-39l296 -548h31l141 261l65.5 121l64.5 123l66 -123.5l67 -122.5l141 -259h32z" />
    <glyph glyph-name="x" unicode="x" horiz-adv-x="627" 
d="M573 -8v12l-236 273l214 251v12h-35l-203 -237l-202 237h-36v-12l216 -251l-237 -273v-12h36l223 260l224 -260h36z" />
    <glyph glyph-name="y" unicode="y" horiz-adv-x="661" 
d="M638 540l-37.9971 0.000976562l-107 -250l-105 -245l-76.5 121.5l-76.5 122.5l-158 251h-41l335 -533l-50 -114c-15.333 -34 -34.333 -62 -57 -84c-16 -15.333 -34.333 -26.666 -55 -33.999s-43.667 -11 -69 -11c-13.333 0 -25.833 0.833008 -37.5 2.5
s-22.167 4.16699 -31.5 7.5c-10.667 3.33301 -20.334 7.33301 -29.001 12l-27 15l-18 -31c11.333 -6.66699 21.666 -12.167 30.999 -16.5s20.333 -8.5 33 -12.5c10.667 -3.33301 22.167 -5.83301 34.5 -7.5s27.166 -2.5 44.499 -2.5c34 0 62.833 5 86.5 15
s43.834 22.667 60.501 38c17.333 15.333 31.166 31.666 41.499 48.999s18.5 33.666 24.5 48.999z" />
    <glyph glyph-name="z" unicode="z" horiz-adv-x="604" 
d="M576 -8v34h-470l454 483v31h-484v-34h434l-455 -483v-31h521z" />
    <glyph glyph-name="braceleft" unicode="{" horiz-adv-x="464" 
d="M375 -164l-0.00195312 31.9971c-47.333 2 -81.666 12.667 -102.999 32c-8.66699 8 -15.667 19.667 -21 35s-8 36.333 -8 63v157c0 26.667 -2.83301 48.667 -8.5 66s-14.167 32 -25.5 44c-5.33301 6.66699 -11.5 12 -18.5 16s-14.5 7.66699 -22.5 11
c17.333 5.33301 31 14 41 26c11.333 12 19.833 26.667 25.5 44s8.5 39.333 8.5 66v157c0 26.667 2.83301 47.334 8.5 62.001s12.834 26.667 21.501 36c18 19.333 52 30 102 32v32c-30 -1.33301 -55.5 -5.16602 -76.5 -11.499s-38.5 -16.5 -52.5 -30.5
c-26 -26 -39 -66.667 -39 -122v-144c0 -29.333 -2.33301 -51.166 -7 -65.499s-11.334 -26.166 -20.001 -35.499c-8 -8.66699 -18.167 -15.334 -30.5 -20.001s-29.5 -8.33398 -51.5 -11.001v-31c22 -2.66699 39.167 -6.33398 51.5 -11.001s22.5 -11.334 30.5 -20.001
c8.66699 -9.33301 15.334 -21.166 20.001 -35.499s7 -36.166 7 -65.499v-144c0 -55.333 13 -96 39 -122c14 -14 31.5 -24.167 52.5 -30.5s46.5 -10.166 76.5 -11.499z" />
    <glyph glyph-name="bar" unicode="|" horiz-adv-x="593" 
d="M314 -258v1016h-34v-1016h34z" />
    <glyph glyph-name="braceright" unicode="}" horiz-adv-x="464" 
d="M366 276l-0.00195312 31.0029c-22 2.66699 -39.167 6.33398 -51.5 11.001s-22.5 11.334 -30.5 20.001c-8.66699 9.33301 -15.334 21.166 -20.001 35.499s-7 36.166 -7 65.499v144c0 55.333 -13 96 -39 122c-14 14 -31.5 24.167 -52.5 30.5s-46.5 10.166 -76.5 11.499v-32
c50 -2 84 -12.667 102 -32c8.66699 -9.33301 15.834 -21.333 21.501 -36s8.5 -35.334 8.5 -62.001v-157c0 -26.667 2.83301 -48.667 8.5 -66s14.167 -32 25.5 -44c5.33301 -6.66699 11.5 -12 18.5 -16s14.5 -7.66699 22.5 -11c-17.333 -5.33301 -31 -14 -41 -26
c-11.333 -12 -19.833 -26.667 -25.5 -44s-8.5 -39.333 -8.5 -66v-157c0 -26.667 -2.66699 -47.667 -8 -63s-12.333 -27 -21 -35c-21.333 -19.333 -55.666 -30 -102.999 -32v-32c30 1.33301 55.5 5.16602 76.5 11.499s38.5 16.5 52.5 30.5c26 26 39 66.667 39 122v144
c0 29.333 2.33301 51.166 7 65.499s11.334 26.166 20.001 35.499c8 8.66699 18.167 15.334 30.5 20.001s29.5 8.33398 51.5 11.001z" />
    <glyph glyph-name="asciitilde" unicode="~" horiz-adv-x="800" 
d="M685 279l-33 16c-10 -11.333 -23 -21 -39 -29s-39 -12 -69 -12c-14.667 0 -30.667 1 -48 3s-36.666 6 -57.999 12l-64 17c-13.333 3.33301 -30.166 6.83301 -50.499 10.5s-43.5 5.5 -69.5 5.5c-37.333 0 -66.666 -6 -87.999 -18s-38.333 -25.667 -51 -41l33 -16
c10 11.333 23 21 39 29s39 12 69 12c14.667 0 30.667 -1 48 -3s36.666 -6 57.999 -12l64 -17c13.333 -3.33301 30.166 -6.83301 50.499 -10.5s43.5 -5.5 69.5 -5.5c37.333 0 66.666 6 87.999 18s38.333 25.667 51 41z" />
    <glyph glyph-name="exclamdown" unicode="&#xa1;" horiz-adv-x="320" 
d="M178 399v96h-36v-96h36zM178 -230l-3 569h-30l-3 -569h36z" />
    <glyph glyph-name="cent" unicode="&#xa2;" 
d="M687 183l-29 19.999c-24.667 -34 -55.167 -60.333 -91.5 -79s-80.5 -28.667 -132.5 -30v507c46.667 -1.33301 88.667 -11.166 126 -29.499s65.666 -40.166 84.999 -65.499l30 20c-58 68 -138.333 104 -241 108v66h-34v-68c-43.333 -3.33301 -82.166 -12.5 -116.499 -27.5
s-63.666 -35 -87.999 -60s-43 -54.167 -56 -87.5s-19.5 -69.666 -19.5 -108.999c0 -42 6.66699 -80 20 -114s32.166 -63.333 56.499 -88s53.833 -44.334 88.5 -59.001s73 -23.334 115 -26.001v-69h34v69c59.333 1.33301 109 12.5 149 33.5s74.667 50.5 104 88.5zM400 95.999
c-36 3.33301 -68.999 11.167 -98.999 23.5s-55.833 29.166 -77.5 50.499s-38.334 46.833 -50.001 76.5s-17.5 63.5 -17.5 101.5c0 70.667 21.5 128.334 64.5 173.001s102.833 70.667 179.5 78v-503z" />
    <glyph glyph-name="sterling" unicode="&#xa3;" 
d="M757 42l-24.999 23c-21.333 -17.333 -44.666 -29.333 -69.999 -36s-59 -10 -101 -10c-27.333 0 -51.333 1.16699 -72 3.5s-41 4.83301 -61 7.5s-40.667 5.16699 -62 7.5s-45.666 3.5 -72.999 3.5c-10.667 0 -19.834 -0.166992 -27.501 -0.5s-15.167 -0.833008 -22.5 -1.5
c24 19.333 42.167 41.666 54.5 66.999s18.5 55 18.5 89c0 28 -2.83301 53.5 -8.5 76.5s-12.167 44.833 -19.5 65.5h268v33h-282l-26 71c-8 22.667 -12 47.667 -12 75c0 24 3.83301 46 11.5 66s19.834 37 36.501 51s38 24.833 64 32.5s57.333 11.5 94 11.5
c44 0 80.833 -6.33301 110.5 -19s54.5 -33.667 74.5 -63l28 17c-24 37.333 -54.167 63 -90.5 77s-77.833 21 -124.5 21c-40.667 0 -75.834 -4.83301 -105.501 -14.5s-54.334 -23 -74.001 -40s-34.334 -37.167 -44.001 -60.5s-14.5 -48.666 -14.5 -75.999
c0 -28 3.33301 -53.5 10 -76.5s14.667 -47.167 24 -72.5h-117v-33h131c8.66699 -21.333 16.167 -43.333 22.5 -66s9.5 -48 9.5 -76c0 -40 -10.833 -74.167 -32.5 -102.5s-52.5 -52.833 -92.5 -73.5l15 -28c18.667 6.66699 36.667 11.167 54 13.5s39.666 3.5 66.999 3.5
c24 0 47.167 -1.16699 69.5 -3.5s44.333 -4.83301 66 -7.5s43.334 -5.16699 65.001 -7.5s44.167 -3.5 67.5 -3.5c53.333 0 94.833 5.16699 124.5 15.5s53.5 23.833 71.5 40.5z" />
    <glyph glyph-name="yen" unicode="&#xa5;" horiz-adv-x="846" 
d="M740 700l-45.001 0.000976562l-140 -187l-66 -88l-66 -92c-21.333 31.333 -43.166 61.666 -65.499 90.999l-67.5 89l-139 187h-45l299 -398v-9h-277v-33h277v-85h-277v-33h277v-150h36v150h275v33h-275v85h275v33h-275v9z" />
    <glyph glyph-name="brokenbar" unicode="&#xa6;" horiz-adv-x="593" 
d="M314 317v366h-34v-366h34zM314 -183v366h-34v-366h34z" />
    <glyph glyph-name="section" unicode="&#xa7;" horiz-adv-x="778" 
d="M689 267c0 30.667 -6.3291 55.8252 -18.9961 75.4922s-30.334 36.334 -53.001 50.001s-49.667 24.834 -81 33.501s-66 17.334 -104 26.001c-38.667 8.66699 -74.5 17.167 -107.5 25.5s-56.833 15.833 -71.5 22.5c-20.667 9.33301 -35.834 20.833 -45.501 34.5
s-14.5 30.5 -14.5 50.5c0 23.333 7 42.333 21 57s31.833 26.167 53.5 34.5s45.5 14 71.5 17s51 4.5 75 4.5c20.667 0 41.5 -1.33301 62.5 -4s40.5 -7.33398 58.5 -14.001s34.167 -16 48.5 -28s25.166 -27 32.499 -45l33 16c-10 21.333 -23.5 39 -40.5 53s-36 25 -57 33
s-43.333 13.667 -67 17s-47.5 5 -71.5 5c-34 0 -66.5 -2.33301 -97.5 -7s-59.167 -13.334 -84.5 -26.001c-19.333 -9.33301 -36.5 -23.333 -51.5 -42s-22.5 -42 -22.5 -70c0 -18.667 3.66699 -36.667 11 -54s19.666 -32.333 36.999 -45
c-8.66699 -4 -18.334 -9.16699 -29.001 -15.5s-20.667 -14.166 -30 -23.499s-17.166 -20.666 -23.499 -33.999s-9.5 -29 -9.5 -47c0 -26 6.16699 -47.667 18.5 -65s29.666 -32 51.999 -44s48.833 -22 79.5 -30s64.334 -15.667 101.001 -23l58.5 -12.5
c19.667 -4.33301 38.5 -9.16602 56.5 -14.499s34.5 -11.166 49.5 -17.499s27.167 -13.166 36.5 -20.499c15.333 -11.333 26.5 -23.166 33.5 -35.499s10.5 -28.166 10.5 -47.499c0 -22.667 -5.66699 -43.167 -17 -61.5s-26.666 -33.833 -45.999 -46.5
c-44.667 -29.333 -100 -44 -166 -44c-31.333 0 -59.333 2.5 -84 7.5s-46.334 11.5 -65.001 19.5s-34.834 17.5 -48.501 28.5s-25.5 22.5 -35.5 34.5l-28 -22c8 -10 18.833 -20.833 32.5 -32.5s31 -22.667 52 -33s46 -18.833 75 -25.5s62.833 -10 101.5 -10
c36 0 70.167 4 102.5 12s62.5 22.333 90.5 43c20.667 14.667 37.834 32.667 51.501 54s20.5 45.666 20.5 72.999c0 22.667 -3.5 40.834 -10.5 54.501s-14.5 25.167 -22.5 34.5c22.667 15.333 41.167 34 55.5 56s21.5 44.667 21.5 68zM653.004 268.991
c0 -20.667 -6.00195 -40.333 -18.002 -59s-27 -33.667 -45 -45c-15.333 11.333 -33 21 -53 29s-41.333 15 -64 21c-23.333 6 -47.833 11.5 -73.5 16.5s-50.834 10.167 -75.501 15.5c-25.333 6 -48.666 12.167 -69.999 18.5s-39.666 14 -54.999 23s-27.5 19.5 -36.5 31.5
s-13.5 26.333 -13.5 43v1c0 26 7.66699 47.5 23 64.5s38.333 30.167 69 39.5c52.667 -19.333 103.834 -34 153.501 -44s94.167 -20.667 133.5 -32s70 -26 92 -44s33 -44.333 33 -79z" />
    <glyph glyph-name="dieresis" unicode="&#xa8;" horiz-adv-x="500" 
d="M381 604v93h-34v-93h34zM153 604v93h-34v-93h34z" />
    <glyph glyph-name="copyright" unicode="&#xa9;" horiz-adv-x="1008" 
d="M879 355c0 52 -9.83301 100.833 -29.5 146.5s-46.5 85.5 -80.5 119.5s-73.833 60.833 -119.5 80.5s-94.167 29.5 -145.5 29.5h-1c-52 0 -100.833 -9.83301 -146.5 -29.5s-85.5 -46.5 -119.5 -80.5s-60.833 -73.833 -80.5 -119.5s-29.5 -94.5 -29.5 -146.5
s9.83301 -100.833 29.5 -146.5s46.5 -85.667 80.5 -120s73.833 -61.333 119.5 -81s94.5 -29.5 146.5 -29.5s100.833 9.83301 146.5 29.5s85.5 46.667 119.5 81s60.833 74.333 80.5 120s29.5 94.5 29.5 146.5zM846 355c0 -47.333 -9 -92 -27 -134s-42.5 -78.5 -73.5 -109.5
s-67.167 -55.5 -108.5 -73.5s-85.666 -27 -132.999 -27s-91.666 9 -132.999 27s-77.5 42.5 -108.5 73.5s-55.5 67.5 -73.5 109.5s-27 86.667 -27 134s9 91.833 27 133.5s42.333 78 73 109s66.667 55.5 108 73.5s85.666 27 132.999 27h1c47.333 0 91.666 -9 132.999 -27
s77.5 -42.5 108.5 -73.5s55.5 -67.333 73.5 -109s27 -86.167 27 -133.5zM680 183l-22.998 25.001c-8.66699 -9.33301 -18.5 -18 -29.5 -26s-22.167 -14.333 -33.5 -19c-10 -3.33301 -21.167 -6.5 -33.5 -9.5s-26.833 -4.5 -43.5 -4.5c-23.333 0 -46.666 4 -69.999 12
s-45.333 22.667 -66 44s-34.834 44.833 -42.501 70.5s-11.5 52.834 -11.5 81.501c0 38 5.16699 68.667 15.5 92s22.833 42 37.5 56c20 20.667 41.5 35.5 64.5 44.5s47.167 13.5 72.5 13.5c8 0 15 -0.166992 21 -0.5s11.5 -1 16.5 -2s10.167 -2.33301 15.5 -4l18 -5.5
c18 -5.33301 38 -18 60 -38l23 25c-13.333 12 -25 21 -35 27s-21.333 11.333 -34 16c-13.333 5.33301 -26.833 9.16602 -40.5 11.499s-27.834 3.5 -42.501 3.5c-33.333 0 -63.5 -5.83301 -90.5 -17.5s-51.167 -27.5 -72.5 -47.5
c-21.333 -20.667 -37.5 -45.834 -48.5 -75.501s-16.5 -62.5 -16.5 -98.5c0 -37.333 5.66699 -70.666 17 -99.999s27.333 -54.666 48 -75.999c21.333 -20.667 45.5 -36.667 72.5 -48s57.167 -17 90.5 -17c16 0 32.167 1.66699 48.5 5s29.166 7.33301 38.499 12
c13.333 5.33301 26 11.666 38 18.999s24 17.666 36 30.999z" />
    <glyph glyph-name="ordfeminine" unicode="&#xaa;" horiz-adv-x="455" 
d="M394 376l0.00195312 13.9961c-8 6 -13.667 11.5 -17 16.5s-5 11.5 -5 19.5v142v27c0 8.66699 -0.333008 17 -1 25c-2 18.667 -6.66699 34.334 -14 47.001c-9.33301 14.667 -23.666 26 -42.999 34s-46.666 12 -81.999 12c-26 0 -47 -1.16699 -63 -3.5s-28.667 -5 -38 -8
s-15.833 -6 -19.5 -9s-5.83398 -5.16699 -6.50098 -6.5v-37c1.33301 0.666992 6.16602 3.33398 14.499 8.00098s22.666 9.83398 42.999 15.501s44.5 8.5 72.5 8.5s48.667 -3.16699 62 -9.5s23 -13.166 29 -20.499c4.66699 -6.66699 8.33398 -15.334 11.001 -26.001
c0.666992 -4.66699 1 -9.33398 1 -14.001v-11v-5c-47.333 -4 -87.833 -9.16699 -121.5 -15.5s-61.334 -14.666 -83.001 -24.999s-37.667 -23 -48 -38s-15.5 -33.167 -15.5 -54.5c0 -20 5 -36.167 15 -48.5s22.167 -21.666 36.5 -27.999s29.666 -10.666 45.999 -12.999
s30.833 -3.5 43.5 -3.5c19.333 0 40.833 3.16699 64.5 9.5s45.167 17.166 64.5 32.499c1.33301 -6 3.5 -11.833 6.5 -17.5s8.16699 -11.5 15.5 -17.5h32zM338.002 449.996c-36.667 -32.667 -81.332 -49.001 -133.999 -49.001c-10.667 0 -21.834 0.833008 -33.501 2.5
s-22.5 4.83398 -32.5 9.50098s-18.167 11.167 -24.5 19.5s-9.5 18.833 -9.5 31.5c0 13.333 3.83301 25.333 11.5 36s20.5 20.167 38.5 28.5s42 15.333 72 21s67.333 10.167 112 13.5v-113z" />
    <glyph glyph-name="guillemotleft" unicode="&#xab;" horiz-adv-x="546" 
d="M449 42v44l-163 163l163 163v44l-210 -203v-8zM285 42v44l-163 163l163 163v44l-210 -203v-8z" />
    <glyph glyph-name="logicalnot" unicode="&#xac;" horiz-adv-x="800" 
d="M664 151v182h-528v-32h494v-150h34z" />
    <glyph glyph-name="registered" unicode="&#xae;" horiz-adv-x="1008" 
d="M880 355c0 52 -9.83301 100.833 -29.5 146.5s-46.5 85.5 -80.5 119.5s-73.833 60.833 -119.5 80.5s-94.167 29.5 -145.5 29.5h-1c-52 0 -100.833 -9.83301 -146.5 -29.5s-85.5 -46.5 -119.5 -80.5s-60.833 -73.833 -80.5 -119.5s-29.5 -94.5 -29.5 -146.5
s9.83301 -100.833 29.5 -146.5s46.5 -85.667 80.5 -120s73.833 -61.333 119.5 -81s94.5 -29.5 146.5 -29.5s100.833 9.83301 146.5 29.5s85.5 46.667 119.5 81s60.833 74.333 80.5 120s29.5 94.5 29.5 146.5zM847 355c0 -47.333 -9 -92 -27 -134s-42.5 -78.5 -73.5 -109.5
s-67.167 -55.5 -108.5 -73.5s-85.666 -27 -132.999 -27s-91.666 9 -132.999 27s-77.5 42.5 -108.5 73.5s-55.5 67.5 -73.5 109.5s-27 86.667 -27 134s9 91.833 27 133.5s42.333 78 73 109s66.667 55.5 108 73.5s85.666 27 132.999 27h1c47.333 0 91.666 -9 132.999 -27
s77.5 -42.5 108.5 -73.5s55.5 -67.333 73.5 -109s27 -86.167 27 -133.5zM732 118l-182.998 214.001c11.333 2 24.166 5.5 38.499 10.5s27.666 12.667 39.999 23s22.833 23.666 31.5 39.999s13 36.5 13 60.5c0 17.333 -3.16699 34 -9.5 50s-17.5 30.333 -33.5 43
c-15.333 12.667 -36 22.5 -62 29.5s-58.333 10.5 -97 10.5h-102v-481h36v211h101l181 -211h46zM636.002 462.001c0 -28.667 -10.667 -52.5 -32 -71.5s-54 -28.5 -98 -28.5h-102v204h66c24.667 0 47.167 -1.66699 67.5 -5s37.833 -9 52.5 -17s26 -18.667 34 -32
s12 -30 12 -50z" />
    <glyph glyph-name="macron" unicode="&#xaf;" horiz-adv-x="500" 
d="M388 632v34h-276v-34h276z" />
    <glyph glyph-name="degree" unicode="&#xb0;" horiz-adv-x="506" 
d="M384 582c0 18 -3.49902 35 -10.499 51s-16.333 29.833 -28 41.5s-25.334 21 -41.001 28s-32.5 10.5 -50.5 10.5h-1c-18 0 -35 -3.5 -51 -10.5s-29.833 -16.333 -41.5 -28s-21 -25.5 -28 -41.5s-10.5 -33 -10.5 -51s3.5 -35 10.5 -51s16.333 -29.833 28 -41.5
s25.5 -21 41.5 -28s33 -10.5 51 -10.5s35 3.5 51 10.5s29.833 16.333 41.5 28s21 25.5 28 41.5s10.5 33 10.5 51zM349.001 582c0 -26.667 -9.16504 -49.167 -27.498 -67.5s-40.833 -27.5 -67.5 -27.5s-49.167 9.16699 -67.5 27.5s-27.5 40.833 -27.5 67.5
c0 13.333 2.5 25.833 7.5 37.5s11.667 21.667 20 30s18.166 15 29.499 20s23.666 7.5 36.999 7.5h1c26.667 0 49.167 -9.16699 67.5 -27.5s27.5 -40.833 27.5 -67.5z" />
    <glyph glyph-name="plusminus" unicode="&#xb1;" horiz-adv-x="800" 
d="M664 237v32h-247v185h-34v-185h-247v-32h247v-181h34v181h247zM664 -8v32h-528v-32h528z" />
    <glyph glyph-name="twosuperior" unicode="&#xb2;" horiz-adv-x="543" 
d="M457 275l-0.000976562 33.999h-339c10 18.667 22 35.167 36 49.5s29.333 27.166 46 38.499s34.167 21.5 52.5 30.5l55.5 26.5c20 8.66699 38.667 17.5 56 26.5s32.666 19 45.999 30s23.833 23.333 31.5 37s11.5 29.5 11.5 47.5c0 20 -4.5 37.333 -13.5 52
s-21.5 26.834 -37.5 36.501s-35 17 -57 22s-46 7.5 -72 7.5c-54.667 0 -96 -9.83301 -124 -29.5s-46.667 -45.167 -56 -76.5l35 -6c2.66699 8.66699 6.66699 17.667 12 27s13.333 17.833 24 25.5s24.5 14 41.5 19s38.167 7.5 63.5 7.5
c52.667 0 90.834 -8.16699 114.501 -24.5s35.5 -36.166 35.5 -59.499c0 -15.333 -3.5 -28.333 -10.5 -39s-17.167 -20.667 -30.5 -30c-6.66699 -5.33301 -13.667 -10 -21 -14l-24 -13l-27 -12c-9.33301 -4 -18.666 -8.33301 -27.999 -13
c-19.333 -8.66699 -39 -18.167 -59 -28.5s-39 -22.833 -57 -37.5s-34.5 -31.667 -49.5 -51s-26.833 -42.333 -35.5 -69l17 -14h363z" />
    <glyph glyph-name="threesuperior" unicode="&#xb3;" horiz-adv-x="543" 
d="M451 390c0 18.667 -3.16602 34.665 -9.49902 47.998s-14.833 24.5 -25.5 33.5s-22.5 16.333 -35.5 22s-25.833 9.83398 -38.5 12.501c27.333 7.33301 48.5 19 63.5 35s22.5 38.667 22.5 68c0 9.33301 -1.83301 20 -5.5 32s-11 23.333 -22 34s-27 19.667 -48 27
s-48.833 11 -83.5 11c-46 0 -84 -7.5 -114 -22.5s-49.667 -42.167 -59 -81.5l34 -7c8.66699 29.333 23.5 49.666 44.5 60.999s52.833 17 95.5 17c28.667 0 51.334 -3 68.001 -9s29.167 -13 37.5 -21s13.5 -16.333 15.5 -25s3 -15.667 3 -21
c0 -23.333 -13.333 -43.166 -40 -59.499s-69.334 -24.5 -128.001 -24.5v-31c61.333 0 108.5 -7.66699 141.5 -23s49.5 -39 49.5 -71c0 -28 -11 -51 -33 -69s-58 -27 -108 -27c-48 0 -84.333 7.33301 -109 22s-44 37.334 -58 68.001l-33 -10
c17.333 -40.667 41.666 -69.667 72.999 -87s71.333 -26 120 -26c60.667 0 106.167 11.167 136.5 33.5s45.5 52.5 45.5 90.5z" />
    <glyph glyph-name="acute" unicode="&#xb4;" horiz-adv-x="500" 
d="M429 693h-65l-159 -129h43z" />
    <glyph glyph-name="mu" unicode="&#xb5;" horiz-adv-x="721" 
d="M609 -8l0.00292969 548.001h-36v-417c-25.333 -19.333 -50.5 -36 -75.5 -50s-47.167 -25 -66.5 -33c-22.667 -8.66699 -45 -15.334 -67 -20.001s-42.667 -7 -62 -7c-34 0 -60.667 4.16699 -80 12.5s-34.333 18.166 -45 29.499c-14.667 14 -24 29.667 -28 47s-6 36 -6 56
v382h-36v-796h36v297c1.33301 -2 2.66602 -3.83301 3.99902 -5.5s2.66602 -3.16699 3.99902 -4.5c16 -16 36.5 -28.5 61.5 -37.5s54.167 -13.5 87.5 -13.5c46 0 92.667 9.66699 140 29c23.333 8.66699 45.666 19.5 66.999 32.5l72 45.5
c-1.33301 -3.33301 -2.33301 -10.166 -3 -20.499l-2 -32c-0.666992 -11 -1 -20.833 -1 -29.5v-13h36z" />
    <glyph glyph-name="paragraph" unicode="&#xb6;" horiz-adv-x="654" 
d="M499 -240l0.000976562 956.999h-219c-36 0 -68.5 -4.83301 -97.5 -14.5s-53.167 -23.5 -72.5 -41.5c-20 -18 -35.5 -39.5 -46.5 -64.5s-16.5 -52.5 -16.5 -82.5c0 -38.667 7.33301 -71 22 -97s33.667 -47 57 -63c22 -15.333 47.167 -26.166 75.5 -32.499
s58.166 -9.83301 89.499 -10.5v-551h34v924h140v-924h34z" />
    <glyph glyph-name="periodcentered" unicode="&#xb7;" horiz-adv-x="260" 
d="M156 253c0 7.33301 -2.33301 13.5 -7 18.5s-10.667 7.5 -18 7.5h-1c-7.33301 0 -13.5 -2.5 -18.5 -7.5s-7.5 -11.167 -7.5 -18.5s2.5 -13.5 7.5 -18.5s11.167 -7.5 18.5 -7.5s13.5 2.5 18.5 7.5s7.5 11.167 7.5 18.5z" />
    <glyph glyph-name="periodcentered" unicode="&#x2219;" horiz-adv-x="260" 
d="M156 253c0 7.33301 -2.33301 13.5 -7 18.5s-10.667 7.5 -18 7.5h-1c-7.33301 0 -13.5 -2.5 -18.5 -7.5s-7.5 -11.167 -7.5 -18.5s2.5 -13.5 7.5 -18.5s11.167 -7.5 18.5 -7.5s13.5 2.5 18.5 7.5s7.5 11.167 7.5 18.5z" />
    <glyph glyph-name="cedilla" unicode="&#xb8;" horiz-adv-x="500" 
d="M356 -112c0 13.333 -3.33105 24.332 -9.99805 32.999s-15 15.5 -25 20.5s-21 8.33301 -33 10s-23.333 2.16699 -34 1.5l44 55h-42l-62 -80l24 -13c7.33301 2 17 3.83301 29 5.5s23.5 1.83398 34.5 0.500977s20.5 -4.5 28.5 -9.5s12 -12.833 12 -23.5
c0 -7.33301 -2.5 -13.333 -7.5 -18s-11.5 -8.5 -19.5 -11.5s-16.833 -5.16699 -26.5 -6.5s-18.834 -2 -27.501 -2c-16.667 0 -31.834 1.66699 -45.501 5s-26.834 8 -39.501 14l-19 -27c12.667 -6.66699 27.667 -12.5 45 -17.5s37 -7.5 59 -7.5c16 0 30.833 1.5 44.5 4.5
s25.834 7.33301 36.501 13s19 13 25 22s9 19.5 9 31.5z" />
    <glyph glyph-name="onesuperior" unicode="&#xb9;" horiz-adv-x="543" 
d="M310 275v434h-19l-127 -57l12 -30l100 46v-393h34z" />
    <glyph glyph-name="ordmasculine" unicode="&#xba;" horiz-adv-x="464" 
d="M421 541c0 26 -4.66699 49.667 -14 71s-22.333 39.5 -39 54.5s-36.5 26.5 -59.5 34.5s-48.167 12 -75.5 12s-52.5 -4 -75.5 -12s-42.667 -19.5 -59 -34.5s-29.166 -33 -38.499 -54s-14 -44.5 -14 -70.5v-1c0 -26 4.66699 -49.667 14 -71s22.166 -39.5 38.499 -54.5
s36 -26.5 59 -34.5s48.167 -12 75.5 -12s52.5 4 75.5 12s42.833 19.5 59.5 34.5s29.667 33.167 39 54.5s14 45 14 71zM387 542c0 -42 -13.668 -75.833 -41.001 -101.5s-65 -38.5 -113 -38.5c-47.333 0 -84.666 12.833 -111.999 38.5s-41 59.5 -41 101.5
s13.667 75.833 41 101.5s64.333 38.5 111 38.5h1c48 0 85.667 -12.833 113 -38.5s41 -59.5 41 -101.5z" />
    <glyph glyph-name="guillemotright" unicode="&#xbb;" horiz-adv-x="546" 
d="M471 245v8l-210 203v-44l163 -163l-163 -163v-44zM307 245v8l-210 203v-44l163 -163l-163 -163v-44z" />
    <glyph glyph-name="onequarter" unicode="&#xbc;" horiz-adv-x="1161" 
d="M1028 109v32h-94v284h-29l-278 -294v-22h273v-117h34v117h94zM901 374c-0.666992 -19.333 -1 -38.667 -1 -58v-59v-116h-219l105 112l57.5 60.5zM848 712.999h-43l-622 -733h44zM310 274.999v434h-19l-127 -57l12 -30l100 46v-393h34z" />
    <glyph glyph-name="onehalf" unicode="&#xbd;" horiz-adv-x="1161" 
d="M1039 -8l-0.000976562 33.999h-339c10 18.667 22 35.167 36 49.5s29.333 27.166 46 38.499s34.167 21.5 52.5 30.5l55.5 26.5c20 8.66699 38.667 17.5 56 26.5s32.666 19 45.999 30s23.833 23.333 31.5 37s11.5 29.5 11.5 47.5c0 20 -4.5 37.333 -13.5 52
s-21.5 26.834 -37.5 36.501s-35 17 -57 22s-46 7.5 -72 7.5c-54.667 0 -96 -9.83301 -124 -29.5s-46.667 -45.167 -56 -76.5l35 -6c2.66699 8.66699 6.66699 17.667 12 27s13.333 17.833 24 25.5s24.5 14 41.5 19s38.167 7.5 63.5 7.5
c52.667 0 90.834 -8.16699 114.501 -24.5s35.5 -36.166 35.5 -59.499c0 -15.333 -3.5 -28.333 -10.5 -39s-17.167 -20.667 -30.5 -30c-6.66699 -5.33301 -13.667 -10 -21 -14l-24 -13l-27 -12c-9.33301 -4 -18.666 -8.33301 -27.999 -13
c-19.333 -8.66699 -39 -18.167 -59 -28.5s-39 -22.833 -57 -37.5s-34.5 -31.667 -49.5 -51s-26.833 -42.333 -35.5 -69l17 -14h363zM824.999 712.999h-43l-622 -733h44zM290.999 274.999v434h-18l-118 -35l10 -31l92 27v-395h34z" />
    <glyph glyph-name="threequarters" unicode="&#xbe;" horiz-adv-x="1246" 
d="M1113 109v32h-94v284h-29l-278 -294v-22h273v-117h34v117h94zM986 374c-0.666992 -19.333 -1 -38.667 -1 -58v-59v-116h-219l105 112l57.5 60.5zM949 712.999h-43l-622 -733h44zM451 389.999c0 18.667 -3.16602 34.665 -9.49902 47.998s-14.833 24.5 -25.5 33.5
s-22.5 16.333 -35.5 22s-25.833 9.83398 -38.5 12.501c27.333 7.33301 48.5 19 63.5 35s22.5 38.667 22.5 68c0 9.33301 -1.83301 20 -5.5 32s-11 23.333 -22 34s-27 19.667 -48 27s-48.833 11 -83.5 11c-46 0 -84 -7.5 -114 -22.5s-49.667 -42.167 -59 -81.5l34 -7
c8.66699 29.333 23.5 49.666 44.5 60.999s52.833 17 95.5 17c28.667 0 51.334 -3 68.001 -9s29.167 -13 37.5 -21s13.5 -16.333 15.5 -25s3 -15.667 3 -21c0 -23.333 -13.333 -43.166 -40 -59.499s-69.334 -24.5 -128.001 -24.5v-31c61.333 0 108.5 -7.66699 141.5 -23
s49.5 -39 49.5 -71c0 -28 -11 -51 -33 -69s-58 -27 -108 -27c-48 0 -84.333 7.33301 -109 22s-44 37.334 -58 68.001l-33 -10c17.333 -40.667 41.666 -69.667 72.999 -87s71.333 -26 120 -26c60.667 0 106.167 11.167 136.5 33.5s45.5 52.5 45.5 90.5z" />
    <glyph glyph-name="questiondown" unicode="&#xbf;" horiz-adv-x="587" 
d="M338 399v96h-36v-96h36zM586 -92l-33.002 12.998c-18.667 -38 -49.167 -68.167 -91.5 -90.5s-100.166 -33.5 -173.499 -33.5c-33.333 0 -64.666 2.33301 -93.999 7s-55 12.334 -77 23.001s-39.5 24.667 -52.5 42s-19.5 38.666 -19.5 63.999c0 17.333 2.16699 33 6.5 47
s11.333 26.833 21 38.5s22.334 22.834 38.001 33.501s34.834 21.667 57.501 33c35.333 16.667 64.333 33 87 49s40.5 33.5 53.5 52.5s21.5 40.667 25.5 65s5.33301 53.5 4 87.5h-31c0.666992 -27.333 -0.5 -51.333 -3.5 -72s-9.83301 -39.5 -20.5 -56.5
s-25.834 -32.833 -45.501 -47.5s-45.5 -29.667 -77.5 -45c-28 -13.333 -51.5 -26.333 -70.5 -39s-34.5 -26.167 -46.5 -40.5s-20.667 -29.833 -26 -46.5s-8 -35.667 -8 -57c0 -32.667 7.5 -60 22.5 -82s35.167 -39.5 60.5 -52.5s54.666 -22.333 87.999 -28s68 -8.5 104 -8.5
c44.667 0 83.667 3.5 117 10.5s62 16.833 86 29.5s44 27.834 60 45.501s29 37.167 39 58.5z" />
    <glyph glyph-name="Agrave" unicode="&#xc0;" horiz-adv-x="691" 
d="M444 729l-173 106h-89l208 -106h54zM678 -8l-321 725h-24l-320 -725h40l110 247h363l111 -247h41zM511 274h-332l85 198l40.5 93c13.667 30.667 27.167 62.667 40.5 96l42 -98l41 -95z" />
    <glyph glyph-name="Aacute" unicode="&#xc1;" horiz-adv-x="691" 
d="M514 835h-89l-173 -106h54zM678 -8l-321 725h-24l-320 -725h40l110 247h363l111 -247h41zM511 274h-332l85 198l40.5 93c13.667 30.667 27.167 62.667 40.5 96l42 -98l41 -95z" />
    <glyph glyph-name="Acircumflex" unicode="&#xc2;" horiz-adv-x="691" 
d="M533 751l-184.001 83h-6l-184 -83h56l131 44c-0.666992 0 3.5 -1.5 12.5 -4.5l32.5 -11l39 -13l33 -11c8.66699 -3 13.334 -4.5 14.001 -4.5h56zM677.999 -8l-321 725h-24l-320 -725h40l110 247h363l111 -247h41zM510.999 274h-332l85 198l40.5 93
c13.667 30.667 27.167 62.667 40.5 96l42 -98l41 -95z" />
    <glyph glyph-name="Atilde" unicode="&#xc3;" horiz-adv-x="691" 
d="M508 808l-23.001 23.002c-11.333 -12.667 -22.5 -21 -33.5 -25s-23.5 -6 -37.5 -6c-10.667 0 -21 0.833008 -31 2.5s-17.667 3.5 -23 5.5l-22 7c-12 3.33301 -23.333 5.66602 -34 6.99902s-20.334 2 -29.001 2c-17.333 0 -33.666 -2.83301 -48.999 -8.5
s-29.666 -16.5 -42.999 -32.5l24 -23c10.667 13.333 21.167 21.666 31.5 24.999s22.5 5 36.5 5c10.667 0 21 -0.833008 31 -2.5s17.667 -3.5 23 -5.5l22 -7c12 -4 23.5 -6.5 34.5 -7.5s20.5 -1.5 28.5 -1.5c18 0 34.833 3 50.5 9s30.167 17 43.5 33zM677.999 -7.99805
l-321 725h-24l-320 -725h40l110 247h363l111 -247h41zM510.999 274.002h-332l85 198l40.5 93c13.667 30.667 27.167 62.667 40.5 96l42 -98l41 -95z" />
    <glyph glyph-name="Adieresis" unicode="&#xc4;" horiz-adv-x="691" 
d="M479 739v88h-34v-88h34zM247 739v88h-34v-88h34zM678 -8l-321 725h-24l-320 -725h40l110 247h363l111 -247h41zM511 274h-332l85 198l40.5 93c13.667 30.667 27.167 62.667 40.5 96l42 -98l41 -95z" />
    <glyph glyph-name="Aring" unicode="&#xc5;" horiz-adv-x="691" 
d="M678 -8l-315.999 714.999c17.333 2.66699 33.166 9.66699 47.499 21s21.5 27.333 21.5 48c0 12 -2.5 22.333 -7.5 31s-11.667 15.834 -20 21.501s-17.5 10 -27.5 13s-20 4.5 -30 4.5s-20 -1.5 -30 -4.5s-19.167 -7.33301 -27.5 -13s-15 -12.834 -20 -21.501
s-7.5 -19 -7.5 -31c0 -20 7 -35.667 21 -47s29.667 -18.666 47 -21.999l-316 -715h40l110 247h363l111 -247h41zM395.001 775.999c0 -9.33301 -3.83301 -17.833 -11.5 -25.5s-20.167 -11.5 -37.5 -11.5h-1c-18.667 0 -31.667 3.83301 -39 11.5s-11 16.167 -11 25.5
c0 11.333 4.5 20.333 13.5 27s21.167 10 36.5 10s27.5 -3.33301 36.5 -10s13.5 -15.667 13.5 -27zM511.001 273.999h-332l85 198l40.5 93c13.667 30.667 27.167 62.667 40.5 96l42 -98l41 -95z" />
    <glyph glyph-name="AE" unicode="&#xc6;" horiz-adv-x="1120" 
d="M1038 -8v35h-457v326h360v35h-360v294h443v35h-486l-564 -725h44l193 247h332v-247h495zM543 274h-306l156 201l75 97l75 99v-193v-204z" />
    <glyph glyph-name="Ccedilla" unicode="&#xc7;" horiz-adv-x="844" 
d="M782 153l-30.001 21.002c-11.333 -16 -25.833 -33.5 -43.5 -52.5s-38.334 -36.667 -62.001 -53s-50.667 -29.833 -81 -40.5s-63.833 -16 -100.5 -16c-45.333 0 -89.333 7 -132 21s-80.5 35 -113.5 63s-59.5 63.5 -79.5 106.5s-30 93.5 -30 151.5
c0 61.333 10.667 113.666 32 156.999s49 78.833 83 106.5s72.5 47.834 115.5 60.501s86.167 19 129.5 19c32 0 61 -3.83301 87 -11.5s49.5 -18 70.5 -31s39.667 -28.167 56 -45.5s30.833 -36 43.5 -56l32 19c-14 22 -30.5 42.667 -49.5 62s-40.5 36.166 -64.5 50.499
s-50.5 25.666 -79.5 33.999s-60.833 12.5 -95.5 12.5c-58.667 0 -112 -8.83301 -160 -26.5s-89.667 -42.834 -125 -75.501c-36 -33.333 -63.833 -73 -83.5 -119s-29.5 -97.667 -29.5 -155c0 -58 10.167 -110.333 30.5 -157s49.5 -87.667 87.5 -123
c27.333 -25.333 62.333 -47 105 -65s91 -28.333 145 -31l-46 -64l24 -12c34 6.66699 61.833 6.66699 83.5 0s32.5 -18 32.5 -34c0 -4 -1.5 -8.5 -4.5 -13.5s-8 -9.66699 -15 -14s-16.667 -8 -29 -11s-27.5 -4.5 -45.5 -4.5c-18.667 0 -35.5 1.83301 -50.5 5.5
s-28.833 8.16699 -41.5 13.5l-19 -27c15.333 -8 32.333 -14.167 51 -18.5s40.334 -6.5 65.001 -6.5c42 0 73.333 7.33301 94 22s31 32.667 31 54c0 14 -3.5 25.833 -10.5 35.5s-16 17.167 -27 22.5s-23.333 9 -37 11s-27.167 2.66699 -40.5 2l27 38
c37.333 2 71.333 8.66699 102 20s58.334 25.333 83.001 42s46.5 34.834 65.5 54.501s35.5 39.167 49.5 58.5z" />
    <glyph glyph-name="Egrave" unicode="&#xc8;" horiz-adv-x="719" 
d="M418 729l-173 106h-89l208 -106h54zM637 -8v35h-457v326h360v35h-360v294h443v35h-481v-725h495z" />
    <glyph glyph-name="Eacute" unicode="&#xc9;" horiz-adv-x="719" 
d="M568 835h-89l-173 -106h54zM637 -8v35h-457v326h360v35h-360v294h443v35h-481v-725h495z" />
    <glyph glyph-name="Ecircumflex" unicode="&#xca;" horiz-adv-x="719" 
d="M547 751l-184.001 83h-6l-184 -83h56l131 44c-0.666992 0 3.5 -1.5 12.5 -4.5l32.5 -11l39 -13l33 -11c8.66699 -3 13.334 -4.5 14.001 -4.5h56zM636.999 -8v35h-457v326h360v35h-360v294h443v35h-481v-725h495z" />
    <glyph glyph-name="Edieresis" unicode="&#xcb;" horiz-adv-x="719" 
d="M513 759v88h-34v-88h34zM281 759v88h-34v-88h34zM637 -8v35h-457v326h360v35h-360v294h443v35h-481v-725h495z" />
    <glyph glyph-name="Igrave" unicode="&#xcc;" horiz-adv-x="342" 
d="M269 729l-173 106h-89l208 -106h54zM190 -8v725h-38v-725h38z" />
    <glyph glyph-name="Iacute" unicode="&#xcd;" horiz-adv-x="342" 
d="M339 835h-89l-173 -106h54zM190 -8v725h-38v-725h38z" />
    <glyph glyph-name="Icircumflex" unicode="&#xce;" horiz-adv-x="342" 
d="M358 751l-184.001 83h-6l-184 -83h56l131 44c-0.666992 0 3.5 -1.5 12.5 -4.5l32.5 -11l39 -13l33 -11c8.66699 -3 13.334 -4.5 14.001 -4.5h56zM189.999 -8v725h-38v-725h38z" />
    <glyph glyph-name="Idieresis" unicode="&#xcf;" horiz-adv-x="342" 
d="M304 739v88h-34v-88h34zM72 739v88h-34v-88h34zM190 -8v725h-38v-725h38z" />
    <glyph glyph-name="Eth" unicode="&#xd0;" horiz-adv-x="881" 
d="M789 354c0 54.667 -8.33301 104.501 -25 149.501s-42.167 83.167 -76.5 114.5s-77.333 55.666 -129 72.999s-112.5 26 -182.5 26h-234v-330h-90v-35h90v-360h234c70 0 130.833 8.66699 182.5 26s94.667 41.666 129 72.999s59.833 69.333 76.5 114s25 94.334 25 149.001z
M751 354.001c0 -48.667 -7.16699 -93 -21.5 -133s-36.666 -74.333 -66.999 -103s-69 -51 -116 -67s-103.167 -24 -168.5 -24h-198v325h253v35h-253v295h198c65.333 0 121.5 -8 168.5 -24s85.667 -38.333 116 -67s52.666 -63.167 66.999 -103.5s21.5 -84.833 21.5 -133.5z
" />
    <glyph glyph-name="Ntilde" unicode="&#xd1;" horiz-adv-x="904" 
d="M614 808l-23.001 23.002c-11.333 -12.667 -22.5 -21 -33.5 -25s-23.5 -6 -37.5 -6c-10.667 0 -21 0.833008 -31 2.5s-17.667 3.5 -23 5.5l-22 7c-12 3.33301 -23.333 5.66602 -34 6.99902s-20.334 2 -29.001 2c-17.333 0 -33.666 -2.83301 -48.999 -8.5
s-29.666 -16.5 -42.999 -32.5l24 -23c10.667 13.333 21.167 21.666 31.5 24.999s22.5 5 36.5 5c10.667 0 21 -0.833008 31 -2.5s17.667 -3.5 23 -5.5l22 -7c12 -4 23.5 -6.5 34.5 -7.5s20.5 -1.5 28.5 -1.5c18 0 34.833 3 50.5 9s30.167 17 43.5 33zM761.999 -7.99805v725
h-38v-416c0 -110.667 0.666992 -196.667 2 -258l-208 258l-337 416h-39v-725h38v415c0 110.667 -0.666992 197 -2 259l208.5 -259l336.5 -415h39z" />
    <glyph glyph-name="Ograve" unicode="&#xd2;" horiz-adv-x="940" 
d="M868 354c0 60 -10 112.832 -30 158.499s-46.833 84.167 -80.5 115.5s-72.5 55.333 -116.5 72s-90.333 26.667 -139 30h25l-173 106h-89l206 -105h-1c-51.333 0 -101 -7.66699 -149 -23s-90.5 -38.5 -127.5 -69.5s-66.5 -70.167 -88.5 -117.5s-33 -102.666 -33 -165.999
v-1c0 -63.333 11 -118.666 33 -165.999s51.5 -86.5 88.5 -117.5s79.5 -54.167 127.5 -69.5s97.667 -23 149 -23s101 7.66699 149 23s90.5 38.5 127.5 69.5s66.5 70.167 88.5 117.5s33 102.666 33 165.999zM830 354.999c0 -58 -10.001 -108.5 -30.001 -151.5
s-46.5 -78.5 -79.5 -106.5s-71.333 -49 -115 -63s-88.834 -21 -135.501 -21c-47.333 0 -92.666 7 -135.999 21s-81.5 35 -114.5 63s-59.5 63.5 -79.5 106.5s-30 93.5 -30 151.5s10 108.5 30 151.5s46.5 78.667 79.5 107s71.167 49.5 114.5 63.5s88.333 21 135 21h1
c46.667 0 91.834 -7 135.501 -21s82 -35.167 115 -63.5s59.5 -64 79.5 -107s30 -93.5 30 -151.5z" />
    <glyph glyph-name="Oacute" unicode="&#xd3;" horiz-adv-x="940" 
d="M868 354c0 63.333 -11 118.668 -33 166.001s-51.333 86.666 -88 117.999s-79 54.666 -127 69.999s-97.667 23 -149 23l206 105h-89l-173 -106h23c-48.667 -3.33301 -95 -13.333 -139 -30s-82.833 -40.667 -116.5 -72s-60.5 -69.666 -80.5 -114.999s-30 -98 -30 -158v-1
c0 -63.333 11 -118.666 33 -165.999s51.5 -86.5 88.5 -117.5s79.5 -54.167 127.5 -69.5s97.667 -23 149 -23s101 7.66699 149 23s90.5 38.5 127.5 69.5s66.5 70.167 88.5 117.5s33 102.666 33 165.999zM830 355.002c0 -58 -10.001 -108.5 -30.001 -151.5
s-46.5 -78.5 -79.5 -106.5s-71.333 -49 -115 -63s-88.834 -21 -135.501 -21c-47.333 0 -92.666 7 -135.999 21s-81.5 35 -114.5 63s-59.5 63.5 -79.5 106.5s-30 93.5 -30 151.5s10 108.5 30 151.5s46.5 78.667 79.5 107s71.167 49.5 114.5 63.5s88.333 21 135 21h1
c46.667 0 91.834 -7 135.501 -21s82 -35.167 115 -63.5s59.5 -64 79.5 -107s30 -93.5 30 -151.5z" />
    <glyph glyph-name="Ocircumflex" unicode="&#xd4;" horiz-adv-x="940" 
d="M656 752l-184.001 83h-6l-184 -83h56l131 44c-0.666992 0 3.5 -1.5 12.5 -4.5l32.5 -11l39 -13l33 -11c8.66699 -3 13.334 -4.5 14.001 -4.5h56zM867.999 354c0 64 -11 119.5 -33 166.5s-51.5 86.167 -88.5 117.5s-79.5 54.666 -127.5 69.999s-97.667 23 -149 23
s-101 -7.66699 -149 -23s-90.5 -38.5 -127.5 -69.5s-66.5 -70.167 -88.5 -117.5s-33 -102.666 -33 -165.999v-1c0 -63.333 11 -118.666 33 -165.999s51.5 -86.5 88.5 -117.5s79.5 -54.167 127.5 -69.5s97.667 -23 149 -23s101 7.66699 149 23s90.5 38.5 127.5 69.5
s66.5 70.167 88.5 117.5s33 102.666 33 165.999zM829.999 355c0 -58 -10.001 -108.5 -30.001 -151.5s-46.5 -78.5 -79.5 -106.5s-71.333 -49 -115 -63s-88.834 -21 -135.501 -21c-47.333 0 -92.666 7 -135.999 21s-81.5 35 -114.5 63s-59.5 63.5 -79.5 106.5
s-30 93.5 -30 151.5s10 108.5 30 151.5s46.5 78.667 79.5 107s71.167 49.5 114.5 63.5s88.333 21 135 21h1c46.667 0 91.834 -7 135.501 -21s82 -35.167 115 -63.5s59.5 -64 79.5 -107s30 -93.5 30 -151.5z" />
    <glyph glyph-name="Otilde" unicode="&#xd5;" horiz-adv-x="940" 
d="M631 809l-23.001 23.002c-11.333 -12.667 -22.5 -21 -33.5 -25s-23.5 -6 -37.5 -6c-10.667 0 -21 0.833008 -31 2.5s-17.667 3.5 -23 5.5l-22 7c-12 3.33301 -23.333 5.66602 -34 6.99902s-20.334 2 -29.001 2c-17.333 0 -33.666 -2.83301 -48.999 -8.5
s-29.666 -16.5 -42.999 -32.5l24 -23c10.667 13.333 21.167 21.666 31.5 24.999s22.5 5 36.5 5c10.667 0 21 -0.833008 31 -2.5s17.667 -3.5 23 -5.5l22 -7c12 -4 23.5 -6.5 34.5 -7.5s20.5 -1.5 28.5 -1.5c18 0 34.833 3 50.5 9s30.167 17 43.5 33zM867.999 354.002
c0 64 -11 119.5 -33 166.5s-51.5 86.167 -88.5 117.5s-79.5 54.666 -127.5 69.999s-97.667 23 -149 23s-101 -7.66699 -149 -23s-90.5 -38.5 -127.5 -69.5s-66.5 -70.167 -88.5 -117.5s-33 -102.666 -33 -165.999v-1c0 -63.333 11 -118.666 33 -165.999
s51.5 -86.5 88.5 -117.5s79.5 -54.167 127.5 -69.5s97.667 -23 149 -23s101 7.66699 149 23s90.5 38.5 127.5 69.5s66.5 70.167 88.5 117.5s33 102.666 33 165.999zM829.999 355.002c0 -58 -10.001 -108.5 -30.001 -151.5s-46.5 -78.5 -79.5 -106.5s-71.333 -49 -115 -63
s-88.834 -21 -135.501 -21c-47.333 0 -92.666 7 -135.999 21s-81.5 35 -114.5 63s-59.5 63.5 -79.5 106.5s-30 93.5 -30 151.5s10 108.5 30 151.5s46.5 78.667 79.5 107s71.167 49.5 114.5 63.5s88.333 21 135 21h1c46.667 0 91.834 -7 135.501 -21s82 -35.167 115 -63.5
s59.5 -64 79.5 -107s30 -93.5 30 -151.5z" />
    <glyph glyph-name="Odieresis" unicode="&#xd6;" horiz-adv-x="940" 
d="M602 740v88h-34v-88h34zM370 740v88h-34v-88h34zM868 354c0 64 -11 119.5 -33 166.5s-51.5 86.167 -88.5 117.5s-79.5 54.666 -127.5 69.999s-97.667 23 -149 23s-101 -7.66699 -149 -23s-90.5 -38.5 -127.5 -69.5s-66.5 -70.167 -88.5 -117.5s-33 -102.666 -33 -165.999
v-1c0 -63.333 11 -118.666 33 -165.999s51.5 -86.5 88.5 -117.5s79.5 -54.167 127.5 -69.5s97.667 -23 149 -23s101 7.66699 149 23s90.5 38.5 127.5 69.5s66.5 70.167 88.5 117.5s33 102.666 33 165.999zM830 355c0 -58 -10.001 -108.5 -30.001 -151.5
s-46.5 -78.5 -79.5 -106.5s-71.333 -49 -115 -63s-88.834 -21 -135.501 -21c-47.333 0 -92.666 7 -135.999 21s-81.5 35 -114.5 63s-59.5 63.5 -79.5 106.5s-30 93.5 -30 151.5s10 108.5 30 151.5s46.5 78.667 79.5 107s71.167 49.5 114.5 63.5s88.333 21 135 21h1
c46.667 0 91.834 -7 135.501 -21s82 -35.167 115 -63.5s59.5 -64 79.5 -107s30 -93.5 30 -151.5z" />
    <glyph glyph-name="multiply" unicode="&#xd7;" horiz-adv-x="800" 
d="M643 32l-221 221l221 221l-22 22l-221 -221l-221 221l-22 -22l221 -221l-221 -221l22 -22l221 221l221 -221z" />
    <glyph glyph-name="Oslash" unicode="&#xd8;" horiz-adv-x="940" 
d="M883 707l-25 27.001l-106 -101c-36 32 -78 56.333 -126 73s-100 25 -156 25c-51.333 0 -101 -7.66699 -149 -23s-90.5 -38.666 -127.5 -69.999s-66.5 -70.5 -88.5 -117.5s-33 -102.5 -33 -166.5c0 -30.667 2.66699 -58.834 8 -84.501s12.333 -49 21 -70
s18.667 -39.833 30 -56.5s23 -31.334 35 -44.001l-109 -97l25 -27l106 101c36 -32 78 -56.333 126 -73s99.667 -25 155 -25c52 0 102 7.66699 150 23s90.5 38.5 127.5 69.5s66.5 70.167 88.5 117.5s33 102.666 33 165.999c0 30.667 -2.66699 58.834 -8 84.501
s-12.333 49 -21 70s-18.667 39.833 -30 56.5s-23 31.667 -35 45zM727 612.001l-537.996 -494c-25.333 30 -44.833 65.167 -58.5 105.5s-20.5 83.833 -20.5 130.5c0 58 10 108.5 30 151.5s46.5 78.667 79.5 107s71.167 49.5 114.5 63.5s88.666 21 135.999 21
c33.333 0 64.166 -3 92.499 -9s52.5 -13 72.5 -21c19.333 -8 36.666 -16.833 51.999 -26.5s28.666 -19.167 39.999 -28.5zM830.004 354.001c0 -58 -10 -108.498 -30 -151.498s-46.5 -78.5 -79.5 -106.5s-71.333 -49 -115 -63s-88.834 -21 -135.501 -21
c-33.333 0 -64.166 3 -92.499 9s-52.5 13 -72.5 21c-20 8.66699 -37.5 17.667 -52.5 27s-28.167 18.666 -39.5 27.999l538 494c25.333 -30 44.833 -65.333 58.5 -106s20.5 -84.334 20.5 -131.001z" />
    <glyph glyph-name="Ugrave" unicode="&#xd9;" horiz-adv-x="833" 
d="M475 729l-173 106h-89l208 -106h54zM701 287l0.000976562 430h-38v-428c0 -50 -3.66699 -92.667 -11 -128s-20.333 -64 -39 -86s-44 -38 -76 -48s-72.667 -15 -122 -15c-48 0 -87.667 5 -119 15s-56.333 26 -75 48s-31.834 50.667 -39.501 86s-11.5 78 -11.5 128v428h-38
v-430c0 -59.333 5.5 -108.833 16.5 -148.5s28 -71.334 51 -95.001s52.333 -40.5 88 -50.5s78.167 -15 127.5 -15c50.667 0 94 5 130 15s65.5 26.833 88.5 50.5s40 55.334 51 95.001s16.5 89.167 16.5 148.5z" />
    <glyph glyph-name="Uacute" unicode="&#xda;" horiz-adv-x="833" 
d="M625 835h-89l-173 -106h54zM701 287l0.000976562 430h-38v-428c0 -50 -3.66699 -92.667 -11 -128s-20.333 -64 -39 -86s-44 -38 -76 -48s-72.667 -15 -122 -15c-48 0 -87.667 5 -119 15s-56.333 26 -75 48s-31.834 50.667 -39.501 86s-11.5 78 -11.5 128v428h-38v-430
c0 -59.333 5.5 -108.833 16.5 -148.5s28 -71.334 51 -95.001s52.333 -40.5 88 -50.5s78.167 -15 127.5 -15c50.667 0 94 5 130 15s65.5 26.833 88.5 50.5s40 55.334 51 95.001s16.5 89.167 16.5 148.5z" />
    <glyph glyph-name="Ucircumflex" unicode="&#xdb;" horiz-adv-x="833" 
d="M604 751l-184.001 83h-6l-184 -83h56l131 44c-0.666992 0 3.5 -1.5 12.5 -4.5l32.5 -11l39 -13l33 -11c8.66699 -3 13.334 -4.5 14.001 -4.5h56zM700.999 287l0.000976562 430h-38v-428c0 -50 -3.66699 -92.667 -11 -128s-20.333 -64 -39 -86s-44 -38 -76 -48
s-72.667 -15 -122 -15c-48 0 -87.667 5 -119 15s-56.333 26 -75 48s-31.834 50.667 -39.501 86s-11.5 78 -11.5 128v428h-38v-430c0 -59.333 5.5 -108.833 16.5 -148.5s28 -71.334 51 -95.001s52.333 -40.5 88 -50.5s78.167 -15 127.5 -15c50.667 0 94 5 130 15
s65.5 26.833 88.5 50.5s40 55.334 51 95.001s16.5 89.167 16.5 148.5z" />
    <glyph glyph-name="Udieresis" unicode="&#xdc;" horiz-adv-x="833" 
d="M550 719v88h-34v-88h34zM318 719v88h-34v-88h34zM701 287l0.000976562 430h-38v-428c0 -50 -3.66699 -92.667 -11 -128s-20.333 -64 -39 -86s-44 -38 -76 -48s-72.667 -15 -122 -15c-48 0 -87.667 5 -119 15s-56.333 26 -75 48s-31.834 50.667 -39.501 86
s-11.5 78 -11.5 128v428h-38v-430c0 -59.333 5.5 -108.833 16.5 -148.5s28 -71.334 51 -95.001s52.333 -40.5 88 -50.5s78.167 -15 127.5 -15c50.667 0 94 5 130 15s65.5 26.833 88.5 50.5s40 55.334 51 95.001s16.5 89.167 16.5 148.5z" />
    <glyph glyph-name="Yacute" unicode="&#xdd;" horiz-adv-x="700" 
d="M558 835h-89l-173 -106h54zM681 717h-45l-146 -195l-70 -92.5l-70 -93.5l-70 92l-70 93l-146 196h-45l312 -415v-310h38v310z" />
    <glyph glyph-name="Thorn" unicode="&#xde;" horiz-adv-x="811" 
d="M758 381c0 32 -7 61.167 -21 87.5s-36.167 48.833 -66.5 67.5s-69.333 33.167 -117 43.5s-105.167 15.5 -172.5 15.5h-201v122h-38v-725h38v170h181c70.667 0 131.167 5 181.5 15s91.5 24.333 123.5 43s55.333 41.667 70 69s22 58 22 92zM720 381
c0 -26.667 -5.83398 -51.1689 -17.501 -73.502s-31.334 -41.666 -59.001 -57.999s-64.667 -29.166 -111 -38.499s-104.166 -14 -173.499 -14h-179v363h209c62.667 0 115.334 -4.83301 158.001 -14.5s76.667 -22.667 102 -39s43.5 -35.333 54.5 -57s16.5 -44.5 16.5 -68.5z
" />
    <glyph glyph-name="germandbls" unicode="&#xdf;" horiz-adv-x="740" 
d="M680 245c0 38.667 -6.17188 71.332 -18.5049 97.999s-28.5 48.667 -48.5 66s-42.833 30.5 -68.5 39.5s-51.5 15.5 -77.5 19.5c27.333 9.33301 48.833 22.166 64.5 38.499s28.167 30.833 37.5 43.5c2.66699 4 5 9 7 15s3.83301 12.333 5.5 19
s2.83398 12.834 3.50098 18.501s1.33398 10.5 2.00098 14.5c1.33301 7.33301 2 13.666 2 18.999v13c0 11.333 -1.83301 25.5 -5.5 42.5s-12.667 33.333 -27 49s-35.666 29 -63.999 40s-67.5 16.5 -117.5 16.5c-56 0 -101.333 -9.66699 -136 -29
s-61.334 -43.666 -80.001 -72.999s-31.167 -61.333 -37.5 -96s-9.5 -67 -9.5 -97v-750h36v748c0 26.667 2.33301 55.334 7 86.001s14.834 59.167 30.501 85.5s38.5 48.333 68.5 66s70.333 26.5 121 26.5c44 0 78 -4.66699 102 -14s41.667 -20.333 53 -33
s18 -25.167 20 -37.5s3 -21.5 3 -27.5c0 -22 -3.66699 -43.333 -11 -64s-20.166 -38.834 -38.499 -54.501s-43.333 -28.167 -75 -37.5s-71.5 -14 -119.5 -14h-10v-33h13c116.667 0 201.167 -16.833 253.5 -50.5s78.5 -85.167 78.5 -154.5
c0 -31.333 -4.83301 -60.333 -14.5 -87s-25.334 -49.667 -47.001 -69s-50.167 -34.666 -85.5 -45.999s-78.666 -17 -129.999 -17h-38v-33h39c61.333 0 112 7.16699 152 21.5s71.833 33.333 95.5 57s40.334 50.667 50.001 81s14.5 61.5 14.5 93.5z" />
    <glyph glyph-name="agrave" unicode="&#xe0;" horiz-adv-x="653" 
d="M372 564l-159 129h-65l181 -129h43zM578 -8l-0.000976562 13.0059c-7.33301 8 -13.166 15 -17.499 21s-7.5 12 -9.5 18s-3.33301 13 -4 21s-1 18.333 -1 31v280c0 57.333 -17.5 101 -52.5 131s-92.833 45 -173.5 45c-36.667 0 -66.667 -2.16699 -90 -6.5l-35 -6.5l3 -34
l26.5 7c17.667 4.66699 49.167 7 94.5 7c36.667 0 67.167 -3 91.5 -9s43.833 -15.167 58.5 -27.5s25.167 -27.833 31.5 -46.5s9.5 -40.334 9.5 -65.001v-19c-73.333 -6 -138.166 -13.667 -194.499 -23s-103.666 -22 -141.999 -38s-67.333 -36.5 -87 -61.5
s-29.5 -56.5 -29.5 -94.5c0 -18.667 3.83301 -37.334 11.5 -56.001s20.5 -35.334 38.5 -50.001s42.167 -26.5 72.5 -35.5s68.5 -13.5 114.5 -13.5c13.333 0 29.166 1.16699 47.499 3.5s37.333 6.66602 57 12.999s39.5 14.666 59.5 24.999s38 23.5 54 39.5
c1.33301 -12.667 4.16602 -24.334 8.49902 -35.001s11.833 -22 22.5 -34h35zM509.999 105.006c-16 -20 -33.998 -36.001 -53.998 -48.001s-40 -21.333 -60 -28s-38.833 -11 -56.5 -13s-32.167 -3 -43.5 -3c-42 0 -76.167 4 -102.5 12s-47 18 -62 30
s-25.167 25.167 -30.5 39.5s-8 28.166 -8 41.499c0 30.667 8.66699 56.334 26 77.001s43.166 37.834 77.499 51.501s77.666 24.667 129.999 33s113.5 15.5 183.5 21.5v-214z" />
    <glyph glyph-name="aacute" unicode="&#xe1;" horiz-adv-x="653" 
d="M506 693h-65l-159 -129h43zM578 -8l-0.000976562 13.0059c-7.33301 8 -13.166 15 -17.499 21s-7.5 12 -9.5 18s-3.33301 13 -4 21s-1 18.333 -1 31v280c0 57.333 -17.5 101 -52.5 131s-92.833 45 -173.5 45c-36.667 0 -66.667 -2.16699 -90 -6.5l-35 -6.5l3 -34l26.5 7
c17.667 4.66699 49.167 7 94.5 7c36.667 0 67.167 -3 91.5 -9s43.833 -15.167 58.5 -27.5s25.167 -27.833 31.5 -46.5s9.5 -40.334 9.5 -65.001v-19c-73.333 -6 -138.166 -13.667 -194.499 -23s-103.666 -22 -141.999 -38s-67.333 -36.5 -87 -61.5s-29.5 -56.5 -29.5 -94.5
c0 -18.667 3.83301 -37.334 11.5 -56.001s20.5 -35.334 38.5 -50.001s42.167 -26.5 72.5 -35.5s68.5 -13.5 114.5 -13.5c13.333 0 29.166 1.16699 47.499 3.5s37.333 6.66602 57 12.999s39.5 14.666 59.5 24.999s38 23.5 54 39.5
c1.33301 -12.667 4.16602 -24.334 8.49902 -35.001s11.833 -22 22.5 -34h35zM509.999 105.006c-16 -20 -33.998 -36.001 -53.998 -48.001s-40 -21.333 -60 -28s-38.833 -11 -56.5 -13s-32.167 -3 -43.5 -3c-42 0 -76.167 4 -102.5 12s-47 18 -62 30
s-25.167 25.167 -30.5 39.5s-8 28.166 -8 41.499c0 30.667 8.66699 56.334 26 77.001s43.166 37.834 77.499 51.501s77.666 24.667 129.999 33s113.5 15.5 183.5 21.5v-214z" />
    <glyph glyph-name="acircumflex" unicode="&#xe2;" horiz-adv-x="653" 
d="M494 583l-164 108h-6l-164 -108h47l120 65l120 -65h47zM578 -8l-0.000976562 13.0059c-7.33301 8 -13.166 15 -17.499 21s-7.5 12 -9.5 18s-3.33301 13 -4 21s-1 18.333 -1 31v280c0 57.333 -17.5 101 -52.5 131s-92.833 45 -173.5 45
c-36.667 0 -66.667 -2.16699 -90 -6.5l-35 -6.5l3 -34l26.5 7c17.667 4.66699 49.167 7 94.5 7c36.667 0 67.167 -3 91.5 -9s43.833 -15.167 58.5 -27.5s25.167 -27.833 31.5 -46.5s9.5 -40.334 9.5 -65.001v-19c-73.333 -6 -138.166 -13.667 -194.499 -23
s-103.666 -22 -141.999 -38s-67.333 -36.5 -87 -61.5s-29.5 -56.5 -29.5 -94.5c0 -18.667 3.83301 -37.334 11.5 -56.001s20.5 -35.334 38.5 -50.001s42.167 -26.5 72.5 -35.5s68.5 -13.5 114.5 -13.5c13.333 0 29.166 1.16699 47.499 3.5s37.333 6.66602 57 12.999
s39.5 14.666 59.5 24.999s38 23.5 54 39.5c1.33301 -12.667 4.16602 -24.334 8.49902 -35.001s11.833 -22 22.5 -34h35zM509.999 105.006c-16 -20 -33.998 -36.001 -53.998 -48.001s-40 -21.333 -60 -28s-38.833 -11 -56.5 -13s-32.167 -3 -43.5 -3
c-42 0 -76.167 4 -102.5 12s-47 18 -62 30s-25.167 25.167 -30.5 39.5s-8 28.166 -8 41.499c0 30.667 8.66699 56.334 26 77.001s43.166 37.834 77.499 51.501s77.666 24.667 129.999 33s113.5 15.5 183.5 21.5v-214z" />
    <glyph glyph-name="atilde" unicode="&#xe3;" horiz-adv-x="653" 
d="M476 659l-23 23c-10.667 -11.333 -20.334 -18.666 -29.001 -21.999s-19.334 -5 -32.001 -5c-9.33301 0 -18.833 1 -28.5 3s-17.167 3.66699 -22.5 5l-20 6c-11.333 3.33301 -21.833 5.5 -31.5 6.5s-18.167 1.5 -25.5 1.5c-15.333 0 -30.166 -2.5 -44.499 -7.5
s-27.5 -15.167 -39.5 -30.5l23 -23c10.667 11.333 20.334 18.666 29.001 21.999s19.334 5 32.001 5c9.33301 0 18.833 -1 28.5 -3s17.167 -3.66699 22.5 -5l20 -6c11.333 -3.33301 21.833 -5.5 31.5 -6.5s18.167 -1.5 25.5 -1.5c15.333 0 30.166 2.5 44.499 7.5
s27.5 15.167 39.5 30.5zM578 -8l-0.000976562 13.0059c-7.33301 8 -13.166 15 -17.499 21s-7.5 12 -9.5 18s-3.33301 13 -4 21s-1 18.333 -1 31v280c0 57.333 -17.5 101 -52.5 131s-92.833 45 -173.5 45c-36.667 0 -66.667 -2.16699 -90 -6.5l-35 -6.5l3 -34l26.5 7
c17.667 4.66699 49.167 7 94.5 7c36.667 0 67.167 -3 91.5 -9s43.833 -15.167 58.5 -27.5s25.167 -27.833 31.5 -46.5s9.5 -40.334 9.5 -65.001v-19c-73.333 -6 -138.166 -13.667 -194.499 -23s-103.666 -22 -141.999 -38s-67.333 -36.5 -87 -61.5s-29.5 -56.5 -29.5 -94.5
c0 -18.667 3.83301 -37.334 11.5 -56.001s20.5 -35.334 38.5 -50.001s42.167 -26.5 72.5 -35.5s68.5 -13.5 114.5 -13.5c13.333 0 29.166 1.16699 47.499 3.5s37.333 6.66602 57 12.999s39.5 14.666 59.5 24.999s38 23.5 54 39.5
c1.33301 -12.667 4.16602 -24.334 8.49902 -35.001s11.833 -22 22.5 -34h35zM509.999 105.006c-16 -20 -33.998 -36.001 -53.998 -48.001s-40 -21.333 -60 -28s-38.833 -11 -56.5 -13s-32.167 -3 -43.5 -3c-42 0 -76.167 4 -102.5 12s-47 18 -62 30
s-25.167 25.167 -30.5 39.5s-8 28.166 -8 41.499c0 30.667 8.66699 56.334 26 77.001s43.166 37.834 77.499 51.501s77.666 24.667 129.999 33s113.5 15.5 183.5 21.5v-214z" />
    <glyph glyph-name="adieresis" unicode="&#xe4;" horiz-adv-x="653" 
d="M458 604v93h-34v-93h34zM230 604v93h-34v-93h34zM578 -8l-0.000976562 13.0059c-7.33301 8 -13.166 15 -17.499 21s-7.5 12 -9.5 18s-3.33301 13 -4 21s-1 18.333 -1 31v280c0 57.333 -17.5 101 -52.5 131s-92.833 45 -173.5 45c-36.667 0 -66.667 -2.16699 -90 -6.5
l-35 -6.5l3 -34l26.5 7c17.667 4.66699 49.167 7 94.5 7c36.667 0 67.167 -3 91.5 -9s43.833 -15.167 58.5 -27.5s25.167 -27.833 31.5 -46.5s9.5 -40.334 9.5 -65.001v-19c-73.333 -6 -138.166 -13.667 -194.499 -23s-103.666 -22 -141.999 -38s-67.333 -36.5 -87 -61.5
s-29.5 -56.5 -29.5 -94.5c0 -18.667 3.83301 -37.334 11.5 -56.001s20.5 -35.334 38.5 -50.001s42.167 -26.5 72.5 -35.5s68.5 -13.5 114.5 -13.5c13.333 0 29.166 1.16699 47.499 3.5s37.333 6.66602 57 12.999s39.5 14.666 59.5 24.999s38 23.5 54 39.5
c1.33301 -12.667 4.16602 -24.334 8.49902 -35.001s11.833 -22 22.5 -34h35zM509.999 105.006c-16 -20 -33.998 -36.001 -53.998 -48.001s-40 -21.333 -60 -28s-38.833 -11 -56.5 -13s-32.167 -3 -43.5 -3c-42 0 -76.167 4 -102.5 12s-47 18 -62 30
s-25.167 25.167 -30.5 39.5s-8 28.166 -8 41.499c0 30.667 8.66699 56.334 26 77.001s43.166 37.834 77.499 51.501s77.666 24.667 129.999 33s113.5 15.5 183.5 21.5v-214z" />
    <glyph glyph-name="aring" unicode="&#xe5;" horiz-adv-x="653" 
d="M412 643c0 12 -2.5 22.333 -7.5 31s-11.667 15.834 -20 21.501s-17.5 10 -27.5 13s-20 4.5 -30 4.5s-20 -1.5 -30 -4.5s-19.167 -7.33301 -27.5 -13s-15 -12.834 -20 -21.501s-7.5 -19 -7.5 -31s2.5 -22.333 7.5 -31s11.5 -15.834 19.5 -21.501s17 -10 27 -13
s20 -4.5 30 -4.5h1c10 0 20 1.5 30 4.5s19.167 7.33301 27.5 13s15 12.834 20 21.501s7.5 19 7.5 31zM376 643c0 -9.33301 -3.83301 -17.833 -11.5 -25.5s-20.167 -11.5 -37.5 -11.5h-1c-18.667 0 -31.667 3.83301 -39 11.5s-11 16.167 -11 25.5
c0 11.333 4.5 20.333 13.5 27s21.167 10 36.5 10s27.5 -3.33301 36.5 -10s13.5 -15.667 13.5 -27zM578 -8l-0.000976562 13.0059c-7.33301 8 -13.166 15 -17.499 21s-7.5 12 -9.5 18s-3.33301 13 -4 21s-1 18.333 -1 31v280c0 57.333 -17.5 101 -52.5 131
s-92.833 45 -173.5 45c-36.667 0 -66.667 -2.16699 -90 -6.5l-35 -6.5l3 -34l26.5 7c17.667 4.66699 49.167 7 94.5 7c36.667 0 67.167 -3 91.5 -9s43.833 -15.167 58.5 -27.5s25.167 -27.833 31.5 -46.5s9.5 -40.334 9.5 -65.001v-19
c-73.333 -6 -138.166 -13.667 -194.499 -23s-103.666 -22 -141.999 -38s-67.333 -36.5 -87 -61.5s-29.5 -56.5 -29.5 -94.5c0 -18.667 3.83301 -37.334 11.5 -56.001s20.5 -35.334 38.5 -50.001s42.167 -26.5 72.5 -35.5s68.5 -13.5 114.5 -13.5
c13.333 0 29.166 1.16699 47.499 3.5s37.333 6.66602 57 12.999s39.5 14.666 59.5 24.999s38 23.5 54 39.5c1.33301 -12.667 4.16602 -24.334 8.49902 -35.001s11.833 -22 22.5 -34h35zM509.999 105.006c-16 -20 -33.998 -36.001 -53.998 -48.001s-40 -21.333 -60 -28
s-38.833 -11 -56.5 -13s-32.167 -3 -43.5 -3c-42 0 -76.167 4 -102.5 12s-47 18 -62 30s-25.167 25.167 -30.5 39.5s-8 28.166 -8 41.499c0 30.667 8.66699 56.334 26 77.001s43.166 37.834 77.499 51.501s77.666 24.667 129.999 33s113.5 15.5 183.5 21.5v-214z" />
    <glyph glyph-name="ae" unicode="&#xe6;" horiz-adv-x="1130" 
d="M1081 261c0 83.333 -25.001 151.667 -75.001 205c-26 27.333 -56.333 48.5 -91 63.5s-71.334 22.5 -110.001 22.5c-34 0 -65.167 -4 -93.5 -12s-53.666 -19 -75.999 -33s-41.5 -30.333 -57.5 -49s-28.667 -38.334 -38 -59.001c-2 22.667 -6.83301 43.334 -14.5 62.001
s-19.667 34.667 -36 48s-38.166 23.833 -65.499 31.5s-62 11.5 -104 11.5c-41.333 0 -73.5 -1.16699 -96.5 -3.5s-40.167 -4.83301 -51.5 -7.5s-18.333 -5.16699 -21 -7.5l-4 -3.5l8 -26l7 2.5c4.66699 1.66699 13 3.33398 25 5.00098s28.667 3.33398 50 5.00098
s48.666 2.5 81.999 2.5c38 0 69.333 -3.33301 94 -10s44.167 -16.167 58.5 -28.5s24.333 -27.666 30 -45.999s8.5 -39.5 8.5 -63.5v-19c-73.333 -6 -138.166 -13.667 -194.499 -23s-103.666 -22 -141.999 -38s-67.333 -36.5 -87 -61.5s-29.5 -56.5 -29.5 -94.5
c0 -18.667 3.83301 -37.334 11.5 -56.001s20.5 -35.334 38.5 -50.001s42.167 -26.5 72.5 -35.5s68.5 -13.5 114.5 -13.5c54 0 103.5 10.333 148.5 31s84.167 48.667 117.5 84c16.667 -24 35.667 -43.5 57 -58.5s43.166 -26.667 65.499 -35s44.333 -14 66 -17
s41.167 -4.5 58.5 -4.5c26.667 0 55.834 2.83301 87.501 8.5s61.167 11.667 88.5 18s50.166 12.333 68.499 18l27.5 8.5l-7 34c-2 -0.666992 -12 -3.83398 -30 -9.50098s-40 -11.834 -66 -18.501s-54.333 -12.667 -85 -18s-60 -8 -88 -8s-57 4.16699 -87 12.5
s-57.5 22.333 -82.5 42s-45.667 45.334 -62 77.001s-24.833 70.5 -25.5 116.5h535zM1043 295.001h-497.003c0.666992 27.333 6.83398 54.333 18.501 81s28.334 50.667 50.001 72s48.334 38.5 80.001 51.5s68.5 19.5 110.5 19.5c34 0 65.167 -6.16699 93.5 -18.5
s52.833 -29 73.5 -50s37.167 -45 49.5 -72s19.5 -54.833 21.5 -83.5zM541.996 124.001c-12.667 -14.667 -27.8311 -28.6689 -45.498 -42.002s-37 -25.166 -58 -35.499s-43.5 -18.5 -67.5 -24.5s-49 -9 -75 -9c-42 0 -76.167 4 -102.5 12s-47 18 -62 30
s-25.167 25.167 -30.5 39.5s-8 28.166 -8 41.499c0 30.667 8.66699 56.334 26 77.001s43.166 37.834 77.499 51.501s77.666 24.667 129.999 33s113.5 15.5 183.5 21.5v-46c0 -30 2.83301 -57.333 8.5 -82s13.5 -47 23.5 -67z" />
    <glyph glyph-name="ccedilla" unicode="&#xe7;" horiz-adv-x="673" 
d="M625 112l-32.9941 15.9932c-10 -16 -21.5 -31 -34.5 -45s-28.5 -26.167 -46.5 -36.5s-38.833 -18.5 -62.5 -24.5s-50.834 -9 -81.501 -9c-34 0 -67 4.83301 -99 14.5s-60.667 24.667 -86 45s-45.666 46.5 -60.999 78.5s-23 70.333 -23 115
c0 42.667 7.66699 79.834 23 111.501s35.666 58 60.999 79s54.166 36.667 86.499 47s65.166 15.5 98.499 15.5c27.333 0 51.5 -2.16699 72.5 -6.5s39.833 -10.666 56.5 -18.999s31.667 -18.666 45 -30.999s25.666 -26.166 36.999 -41.499l31 19
c-13.333 18 -27.833 33.833 -43.5 47.5s-33.334 25.334 -53.001 35.001s-41.334 17 -65.001 22s-50.5 7.5 -80.5 7.5c-38 0 -75.333 -5.83301 -112 -17.5s-69.167 -29.167 -97.5 -52.5s-51.333 -53 -69 -89s-26.5 -78.333 -26.5 -127c0 -48 7.83301 -89.667 23.5 -125
s36.834 -64.666 63.501 -87.999s57.334 -41 92.001 -53s70.667 -18.667 108 -20l-41 -52l24 -13c7.33301 2 17 3.83301 29 5.5s23.5 1.83398 34.5 0.500977s20.5 -4.5 28.5 -9.5s12 -12.833 12 -23.5c0 -7.33301 -2.5 -13.333 -7.5 -18s-11.5 -8.5 -19.5 -11.5
s-16.833 -5.16699 -26.5 -6.5s-18.834 -2 -27.501 -2c-16.667 0 -31.834 1.66699 -45.501 5s-26.834 8 -39.501 14l-19 -27c12.667 -6.66699 27.667 -12.5 45 -17.5s37 -7.5 59 -7.5c16 0 30.833 1.5 44.5 4.5s25.834 7.33301 36.501 13s19 13 25 22s9 19.5 9 31.5
c0 13.333 -3.33301 24.333 -10 33s-15 15.5 -25 20.5s-21 8.33301 -33 10s-23.333 2.16699 -34 1.5l22 27c32 2 60.167 6.83301 84.5 14.5s45.833 17.5 64.5 29.5s35 25.5 49 40.5s26.333 30.833 37 47.5z" />
    <glyph glyph-name="egrave" unicode="&#xe8;" horiz-adv-x="682" 
d="M386 564l-159 129h-65l181 -129h43zM633 261c0 44.667 -7.00293 83.998 -21.0029 117.998s-32 62.667 -54 86c-27.333 28.667 -58.166 50.334 -92.499 65.001s-70.5 22 -108.5 22c-44 0 -83.167 -6.5 -117.5 -19.5s-64.166 -30.833 -89.499 -53.5
c-28 -24.667 -49.667 -54.167 -65 -88.5s-23 -73.5 -23 -117.5c0 -48.667 7.33301 -90.667 22 -126s34.334 -65 59.001 -89c28.667 -27.333 61.834 -47.166 99.501 -59.499s75.834 -18.5 114.501 -18.5c26.667 0 55.834 2.83301 87.501 8.5s61.167 11.667 88.5 18
s50.166 12.333 68.499 18l27.5 8.5l-7 34l-29.5 -9.5c-17.667 -5.66699 -39.334 -11.834 -65.001 -18.501s-53.834 -12.667 -84.501 -18s-60 -8 -88 -8s-57 4.16699 -87 12.5s-57.5 22.333 -82.5 42s-45.667 45.334 -62 77.001s-24.833 70.5 -25.5 116.5h535z
M594.997 294.998h-497c0.666992 30.667 7.5 59.5 20.5 86.5s30.833 50.667 53.5 71s49.667 36.5 81 48.5s66 18 104 18c34 0 65.167 -6.16699 93.5 -18.5s52.833 -29 73.5 -50s37.167 -45 49.5 -72s19.5 -54.833 21.5 -83.5z" />
    <glyph glyph-name="eacute" unicode="&#xe9;" horiz-adv-x="682" 
d="M520 693h-65l-159 -129h43zM633 261c0 44.667 -7.00293 83.998 -21.0029 117.998s-32 62.667 -54 86c-27.333 28.667 -58.166 50.334 -92.499 65.001s-70.5 22 -108.5 22c-44 0 -83.167 -6.5 -117.5 -19.5s-64.166 -30.833 -89.499 -53.5
c-28 -24.667 -49.667 -54.167 -65 -88.5s-23 -73.5 -23 -117.5c0 -48.667 7.33301 -90.667 22 -126s34.334 -65 59.001 -89c28.667 -27.333 61.834 -47.166 99.501 -59.499s75.834 -18.5 114.501 -18.5c26.667 0 55.834 2.83301 87.501 8.5s61.167 11.667 88.5 18
s50.166 12.333 68.499 18l27.5 8.5l-7 34l-29.5 -9.5c-17.667 -5.66699 -39.334 -11.834 -65.001 -18.501s-53.834 -12.667 -84.501 -18s-60 -8 -88 -8s-57 4.16699 -87 12.5s-57.5 22.333 -82.5 42s-45.667 45.334 -62 77.001s-24.833 70.5 -25.5 116.5h535z
M594.997 294.998h-497c0.666992 30.667 7.5 59.5 20.5 86.5s30.833 50.667 53.5 71s49.667 36.5 81 48.5s66 18 104 18c34 0 65.167 -6.16699 93.5 -18.5s52.833 -29 73.5 -50s37.167 -45 49.5 -72s19.5 -54.833 21.5 -83.5z" />
    <glyph glyph-name="ecircumflex" unicode="&#xea;" horiz-adv-x="682" 
d="M508 583l-164 108h-6l-164 -108h47l120 65l120 -65h47zM633 261c0 44.667 -7.00293 83.998 -21.0029 117.998s-32 62.667 -54 86c-27.333 28.667 -58.166 50.334 -92.499 65.001s-70.5 22 -108.5 22c-44 0 -83.167 -6.5 -117.5 -19.5s-64.166 -30.833 -89.499 -53.5
c-28 -24.667 -49.667 -54.167 -65 -88.5s-23 -73.5 -23 -117.5c0 -48.667 7.33301 -90.667 22 -126s34.334 -65 59.001 -89c28.667 -27.333 61.834 -47.166 99.501 -59.499s75.834 -18.5 114.501 -18.5c26.667 0 55.834 2.83301 87.501 8.5s61.167 11.667 88.5 18
s50.166 12.333 68.499 18l27.5 8.5l-7 34l-29.5 -9.5c-17.667 -5.66699 -39.334 -11.834 -65.001 -18.501s-53.834 -12.667 -84.501 -18s-60 -8 -88 -8s-57 4.16699 -87 12.5s-57.5 22.333 -82.5 42s-45.667 45.334 -62 77.001s-24.833 70.5 -25.5 116.5h535z
M594.997 294.998h-497c0.666992 30.667 7.5 59.5 20.5 86.5s30.833 50.667 53.5 71s49.667 36.5 81 48.5s66 18 104 18c34 0 65.167 -6.16699 93.5 -18.5s52.833 -29 73.5 -50s37.167 -45 49.5 -72s19.5 -54.833 21.5 -83.5z" />
    <glyph glyph-name="edieresis" unicode="&#xeb;" horiz-adv-x="682" 
d="M472 604v93h-34v-93h34zM244 604v93h-34v-93h34zM633 261c0 44.667 -7.00293 83.998 -21.0029 117.998s-32 62.667 -54 86c-27.333 28.667 -58.166 50.334 -92.499 65.001s-70.5 22 -108.5 22c-44 0 -83.167 -6.5 -117.5 -19.5s-64.166 -30.833 -89.499 -53.5
c-28 -24.667 -49.667 -54.167 -65 -88.5s-23 -73.5 -23 -117.5c0 -48.667 7.33301 -90.667 22 -126s34.334 -65 59.001 -89c28.667 -27.333 61.834 -47.166 99.501 -59.499s75.834 -18.5 114.501 -18.5c26.667 0 55.834 2.83301 87.501 8.5s61.167 11.667 88.5 18
s50.166 12.333 68.499 18l27.5 8.5l-7 34l-29.5 -9.5c-17.667 -5.66699 -39.334 -11.834 -65.001 -18.501s-53.834 -12.667 -84.501 -18s-60 -8 -88 -8s-57 4.16699 -87 12.5s-57.5 22.333 -82.5 42s-45.667 45.334 -62 77.001s-24.833 70.5 -25.5 116.5h535z
M594.997 294.998h-497c0.666992 30.667 7.5 59.5 20.5 86.5s30.833 50.667 53.5 71s49.667 36.5 81 48.5s66 18 104 18c34 0 65.167 -6.16699 93.5 -18.5s52.833 -29 73.5 -50s37.167 -45 49.5 -72s19.5 -54.833 21.5 -83.5z" />
    <glyph glyph-name="igrave" unicode="&#xec;" horiz-adv-x="280" 
d="M225 564l-159 129h-65l181 -129h43zM158 -8v548h-36v-548h36z" />
    <glyph glyph-name="iacute" unicode="&#xed;" horiz-adv-x="280" 
d="M279 693h-65l-159 -129h43zM158 -8v548h-36v-548h36z" />
    <glyph glyph-name="icircumflex" unicode="&#xee;" horiz-adv-x="280" 
d="M307 583l-164 108h-6l-164 -108h47l120 65l120 -65h47zM158 -8v548h-36v-548h36z" />
    <glyph glyph-name="idieresis" unicode="&#xef;" horiz-adv-x="280" 
d="M271 604v93h-34v-93h34zM43 604v93h-34v-93h34zM158 -8v548h-36v-548h36z" />
    <glyph glyph-name="eth" unicode="&#xf0;" horiz-adv-x="739" 
d="M677 312c0 38 -5.49707 76.501 -16.4971 115.501s-27.167 75.5 -48.5 109.5c-15.333 23.333 -34.166 46.166 -56.499 68.499s-48.5 43.166 -78.5 62.499l150 46l-30 24l-157 -48c-36.667 15.333 -74.334 28 -113.001 38s-78.667 16.333 -120 19l-71 -28
c64.667 -3.33301 116.5 -9.16602 155.5 -17.499s71.833 -17.5 98.5 -27.5l-217 -66l31 -24l230 70c41.333 -22 73.166 -44.667 95.499 -68s39.833 -44.333 52.5 -63c9.33301 -14.667 18.166 -30.334 26.499 -47.001s15.5 -34.334 21.5 -53.001
c-14 22.667 -30.667 42.167 -50 58.5s-40.5 29.833 -63.5 40.5s-47 18.334 -72 23.001s-50.167 7 -75.5 7c-42.667 0 -82.667 -6.33301 -120 -19s-69.833 -31.334 -97.5 -56.001s-49.5 -54.667 -65.5 -90s-24 -75.666 -24 -120.999c0 -38 6.33301 -74.333 19 -109
s31.667 -65 57 -91s57.166 -46.833 95.499 -62.5s83.5 -23.5 135.5 -23.5c49.333 0 93 7.16699 131 21.5s69.333 35.5 94 63.5c12 13.333 23 27.333 33 42s18.833 31.334 26.5 50.001s13.5 40.5 17.5 65.5s6 54.833 6 89.5zM641.003 280.001
c0 -30.667 -4.66797 -61.8301 -14.001 -93.4971s-24.5 -60.334 -45.5 -86.001s-48.667 -46.667 -83 -63s-76.833 -24.5 -127.5 -24.5h-1c-46 0 -86.167 7 -120.5 21s-62.666 32.667 -84.999 56s-39 50.166 -50 80.499s-16.5 62.166 -16.5 95.499c0 40 7 75.667 21 107
s33.167 57.833 57.5 79.5s53 38.167 86 49.5s68.833 17 107.5 17c43.333 0 81.833 -6.83301 115.5 -20.5s62 -31.667 85 -54s40.5 -47.833 52.5 -76.5s18 -58 18 -88z" />
    <glyph glyph-name="ntilde" unicode="&#xf1;" horiz-adv-x="721" 
d="M510 659l-23 23c-10.667 -11.333 -20.334 -18.666 -29.001 -21.999s-19.334 -5 -32.001 -5c-9.33301 0 -18.833 1 -28.5 3s-17.167 3.66699 -22.5 5l-20 6c-11.333 3.33301 -21.833 5.5 -31.5 6.5s-18.167 1.5 -25.5 1.5c-15.333 0 -30.166 -2.5 -44.499 -7.5
s-27.5 -15.167 -39.5 -30.5l23 -23c10.667 11.333 20.334 18.666 29.001 21.999s19.334 5 32.001 5c9.33301 0 18.833 -1 28.5 -3s17.167 -3.66699 22.5 -5l20 -6c11.333 -3.33301 21.833 -5.5 31.5 -6.5s18.167 -1.5 25.5 -1.5c15.333 0 30.166 2.5 44.499 7.5
s27.5 15.167 39.5 30.5zM614 -8l-0.000976562 382.999c0 29.333 -3.66699 53.833 -11 73.5s-18.333 37.167 -33 52.5c-32.667 34 -82.334 51 -149.001 51c-22.667 0 -45.5 -2.16699 -68.5 -6.5s-46.833 -11.5 -71.5 -21.5c-46 -18 -92.333 -44.333 -139 -79
c1.33301 4 2.33301 11.167 3 21.5l2 32c0.666992 11 1 20.5 1 28.5v13h-36v-548h36v417c8.66699 7.33301 18.834 15 30.501 23s24 15.833 37 23.5s26 14.834 39 21.501s25.167 12 36.5 16c46.667 17.333 89.334 26 128.001 26c32 0 58 -4 78 -12s35.667 -18 47 -30
c14 -13.333 23.167 -29 27.5 -47s6.5 -36.667 6.5 -56v-382h36z" />
    <glyph glyph-name="ograve" unicode="&#xf2;" horiz-adv-x="739" 
d="M415 564l-159 129h-65l181 -129h43zM677 265v1.00195c0 45.333 -8 85.666 -24 120.999s-37.833 65.333 -65.5 90s-60.167 43.334 -97.5 56.001s-77.333 19 -120 19s-82.667 -6.33301 -120 -19s-70 -31.334 -98 -56.001s-50 -54.667 -66 -90s-24 -75.666 -24 -120.999
c0 -38 6.33301 -74.333 19 -109s31.667 -65 57 -91s57.333 -46.833 96 -62.5s84 -23.5 136 -23.5c53.333 0 99.333 8.16699 138 24.5s70.5 37.666 95.5 63.999s43.5 56.666 55.5 90.999s18 69.5 18 105.5zM641 265.002c0 -33.333 -5.50098 -65.166 -16.501 -95.499
s-27.667 -57.166 -50 -80.499s-50.5 -42 -84.5 -56s-73.667 -21 -119 -21h-1c-46 0 -86.167 7 -120.5 21s-62.666 32.667 -84.999 56s-39 50.166 -50 80.499s-16.5 62.166 -16.5 95.499c0 40 7 75.667 21 107s33.167 57.833 57.5 79.5s53 38.167 86 49.5s68.833 17 107.5 17
c38 0 73.5 -5.66699 106.5 -17s61.667 -27.833 86 -49.5s43.5 -48.167 57.5 -79.5s21 -67 21 -107z" />
    <glyph glyph-name="oacute" unicode="&#xf3;" horiz-adv-x="739" 
d="M549 693h-65l-159 -129h43zM677 265v1.00195c0 45.333 -8 85.666 -24 120.999s-37.833 65.333 -65.5 90s-60.167 43.334 -97.5 56.001s-77.333 19 -120 19s-82.667 -6.33301 -120 -19s-70 -31.334 -98 -56.001s-50 -54.667 -66 -90s-24 -75.666 -24 -120.999
c0 -38 6.33301 -74.333 19 -109s31.667 -65 57 -91s57.333 -46.833 96 -62.5s84 -23.5 136 -23.5c53.333 0 99.333 8.16699 138 24.5s70.5 37.666 95.5 63.999s43.5 56.666 55.5 90.999s18 69.5 18 105.5zM641 265.002c0 -33.333 -5.50098 -65.166 -16.501 -95.499
s-27.667 -57.166 -50 -80.499s-50.5 -42 -84.5 -56s-73.667 -21 -119 -21h-1c-46 0 -86.167 7 -120.5 21s-62.666 32.667 -84.999 56s-39 50.166 -50 80.499s-16.5 62.166 -16.5 95.499c0 40 7 75.667 21 107s33.167 57.833 57.5 79.5s53 38.167 86 49.5s68.833 17 107.5 17
c38 0 73.5 -5.66699 106.5 -17s61.667 -27.833 86 -49.5s43.5 -48.167 57.5 -79.5s21 -67 21 -107z" />
    <glyph glyph-name="ocircumflex" unicode="&#xf4;" horiz-adv-x="739" 
d="M537 583l-164 108h-6l-164 -108h47l120 65l120 -65h47zM677 265v1.00195c0 45.333 -8 85.666 -24 120.999s-37.833 65.333 -65.5 90s-60.167 43.334 -97.5 56.001s-77.333 19 -120 19s-82.667 -6.33301 -120 -19s-70 -31.334 -98 -56.001s-50 -54.667 -66 -90
s-24 -75.666 -24 -120.999c0 -38 6.33301 -74.333 19 -109s31.667 -65 57 -91s57.333 -46.833 96 -62.5s84 -23.5 136 -23.5c53.333 0 99.333 8.16699 138 24.5s70.5 37.666 95.5 63.999s43.5 56.666 55.5 90.999s18 69.5 18 105.5zM641 265.002
c0 -33.333 -5.50098 -65.166 -16.501 -95.499s-27.667 -57.166 -50 -80.499s-50.5 -42 -84.5 -56s-73.667 -21 -119 -21h-1c-46 0 -86.167 7 -120.5 21s-62.666 32.667 -84.999 56s-39 50.166 -50 80.499s-16.5 62.166 -16.5 95.499c0 40 7 75.667 21 107
s33.167 57.833 57.5 79.5s53 38.167 86 49.5s68.833 17 107.5 17c38 0 73.5 -5.66699 106.5 -17s61.667 -27.833 86 -49.5s43.5 -48.167 57.5 -79.5s21 -67 21 -107z" />
    <glyph glyph-name="otilde" unicode="&#xf5;" horiz-adv-x="739" 
d="M519 659l-23 23c-10.667 -11.333 -20.334 -18.666 -29.001 -21.999s-19.334 -5 -32.001 -5c-9.33301 0 -18.833 1 -28.5 3s-17.167 3.66699 -22.5 5l-20 6c-11.333 3.33301 -21.833 5.5 -31.5 6.5s-18.167 1.5 -25.5 1.5c-15.333 0 -30.166 -2.5 -44.499 -7.5
s-27.5 -15.167 -39.5 -30.5l23 -23c10.667 11.333 20.334 18.666 29.001 21.999s19.334 5 32.001 5c9.33301 0 18.833 -1 28.5 -3s17.167 -3.66699 22.5 -5l20 -6c11.333 -3.33301 21.833 -5.5 31.5 -6.5s18.167 -1.5 25.5 -1.5c15.333 0 30.166 2.5 44.499 7.5
s27.5 15.167 39.5 30.5zM677 265v1.00195c0 45.333 -8 85.666 -24 120.999s-37.833 65.333 -65.5 90s-60.167 43.334 -97.5 56.001s-77.333 19 -120 19s-82.667 -6.33301 -120 -19s-70 -31.334 -98 -56.001s-50 -54.667 -66 -90s-24 -75.666 -24 -120.999
c0 -38 6.33301 -74.333 19 -109s31.667 -65 57 -91s57.333 -46.833 96 -62.5s84 -23.5 136 -23.5c53.333 0 99.333 8.16699 138 24.5s70.5 37.666 95.5 63.999s43.5 56.666 55.5 90.999s18 69.5 18 105.5zM641 265.002c0 -33.333 -5.50098 -65.166 -16.501 -95.499
s-27.667 -57.166 -50 -80.499s-50.5 -42 -84.5 -56s-73.667 -21 -119 -21h-1c-46 0 -86.167 7 -120.5 21s-62.666 32.667 -84.999 56s-39 50.166 -50 80.499s-16.5 62.166 -16.5 95.499c0 40 7 75.667 21 107s33.167 57.833 57.5 79.5s53 38.167 86 49.5s68.833 17 107.5 17
c38 0 73.5 -5.66699 106.5 -17s61.667 -27.833 86 -49.5s43.5 -48.167 57.5 -79.5s21 -67 21 -107z" />
    <glyph glyph-name="odieresis" unicode="&#xf6;" horiz-adv-x="739" 
d="M510 604v93h-34v-93h34zM282 604v93h-34v-93h34zM686 265l-0.000976562 1.00195c0 45.333 -8 85.666 -24 120.999s-37.833 65.333 -65.5 90s-60.167 43.334 -97.5 56.001s-77.333 19 -120 19s-82.667 -6.33301 -120 -19s-70 -31.334 -98 -56.001s-50 -54.667 -66 -90
s-24 -75.666 -24 -120.999c0 -38 6.33301 -74.333 19 -109s31.834 -65 57.501 -91s57.667 -46.833 96 -62.5s83.5 -23.5 135.5 -23.5c53.333 0 99.333 8.16699 138 24.5s70.5 37.666 95.5 63.999s43.5 56.666 55.5 90.999s18 69.5 18 105.5zM649.999 265.002
c0 -33.333 -5.50098 -65.166 -16.501 -95.499s-27.667 -57.166 -50 -80.499s-50.333 -42 -84 -56s-73.5 -21 -119.5 -21h-1c-46 0 -86.167 7 -120.5 21s-62.666 32.667 -84.999 56s-39 50.166 -50 80.499s-16.5 62.166 -16.5 95.499c0 40 7 75.667 21 107
s33.167 57.833 57.5 79.5s53 38.167 86 49.5s68.833 17 107.5 17s74.5 -5.66699 107.5 -17s61.667 -27.833 86 -49.5s43.333 -48.167 57 -79.5s20.5 -67 20.5 -107z" />
    <glyph glyph-name="divide" unicode="&#xf7;" horiz-adv-x="800" 
d="M426 395c0 7.33301 -2.33301 13.5 -7 18.5s-10.667 7.5 -18 7.5h-1c-7.33301 0 -13.5 -2.5 -18.5 -7.5s-7.5 -11.167 -7.5 -18.5s2.5 -13.5 7.5 -18.5s11.167 -7.5 18.5 -7.5s13.5 2.5 18.5 7.5s7.5 11.167 7.5 18.5zM665 238v32h-528v-32h528zM427 113
c0 7.33301 -2.33301 13.5 -7 18.5s-10.667 7.5 -18 7.5h-1c-7.33301 0 -13.5 -2.5 -18.5 -7.5s-7.5 -11.167 -7.5 -18.5s2.5 -13.5 7.5 -18.5s11.167 -7.5 18.5 -7.5s13.5 2.5 18.5 7.5s7.5 11.167 7.5 18.5z" />
    <glyph glyph-name="oslash" unicode="&#xf8;" horiz-adv-x="739" 
d="M714 530l-20.999 25.001l-100 -85c-21.333 21.333 -49.833 40.166 -85.5 56.499s-81.167 24.5 -136.5 24.5c-43.333 0 -83.833 -6.33301 -121.5 -19s-70.334 -31.334 -98.001 -56.001s-49.5 -54.667 -65.5 -90s-24 -75.666 -24 -120.999c0 -32 5 -63.5 15 -94.5
s26.333 -60.5 49 -88.5l-101 -82l21 -25l100 85c8 -8 18.333 -16.833 31 -26.5s28 -18.5 46 -26.5s38.833 -14.667 62.5 -20s51.167 -8 82.5 -8c54 0 100.333 8.16699 139 24.5s70.667 37.833 96 64.5s44 57.167 56 91.5s18 69.5 18 105.5c0 32 -5 63.5 -15 94.5
s-26.333 60.5 -49 88.5zM571.001 452.001l-421.999 -353c-10 14 -21 34.5 -33 61.5s-18 61.833 -18 104.5c0 40 6.83301 75.667 20.5 107s32.834 57.833 57.501 79.5s53.667 38.167 87 49.5s69.666 17 108.999 17c23.333 0 45.666 -1.83301 66.999 -5.5s40 -8.5 56 -14.5
c18.667 -7.33301 34 -15 46 -23s22 -15.667 30 -23zM641.002 265.001c0 -33.333 -5.50195 -65.168 -16.502 -95.501s-27.667 -57.166 -50 -80.499s-50.666 -42 -84.999 -56s-74.833 -21 -121.5 -21c-23.333 0 -45.833 1.83301 -67.5 5.5s-40.5 8.5 -56.5 14.5
c-18.667 7.33301 -34 15 -46 23s-22 15.667 -30 23l422 353c10.667 -14 21.834 -34.5 33.501 -61.5s17.5 -61.833 17.5 -104.5z" />
    <glyph glyph-name="ugrave" unicode="&#xf9;" horiz-adv-x="721" 
d="M406 564l-159 129h-65l181 -129h43zM609 -8v548h-36v-417c-25.333 -19.333 -50.5 -36 -75.5 -50s-47.167 -25 -66.5 -33c-22.667 -8.66699 -45 -15.334 -67 -20.001s-42.667 -7 -62 -7c-34 0 -60.667 4.33301 -80 13s-34.333 18 -45 28c-14.667 14 -24 29.667 -28 47
s-6 36.333 -6 57v382h-36v-383c0 -29.333 3.66699 -53.833 11 -73.5s18.333 -37.167 33 -52.5c32.667 -34 82.334 -51 149.001 -51c46 0 92.667 9.66699 140 29c23.333 8.66699 45.666 19.5 66.999 32.5l72 45.5c-1.33301 -3.33301 -2.33301 -10.166 -3 -20.499l-2 -32
c-0.666992 -11 -1 -20.833 -1 -29.5v-13h36z" />
    <glyph glyph-name="uacute" unicode="&#xfa;" horiz-adv-x="721" 
d="M540 693h-65l-159 -129h43zM609 -8v548h-36v-417c-25.333 -19.333 -50.5 -36 -75.5 -50s-47.167 -25 -66.5 -33c-22.667 -8.66699 -45 -15.334 -67 -20.001s-42.667 -7 -62 -7c-34 0 -60.667 4.33301 -80 13s-34.333 18 -45 28c-14.667 14 -24 29.667 -28 47
s-6 36.333 -6 57v382h-36v-383c0 -29.333 3.66699 -53.833 11 -73.5s18.333 -37.167 33 -52.5c32.667 -34 82.334 -51 149.001 -51c46 0 92.667 9.66699 140 29c23.333 8.66699 45.666 19.5 66.999 32.5l72 45.5c-1.33301 -3.33301 -2.33301 -10.166 -3 -20.499l-2 -32
c-0.666992 -11 -1 -20.833 -1 -29.5v-13h36z" />
    <glyph glyph-name="ucircumflex" unicode="&#xfb;" horiz-adv-x="721" 
d="M528 583l-164 108h-6l-164 -108h47l120 65l120 -65h47zM609 -8v548h-36v-417c-25.333 -19.333 -50.5 -36 -75.5 -50s-47.167 -25 -66.5 -33c-22.667 -8.66699 -45 -15.334 -67 -20.001s-42.667 -7 -62 -7c-34 0 -60.667 4.33301 -80 13s-34.333 18 -45 28
c-14.667 14 -24 29.667 -28 47s-6 36.333 -6 57v382h-36v-383c0 -29.333 3.66699 -53.833 11 -73.5s18.333 -37.167 33 -52.5c32.667 -34 82.334 -51 149.001 -51c46 0 92.667 9.66699 140 29c23.333 8.66699 45.666 19.5 66.999 32.5l72 45.5
c-1.33301 -3.33301 -2.33301 -10.166 -3 -20.499l-2 -32c-0.666992 -11 -1 -20.833 -1 -29.5v-13h36z" />
    <glyph glyph-name="udieresis" unicode="&#xfc;" horiz-adv-x="721" 
d="M492 604v93h-34v-93h34zM264 604v93h-34v-93h34zM609 -8v548h-36v-417c-25.333 -19.333 -50.5 -36 -75.5 -50s-47.167 -25 -66.5 -33c-22.667 -8.66699 -45 -15.334 -67 -20.001s-42.667 -7 -62 -7c-34 0 -60.667 4.33301 -80 13s-34.333 18 -45 28
c-14.667 14 -24 29.667 -28 47s-6 36.333 -6 57v382h-36v-383c0 -29.333 3.66699 -53.833 11 -73.5s18.333 -37.167 33 -52.5c32.667 -34 82.334 -51 149.001 -51c46 0 92.667 9.66699 140 29c23.333 8.66699 45.666 19.5 66.999 32.5l72 45.5
c-1.33301 -3.33301 -2.33301 -10.166 -3 -20.499l-2 -32c-0.666992 -11 -1 -20.833 -1 -29.5v-13h36z" />
    <glyph glyph-name="yacute" unicode="&#xfd;" horiz-adv-x="661" 
d="M550 693h-65l-159 -129h43zM638 540l-37.9971 0.000976562l-107 -250l-105 -245l-76.5 121.5l-76.5 122.5l-158 251h-41l335 -533l-50 -114c-15.333 -34 -34.333 -62 -57 -84c-16 -15.333 -34.333 -26.666 -55 -33.999s-43.667 -11 -69 -11
c-13.333 0 -25.833 0.833008 -37.5 2.5s-22.167 4.16699 -31.5 7.5c-10.667 3.33301 -20.334 7.33301 -29.001 12l-27 15l-18 -31c11.333 -6.66699 21.666 -12.167 30.999 -16.5s20.333 -8.5 33 -12.5c10.667 -3.33301 22.167 -5.83301 34.5 -7.5s27.166 -2.5 44.499 -2.5
c34 0 62.833 5 86.5 15s43.834 22.667 60.501 38c17.333 15.333 31.166 31.666 41.499 48.999s18.5 33.666 24.5 48.999z" />
    <glyph glyph-name="thorn" unicode="&#xfe;" horiz-adv-x="739" 
d="M672 268c0 40.667 -6.66699 77.334 -20 110.001s-31.333 61 -54 85c-56 59.333 -129.667 89 -221 89c-28 0 -53.333 -2.33301 -76 -7s-43.667 -11.667 -63 -21c-36.667 -16.667 -66.667 -36 -90 -58v269h-36v-991h36v323c14.667 -12.667 30.5 -24.5 47.5 -35.5
s33.167 -19.5 48.5 -25.5c27.333 -12 52.333 -19.333 75 -22s42 -4 58 -4c48.667 0 91.5 8.16699 128.5 24.5s67.167 37.166 90.5 62.499c27.333 29.333 46.833 61.333 58.5 96s17.5 69.667 17.5 105zM636 268c0 -38.667 -6.16992 -72.668 -18.5029 -102.001
s-28.166 -54.666 -47.499 -75.999c-25.333 -28 -54.833 -47.833 -88.5 -59.5s-68.5 -17.5 -104.5 -17.5c-25.333 0 -48.166 2.16699 -68.499 6.5s-38.166 9.83301 -53.499 16.5c-14.667 6.66699 -30.834 15.834 -48.501 27.501s-37.167 27.167 -58.5 46.5v312
c15.333 15.333 31.833 29.166 49.5 41.499s35.5 22.833 53.5 31.5c21.333 9.33301 42.5 15.666 63.5 18.999s41.833 5 62.5 5c42.667 0 80.334 -7 113.001 -21s59.667 -32.667 81 -56s37.5 -50.166 48.5 -80.499s16.5 -61.5 16.5 -93.5z" />
    <glyph glyph-name="ydieresis" unicode="&#xff;" horiz-adv-x="661" 
d="M485 604v93h-34v-93h34zM257 604v93h-34v-93h34zM638 540l-37.9971 0.000976562l-107 -250l-105 -245l-76.5 121.5l-76.5 122.5l-158 251h-41l335 -533l-50 -114c-15.333 -34 -34.333 -62 -57 -84c-16 -15.333 -34.333 -26.666 -55 -33.999s-43.667 -11 -69 -11
c-13.333 0 -25.833 0.833008 -37.5 2.5s-22.167 4.16699 -31.5 7.5c-10.667 3.33301 -20.334 7.33301 -29.001 12l-27 15l-18 -31c11.333 -6.66699 21.666 -12.167 30.999 -16.5s20.333 -8.5 33 -12.5c10.667 -3.33301 22.167 -5.83301 34.5 -7.5s27.166 -2.5 44.499 -2.5
c34 0 62.833 5 86.5 15s43.834 22.667 60.501 38c17.333 15.333 31.166 31.666 41.499 48.999s18.5 33.666 24.5 48.999z" />
    <glyph glyph-name="OE" unicode="&#x152;" horiz-adv-x="1231" 
d="M1149 -8l0.00195312 34.998h-457v326h360v35h-360v294h443v35h-463c-10.667 2.66699 -29.334 5.66699 -56.001 9s-65.334 5 -116.001 5c-65.333 0 -124.333 -8.66699 -177 -26s-97.5 -42.166 -134.5 -74.499s-65.667 -71.833 -86 -118.5s-30.5 -99.334 -30.5 -158.001
s10.167 -111.167 30.5 -157.5s49 -85.666 86 -117.999s81.833 -57.166 134.5 -74.499s111.667 -26 177 -26c53.333 0 93 1.83301 119 5.5s43.667 6.5 53 8.5h477zM654.002 23.998c0 -4.66699 -13.667 -7.8291 -41 -9.49609s-64.666 -2.5 -111.999 -2.5
c-59.333 0 -113 7.66699 -161 23s-89 37.666 -123 66.999s-60.333 65.166 -79 107.499s-28 90.5 -28 144.5s9.33301 102.333 28 145s45 78.667 79 108s75 51.666 123 66.999s101.667 23 161 23c47.333 0 84.666 -0.833008 111.999 -2.5s41 -4.83398 41 -9.50098v-661z" />
    <glyph glyph-name="oe" unicode="&#x153;" horiz-adv-x="1232" 
d="M1183 261c0 44.667 -7.00098 83.9971 -21.001 117.997s-32 62.667 -54 86c-27.333 28.667 -58.166 50.334 -92.499 65.001s-70.5 22 -108.5 22c-39.333 0 -74.5 -5.16699 -105.5 -15.5s-58.167 -24.166 -81.5 -41.499s-42.666 -37 -57.999 -59
s-26.666 -44.333 -33.999 -67c-5.33301 16.667 -14 35.667 -26 57s-28.667 41.333 -50 60s-48.333 34.334 -81 47.001s-72.334 19 -119.001 19c-40.667 0 -78.667 -6.66699 -114 -20s-66 -32.333 -92 -57s-46.5 -54.667 -61.5 -90s-22.5 -75 -22.5 -119
c0 -41.333 7 -79.5 21 -114.5s33.667 -65.167 59 -90.5s55.833 -45.166 91.5 -59.499s75.167 -21.5 118.5 -21.5c40.667 0 76.834 5 108.501 15s58.834 23.333 81.501 40s41.167 36 55.5 58s25.166 45 32.499 69c12 -36.667 28.833 -66.667 50.5 -90
s45.5 -41.833 71.5 -55.5s52.5 -23.167 79.5 -28.5s52.167 -8 75.5 -8c26.667 0 55.834 2.83301 87.501 8.5s61.167 11.667 88.5 18s50.166 12.333 68.499 18l27.5 8.5l-7 34l-29.5 -9.5c-17.667 -5.66699 -39.334 -11.834 -65.001 -18.501s-53.834 -12.667 -84.501 -18
s-60 -8 -88 -8c-27.333 0 -56 4.16699 -86 12.5s-57.5 22.166 -82.5 41.499s-46 44.833 -63 76.5s-25.833 70.834 -26.5 117.501h536zM1145 293.997l-498.001 -0.00195312c0.666992 25.333 6.5 51.333 17.5 78s27.333 50.834 49 72.501s48.334 39.334 80.001 53.001
s69.167 20.5 112.5 20.5c34 0 65.167 -6.16699 93.5 -18.5s53 -29 74 -50s37.667 -45 50 -72s19.5 -54.833 21.5 -83.5zM610.998 265.995c0 -42.667 -6.33496 -79.832 -19.002 -111.499s-30.5 -58 -53.5 -79s-50.333 -36.667 -82 -47s-66.167 -15.5 -103.5 -15.5
c-38 0 -72.667 6.16699 -104 18.5s-58.166 29.666 -80.499 51.999s-39.666 49 -51.999 80s-18.5 64.833 -18.5 101.5v1c0 44.667 7.66699 83 23 115s35.166 58.167 59.499 78.5s51.666 35.333 81.999 45s60.5 14.5 90.5 14.5c38 0 72.833 -5.83301 104.5 -17.5
s58.834 -28.5 81.501 -50.5s40.334 -48.667 53.001 -80s19 -66.333 19 -105z" />
    <glyph glyph-name="Scaron" unicode="&#x160;" horiz-adv-x="790" 
d="M582 830h-56l-131 -44c0.666992 0 -5.83301 2.33301 -19.5 7l-45.5 15l-45.5 15l-20.5 7h-56l184 -83h6zM720 193c0 34 -8.1709 62.1709 -24.5039 84.5039s-34.5 40.166 -54.5 53.499c-12 8 -24.833 15 -38.5 21s-29.5 11.667 -47.5 17s-38.5 10.666 -61.5 15.999
l-80.5 18l-90.5 20c-24.333 5.33301 -45 10.333 -62 15s-31.167 9 -42.5 13s-22 8.33301 -32 13c-18.667 9.33301 -33.667 22.166 -45 38.499s-17 35.166 -17 56.499c0 42.667 21.667 76 65 100c23.333 13.333 53 23 89 29s74.667 9 116 9c73.333 0 129.833 -9 169.5 -27
s68.167 -42.333 85.5 -73l33 18c-10.667 18.667 -24 35.167 -40 49.5s-35.5 26.5 -58.5 36.5s-50 17.5 -81 22.5s-67.167 7.5 -108.5 7.5c-46.667 0 -88.667 -3.33301 -126 -10s-70 -17.334 -98 -32.001c-30 -15.333 -51.5 -34.5 -64.5 -57.5s-19.5 -46.167 -19.5 -69.5
c0 -33.333 7.5 -60.166 22.5 -80.499s32.167 -35.5 51.5 -45.5c8.66699 -4.66699 17.834 -9 27.501 -13s22.334 -8.33301 38.001 -13s35.834 -10 60.501 -16s56.334 -13.333 95.001 -22c37.333 -8 68.5 -15 93.5 -21s46.167 -11.5 63.5 -16.5s31.5 -9.83301 42.5 -14.5
s21.167 -9.33398 30.5 -14.001c8.66699 -4.66699 17.167 -10.334 25.5 -17.001s15.833 -14.667 22.5 -24s12.167 -20.166 16.5 -32.499s6.5 -26.166 6.5 -41.499c0 -24 -6.5 -46.333 -19.5 -67s-30.167 -38 -51.5 -52c-27.333 -18 -59 -32.5 -95 -43.5s-78 -16.5 -126 -16.5
c-75.333 0 -137.333 10 -186 30s-85.667 45.667 -111 77l-29 -24c30.667 -36 71.667 -64.5 123 -85.5s118.666 -31.5 201.999 -31.5c50 0 95.333 5.83301 136 17.5s75.667 27.167 105 46.5c28.667 19.333 50.834 41.833 66.501 67.5s23.5 53.5 23.5 83.5z" />
    <glyph glyph-name="scaron" unicode="&#x161;" horiz-adv-x="652" 
d="M493 686h-47l-120 -65l-120 65h-47l164 -108h6zM600 147c0 18.667 -4 36.6689 -12 54.002s-19 31.666 -33 42.999c-10 8 -20.833 15 -32.5 21s-25.834 11.333 -42.501 16s-36.5 9.16699 -59.5 13.5s-50.5 9.16602 -82.5 14.499c-35.333 5.33301 -64.166 10 -86.499 14
s-40.666 7.83301 -54.999 11.5s-26 7.66699 -35 12s-17.5 9.5 -25.5 15.5c-11.333 9.33301 -19.166 18.666 -23.499 27.999s-6.5 19.333 -6.5 30c0 16 4.33301 29.667 13 41s21 21 37 29c21.333 11.333 47.166 18.833 77.499 22.5s61.5 5.5 93.5 5.5
c59.333 0 107 -7.83301 143 -23.5s62 -35.5 78 -59.5l28 24c-13.333 16.667 -27 30 -41 40s-29.333 18.667 -46 26c-24.667 11.333 -50.667 18.666 -78 21.999s-55.333 5 -84 5c-39.333 0 -74.5 -2.5 -105.5 -7.5s-57.833 -12.833 -80.5 -23.5
c-22.667 -10 -40.167 -23.5 -52.5 -40.5s-18.5 -37.167 -18.5 -60.5c0 -18.667 4.16699 -35.167 12.5 -49.5s20.166 -27.166 35.499 -38.499c10 -7.33301 20.333 -13.5 31 -18.5s23.834 -9.5 39.501 -13.5s34.667 -8 57 -12s49.833 -8.33301 82.5 -13l83 -14
c22.667 -4 41.5 -8.16699 56.5 -12.5s27.5 -9 37.5 -14s19 -10.833 27 -17.5c11.333 -10 19.5 -21.667 24.5 -35s7.5 -26 7.5 -38c0 -36 -17 -64.667 -51 -86c-23.333 -15.333 -51.333 -26.5 -84 -33.5s-65.334 -10.5 -98.001 -10.5c-62.667 0 -115.667 8.33301 -159 25
s-76 37 -98 61l-26 -26c17.333 -15.333 34.833 -28.833 52.5 -40.5s38.167 -21.167 61.5 -28.5c24 -7.33301 50.333 -13.333 79 -18s60 -7 94 -7c44 0 82.5 4.33301 115.5 13s61.167 21 84.5 37c22 16 38.333 32.833 49 50.5s16 39.834 16 66.501z" />
    <glyph glyph-name="Ydieresis" unicode="&#x178;" horiz-adv-x="700" 
d="M483 719v88h-34v-88h34zM251 719v88h-34v-88h34zM681 717h-45l-146 -195l-70 -92.5l-70 -93.5l-70 92l-70 93l-146 196h-45l312 -415v-310h38v310z" />
    <glyph glyph-name="florin" unicode="&#x192;" 
d="M863 678c-24.667 12 -48.0029 20.8359 -70.0029 26.5029s-48.333 8.5 -79 8.5c-30 0 -56.667 -3.83301 -80 -11.5s-44.666 -20.834 -63.999 -39.501c-17.333 -17.333 -33 -38.833 -47 -64.5s-28 -57.5 -42 -95.5l-21 -54h-158l-11 -33h158l-129 -349
c-18 -50.667 -41.667 -88.667 -71 -114c-32.667 -27.333 -70 -41 -112 -41c-22.667 0 -43.167 2.66699 -61.5 8s-38.833 13 -61.5 23l-18 -31c15.333 -7.33301 29.166 -13 41.499 -17s23.833 -7.33301 34.5 -10s20.834 -4.33398 30.501 -5.00098s19.834 -1 30.501 -1
c30 0 56.5 4.16699 79.5 12.5s43.167 20.166 60.5 35.499c19.333 16 35.5 35.5 48.5 58.5s24.5 47.833 34.5 74.5l131 356h207l11 33h-207l17.5 48c6.33301 17.333 13.5 34.5 21.5 51.5s16.833 33.167 26.5 48.5s20.5 29 32.5 41c13.333 13.333 29.5 23.833 48.5 31.5
s41.833 11.5 68.5 11.5c14 0 26.667 -0.666992 38 -2s21.833 -3.33301 31.5 -6s18.834 -6 27.501 -10l28 -13z" />
    <glyph glyph-name="circumflex" unicode="&#x2c6;" horiz-adv-x="500" 
d="M417 583l-164 108h-6l-164 -108h47l120 65l120 -65h47z" />
    <glyph glyph-name="tilde" unicode="&#x2dc;" horiz-adv-x="500" 
d="M399 659l-23 23c-10.667 -11.333 -20.334 -18.666 -29.001 -21.999s-19.334 -5 -32.001 -5c-9.33301 0 -18.833 1 -28.5 3s-17.167 3.66699 -22.5 5l-20 6c-11.333 3.33301 -21.833 5.5 -31.5 6.5s-18.167 1.5 -25.5 1.5c-15.333 0 -30.166 -2.5 -44.499 -7.5
s-27.5 -15.167 -39.5 -30.5l23 -23c10.667 11.333 20.334 18.666 29.001 21.999s19.334 5 32.001 5c9.33301 0 18.833 -1 28.5 -3s17.167 -3.66699 22.5 -5l20 -6c11.333 -3.33301 21.833 -5.5 31.5 -6.5s18.167 -1.5 25.5 -1.5c15.333 0 30.166 2.5 44.499 7.5
s27.5 15.167 39.5 30.5z" />
    <glyph glyph-name="endash" unicode="&#x2013;" horiz-adv-x="600" 
d="M578 234v32h-556v-32h556z" />
    <glyph glyph-name="emdash" unicode="&#x2014;" horiz-adv-x="1200" 
d="M1178 234v32h-1156v-32h1156z" />
    <glyph glyph-name="quoteleft" unicode="&#x2018;" horiz-adv-x="230" 
d="M140 544l-34 173h-41l47 -173h28z" />
    <glyph glyph-name="quoteright" unicode="&#x2019;" horiz-adv-x="230" 
d="M165 717h-41l-34 -173h28z" />
    <glyph glyph-name="quotesinglbase" unicode="&#x201a;" horiz-adv-x="589" 
d="M636 722c-16 12.667 -30.998 22.5 -44.998 29.5s-27.667 13.167 -41 18.5c-20.667 8 -42.5 13.5 -65.5 16.5s-47.167 4.5 -72.5 4.5c-68 0 -122.667 -12.333 -164 -37c-54 -32.667 -81 -83 -81 -151v-861h36v860c0 30 6.16699 55.5 18.5 76.5s28.166 37.167 47.499 48.5
s41.166 19.333 65.499 24s50.166 7 77.499 7c48 0 90 -6.66699 126 -20c16.667 -5.33301 30.834 -11.833 42.501 -19.5s23.167 -17.167 34.5 -28.5z" />
    <glyph glyph-name="quotedblleft" unicode="&#x201c;" horiz-adv-x="353" 
d="M263 544l-34 173h-41l47 -173h28zM140 544l-34 173h-41l47 -173h28z" />
    <glyph glyph-name="quotedblright" unicode="&#x201d;" horiz-adv-x="353" 
d="M288 717h-41l-34 -173h28zM165 717h-41l-34 -173h28z" />
    <glyph glyph-name="quotedblbase" unicode="&#x201e;" horiz-adv-x="353" 
d="M288 85h-41l-34 -173h28zM165 85h-41l-34 -173h28z" />
    <glyph glyph-name="dagger" unicode="&#x2020;" horiz-adv-x="682" 
d="M544 518v37l-187 -3l4 179h-40l4 -179l-187 3v-37l187 3l-2 -69.5c-0.666992 -23 -1 -46.167 -1 -69.5c0.666992 -80.667 1.5 -161.5 2.5 -242.5s2.16699 -164.167 3.5 -249.5h26c1.33301 85.333 2.5 168.5 3.5 249.5s1.83301 161.833 2.5 242.5
c0 23.333 -0.333008 46.5 -1 69.5l-2 69.5z" />
    <glyph glyph-name="daggerdbl" unicode="&#x2021;" horiz-adv-x="682" 
d="M544 186v37l-187 -3l2 81.5c0.666992 27 1 53.833 1 80.5c0 23.333 -0.333008 46.5 -1 69.5l-2 69.5l187 -3v37l-187 -3l4 179h-40l4 -179l-187 3v-37l187 3l-2 -69.5c-0.666992 -23 -1 -46.167 -1 -69.5c0 -26.667 0.333008 -53.5 1 -80.5l2 -81.5l-187 3v-37l187 3
l-4 -281h40l-4 281z" />
    <glyph glyph-name="bullet" unicode="&#x2022;" horiz-adv-x="570" 
d="M355 341c0 19.333 -6.83301 35.833 -20.5 49.5s-30.167 20.5 -49.5 20.5s-35.833 -6.83301 -49.5 -20.5s-20.5 -30.167 -20.5 -49.5s6.83301 -35.833 20.5 -49.5s30.167 -20.5 49.5 -20.5s35.833 6.83301 49.5 20.5s20.5 30.167 20.5 49.5z" />
    <glyph glyph-name="ellipsis" unicode="&#x2026;" horiz-adv-x="1200" 
d="M1018 -8v96h-36v-96h36zM618 -8v96h-36v-96h36zM218 -8v96h-36v-96h36z" />
    <glyph glyph-name="perthousand" unicode="&#x2030;" horiz-adv-x="1475" 
d="M1398 165v0.998047c0 26.667 -4.5 51.5 -13.5 74.5s-21.667 42.833 -38 59.5s-35.833 29.834 -58.5 39.501s-48 14.5 -76 14.5s-53.333 -4.83301 -76 -14.5s-42.167 -22.834 -58.5 -39.501s-29 -36.5 -38 -59.5s-13.5 -47.833 -13.5 -74.5s4.5 -51.5 13.5 -74.5
s21.667 -42.833 38 -59.5s35.833 -29.834 58.5 -39.501s48 -14.5 76 -14.5s53.333 4.83301 76 14.5s42.167 22.834 58.5 39.501s29 36.334 38 59.001s13.5 47.334 13.5 74.001zM1363 164.998c0 -23.333 -3.66699 -44.5 -11 -63.5s-17.5 -35.167 -30.5 -48.5
s-28.667 -23.833 -47 -31.5s-38.5 -11.5 -60.5 -11.5h-1c-22.667 0 -43.167 3.83301 -61.5 11.5s-34 18.167 -47 31.5s-23.167 29.5 -30.5 48.5s-11 40.167 -11 63.5c0 22.667 3.66699 43.667 11 63s17.5 35.666 30.5 48.999s28.667 23.833 47 31.5s38.833 11.5 61.5 11.5
s43.167 -3.83301 61.5 -11.5s34 -18.167 47 -31.5s23.167 -29.666 30.5 -48.999s11 -40.333 11 -63zM939 165.998v0.998047c0 26.667 -4.5 51.5 -13.5 74.5s-21.667 42.833 -38 59.5s-35.833 29.834 -58.5 39.501s-48 14.5 -76 14.5s-53.333 -4.83301 -76 -14.5
s-42.167 -22.834 -58.5 -39.501s-29 -36.5 -38 -59.5s-13.5 -47.833 -13.5 -74.5s4.5 -51.5 13.5 -74.5s21.667 -42.833 38 -59.5s35.833 -29.834 58.5 -39.501s48 -14.5 76 -14.5s53.333 4.83301 76 14.5s42.167 22.834 58.5 39.501s29 36.334 38 59.001
s13.5 47.334 13.5 74.001zM903 164.996c0 -23.333 -3.66699 -44.5 -11 -63.5s-17.5 -35.167 -30.5 -48.5s-28.667 -23.833 -47 -31.5s-38.5 -11.5 -60.5 -11.5h-1c-22.667 0 -43.167 3.83301 -61.5 11.5s-34 18.167 -47 31.5s-23.167 29.5 -30.5 48.5s-11 40.167 -11 63.5
c0 22.667 3.66699 43.667 11 63s17.5 35.666 30.5 48.999s28.667 23.833 47 31.5s38.833 11.5 61.5 11.5s43.167 -3.83301 61.5 -11.5s34 -18.167 47 -31.5s23.167 -29.666 30.5 -48.999s11 -40.333 11 -63zM809 723.996h-42l-560 -743h43zM450 537.996v0.998047
c0 26.667 -4.5 51.5 -13.5 74.5s-21.667 42.833 -38 59.5s-35.833 29.834 -58.5 39.501s-48 14.5 -76 14.5s-53.333 -4.83301 -76 -14.5s-42.167 -22.834 -58.5 -39.501s-29 -36.5 -38 -59.5s-13.5 -47.833 -13.5 -74.5s4.5 -51.5 13.5 -74.5s21.667 -42.833 38 -59.5
s35.833 -29.834 58.5 -39.501s48 -14.5 76 -14.5s53.333 4.83301 76 14.5s42.167 22.834 58.5 39.501s29 36.334 38 59.001s13.5 47.334 13.5 74.001zM414 537.994c0 -23.333 -3.66699 -44.5 -11 -63.5s-17.5 -35.167 -30.5 -48.5s-28.667 -23.833 -47 -31.5
s-38.5 -11.5 -60.5 -11.5h-1c-22.667 0 -43.167 3.83301 -61.5 11.5s-34 18.167 -47 31.5s-23.167 29.5 -30.5 48.5s-11 40.167 -11 63.5c0 22.667 3.66699 43.667 11 63s17.5 35.666 30.5 48.999s28.667 23.833 47 31.5s38.833 11.5 61.5 11.5s43.167 -3.83301 61.5 -11.5
s34 -18.167 47 -31.5s23.167 -29.666 30.5 -48.999s11 -40.333 11 -63z" />
    <glyph glyph-name="guilsinglleft" unicode="&#x2039;" horiz-adv-x="382" 
d="M285 42v44l-163 163l163 163v44l-210 -203v-8z" />
    <glyph glyph-name="guilsinglright" unicode="&#x203a;" horiz-adv-x="382" 
d="M307 245v8l-210 203v-44l163 -163l-163 -163v-44z" />
    <glyph glyph-name="currency" unicode="&#x20ac;" horiz-adv-x="844" 
d="M822 153l-30 21.002c-11.333 -16 -25.833 -33.5 -43.5 -52.5s-38.334 -36.667 -62.001 -53s-50.667 -29.833 -81 -40.5s-63.833 -16 -100.5 -16c-40.667 0 -80.167 5.5 -118.5 16.5s-73.333 27.667 -105 50s-58.5 50.5 -80.5 84.5s-37 74 -45 120h601v32h-605
c-0.666992 6.66699 -1.16699 13.167 -1.5 19.5s-0.5 12.833 -0.5 19.5c0 10 0.333008 19.667 1 29s1.66699 18.666 3 27.999h603v32h-598c10 44.667 26.667 83.167 50 115.5s51 58.666 83 78.999s66.833 35.333 104.5 45s75.5 14.5 113.5 14.5c32 0 61 -3.83301 87 -11.5
s49.5 -18 70.5 -31s39.667 -28.167 56 -45.5s30.833 -36 43.5 -56l32 19c-14 22 -30.5 42.667 -49.5 62s-40.5 36.166 -64.5 50.499s-50.5 25.666 -79.5 33.999s-60.833 12.5 -95.5 12.5c-58.667 0 -112 -8.83301 -160 -26.5s-89.667 -42.834 -125 -75.501
c-26 -24 -47.833 -51.5 -65.5 -82.5s-30.5 -65.5 -38.5 -103.5h-105v-32h100c-1.33301 -9.33301 -2.33301 -18.666 -3 -27.999s-1 -18.666 -1 -27.999c0 -7.33301 0.166992 -14.166 0.5 -20.499s0.833008 -12.833 1.5 -19.5h-98v-32h102
c7.33301 -42 20.333 -80.167 39 -114.5s43 -65.5 73 -93.5c29.333 -27.333 67.5 -50.333 114.5 -69s100.5 -28 160.5 -28c40.667 0 77.334 5.33301 110.001 16s62 24.5 88 41.5s48.833 35.833 68.5 56.5s36.5 41 50.5 61z" />
    <glyph glyph-name="trademark" unicode="&#x2122;" horiz-adv-x="1170" 
d="M1013 345v371.999h-40l-122 -173l-56.5 -81l-57.5 -82l-56 81l-57 82l-122 173h-39v-372h32v179v149l52.5 -77l52.5 -76l123 -175h28l122 173l53 76.5l54 79.5c-0.666992 -25.333 -1 -50.666 -1 -75.999v-74v-179h34zM412 685.999v31h-386v-31h176v-341h34v341h176z" />
    <glyph glyph-name="minus" unicode="&#xe000;" horiz-adv-x="800" 
d="M664 237v32h-528v-32h528z" />
    <glyph glyph-name="notequal" unicode="&#xe001;" horiz-adv-x="682" 
d="M322 426l0.000976562 -43.9961c0.666992 -52.667 1.16699 -105.167 1.5 -157.5s1.16602 -105.166 2.49902 -158.499c-17.333 3.33301 -31.5 9.16602 -42.5 17.499s-21.167 18.166 -30.5 29.499h-39c12 -19.333 26.667 -36.666 44 -51.999s40 -25 68 -29
c0.666992 -22.667 1 -45.334 1 -68.001s0.333008 -47.334 1 -74.001h26c0.666992 26 1 50.333 1 73s0.333008 45 1 67c16.667 0.666992 31.667 3.5 45 8.5s25.166 11.333 35.499 19s19.5 16.334 27.5 26.001s15.333 19.5 22 29.5h-39
c-10.667 -12.667 -22.834 -23.667 -36.501 -33s-31.834 -14.666 -54.501 -15.999c1.33301 53.333 2.16602 106.333 2.49902 159s0.833008 105.667 1.5 159v49c12.667 -16.667 28.5 -31 47.5 -43s43.167 -18 72.5 -18c18 0 33.833 2.33301 47.5 7s26 10.834 37 18.501
s20.667 16.5 29 26.5s15.833 20.333 22.5 31h-39c-11.333 -13.333 -24.166 -24.833 -38.499 -34.5s-33.833 -14.5 -58.5 -14.5s-44.167 4.83301 -58.5 14.5s-27.166 21.167 -38.499 34.5h-24c-0.666992 11.333 -1 22.666 -1 33.999s-0.333008 22.666 -1 33.999l187 -3v37
l-187 -3l4 179h-40l4 -179l-187 3v-37l187 3c-0.666992 -12.667 -1.16699 -25.334 -1.5 -38.001s-0.5 -25.334 -0.5 -38.001h-26c-11.333 -13.333 -24.166 -24.833 -38.499 -34.5s-33.833 -14.5 -58.5 -14.5s-44.167 4.83301 -58.5 14.5s-27.166 21.167 -38.499 34.5h-39
c6.66699 -10.667 14.167 -21 22.5 -31s18 -18.833 29 -26.5s23.333 -13.834 37 -18.501s29.5 -7 47.5 -7c30 0 54.5 6.33301 73.5 19s35.167 27.667 48.5 45z" />
    <glyph glyph-name="infinity" unicode="&#xe002;" horiz-adv-x="684" 
d="M366 693h-39.002c-11.333 -13.333 -24.166 -24.833 -38.499 -34.5s-33.833 -14.5 -58.5 -14.5s-44.167 4.83301 -58.5 14.5s-27.166 21.167 -38.499 34.5h-39c6.66699 -10.667 14.167 -21 22.5 -31s18 -18.833 29 -26.5s23.333 -13.834 37 -18.501s29.5 -7 47.5 -7
s33.833 2.33301 47.5 7s26 10.834 37 18.501s20.667 16.5 29 26.5s15.833 20.333 22.5 31zM685.998 693l-39.0029 -0.00195312c-11.333 -13.333 -24.166 -24.833 -38.499 -34.5s-33.833 -14.5 -58.5 -14.5c-23.333 0 -42 4.33301 -56 13s-26 18.667 -36 30v43h-36v-37h-8
l8 -12v-537c0 -35.333 -3 -62.666 -9 -81.999s-15 -36 -27 -50c-10 -12 -21.833 -21.667 -35.5 -29s-27.667 -13.166 -42 -17.499s-28.833 -7.33301 -43.5 -9s-28.334 -2.5 -41.001 -2.5c-14.667 0 -27.667 0.666992 -39 2s-21.333 3 -30 5
c-9.33301 2 -17.166 4.16699 -23.499 6.5s-12.166 4.16602 -17.499 5.49902c-17.333 6.66699 -32.5 13.834 -45.5 21.501s-27.833 17.834 -44.5 30.501l-21 -29c18.667 -14 36 -25.167 52 -33.5s32 -15.833 48 -22.5c17.333 -6 35.333 -10.667 54 -14s39.334 -5 62.001 -5
c87.333 0 151.333 23 192 69c16 17.333 27.833 37.666 35.5 60.999s11.5 54.666 11.5 93.999v496c11.333 -8.66699 24.5 -16 39.5 -22s32.5 -9 52.5 -9c18 0 33.833 2.33301 47.5 7s26 10.834 37 18.501s20.667 16.5 29 26.5s15.833 20.333 22.5 31zM365.995 -177.002
h-39.002c-11.333 -13.333 -24.166 -24.833 -38.499 -34.5s-33.833 -14.5 -58.5 -14.5s-44.167 4.83301 -58.5 14.5s-27.166 21.167 -38.499 34.5h-39c6.66699 -10.667 14.167 -21 22.5 -31s18 -18.833 29 -26.5s23.333 -13.834 37 -18.501s29.5 -7 47.5 -7
s33.833 2.33301 47.5 7s26 10.834 37 18.501s20.667 16.5 29 26.5s15.833 20.333 22.5 31z" />
    <glyph glyph-name="lessequal" unicode="&#xe003;" horiz-adv-x="684" 
d="M591 693h-39.002c-11.333 -13.333 -24.166 -24.833 -38.499 -34.5s-33.833 -14.5 -58.5 -14.5s-44.167 4.83301 -58.5 14.5s-27.166 21.167 -38.499 34.5h-39c6.66699 -10.667 14.167 -21 22.5 -31s18 -18.833 29 -26.5s23.333 -13.834 37 -18.501s29.5 -7 47.5 -7
s33.833 2.33301 47.5 7s26 10.834 37 18.501s20.667 16.5 29 26.5s15.833 20.333 22.5 31zM681.998 -4l-21.002 29.002c-16.667 -12.667 -31.5 -22.834 -44.5 -30.501s-28.167 -14.834 -45.5 -21.501c-5.33301 -1.33301 -11.166 -3.16602 -17.499 -5.49902
s-14.166 -4.5 -23.499 -6.5c-8.66699 -2 -18.667 -3.66699 -30 -5s-24.333 -2 -39 -2c-12.667 0 -26.334 0.833008 -41.001 2.5s-29.334 4.66699 -44.001 9s-28.667 10.166 -42 17.499s-25 17 -35 29c-12 14 -21 30.667 -27 50s-9 46.666 -9 81.999v537l8 12h-8v37h-36v-43
c-10 -11.333 -22 -21.333 -36 -30s-32.667 -13 -56 -13c-24.667 0 -44.167 4.83301 -58.5 14.5s-27.166 21.167 -38.499 34.5h-39c6.66699 -10.667 14.167 -21 22.5 -31s18 -18.833 29 -26.5s23.333 -13.834 37 -18.501s29.5 -7 47.5 -7c20 0 37.5 3 52.5 9
s28.167 13.333 39.5 22v-496c0 -39.333 3.83301 -70.666 11.5 -93.999s19.5 -43.666 35.5 -60.999c40.667 -46 104.667 -69 192 -69c22.667 0 43.334 1.66699 62.001 5s36.667 8 54 14c16 6.66699 32 14.167 48 22.5s33.333 19.5 52 33.5zM590.996 -176.998h-39.002
c-11.333 -13.333 -24.166 -24.833 -38.499 -34.5s-33.833 -14.5 -58.5 -14.5s-44.167 4.83301 -58.5 14.5s-27.166 21.167 -38.499 34.5h-39c6.66699 -10.667 14.167 -21 22.5 -31s18 -18.833 29 -26.5s23.333 -13.834 37 -18.501s29.5 -7 47.5 -7s33.833 2.33301 47.5 7
s26 10.834 37 18.501s20.667 16.5 29 26.5s15.833 20.333 22.5 31z" />
    <glyph glyph-name="greaterequal" unicode="&#xe004;" horiz-adv-x="788" 
d="M346 613l-38.999 0.000976562c-2 -2.66699 -4 -5 -6 -7l-6 -6c-11.333 19.333 -26.833 34.666 -46.5 45.999s-41.167 17 -64.5 17h-1c-18 0 -35 -3.5 -51 -10.5s-29.833 -16.333 -41.5 -28s-21 -25.5 -28 -41.5s-10.5 -33 -10.5 -51s3.5 -35 10.5 -51
s16.333 -29.833 28 -41.5s25.5 -21 41.5 -28s33 -10.5 51 -10.5s35 3.5 51 10.5s29.833 16.333 41.5 28s21 25.5 28 41.5s10.5 33 10.5 51c0 11.333 -1.66699 23 -5 35c6.66699 5.33301 12.667 11.5 18 18.5s11.666 16.167 18.999 27.5zM267.001 578.001
c-7.33301 -4 -15.667 -7.33301 -25 -10s-20 -4 -32 -4c-22 0 -39.833 4 -53.5 12s-25.5 17 -35.5 27c18 16 38.667 24 62 24h1c18 0 34.333 -4.5 49 -13.5s26 -20.833 34 -35.5zM279 532.001c0 -26.667 -9.16602 -49.168 -27.499 -67.501s-40.833 -27.5 -67.5 -27.5
s-49.167 9.16699 -67.5 27.5s-27.5 40.833 -27.5 67.5c0 16.667 3.66699 31.667 11 45c11.333 -12 25.833 -22.833 43.5 -32.5s39.834 -14.5 66.501 -14.5c13.333 0 25.666 1.33301 36.999 4s21.666 6.33398 30.999 11.001c0.666992 -2.66699 1 -7 1 -13zM726.001 613
l-39.0029 -0.00195312c-5.33301 -7.33301 -11.333 -13.666 -18 -18.999c-11.333 20.667 -27 37.334 -47 50.001s-42.667 19 -68 19h-1c-18.667 0 -36.167 -3.66699 -52.5 -11s-30.5 -17.333 -42.5 -30v118h-36v-208v-378c0 -35.333 -3 -62.666 -9 -81.999s-15 -36 -27 -50
c-10 -12 -21.833 -21.667 -35.5 -29s-27.667 -13.166 -42 -17.499s-28.833 -7.33301 -43.5 -9s-28.334 -2.5 -41.001 -2.5c-14.667 0 -27.667 0.666992 -39 2s-21.333 3 -30 5c-9.33301 2 -17.166 4.16699 -23.499 6.5s-12.166 4.16602 -17.499 5.49902
c-17.333 6.66699 -32.5 13.834 -45.5 21.501s-27.833 17.834 -44.5 30.501l-21 -29c18.667 -14 36 -25.167 52 -33.5s32 -15.833 48 -22.5c17.333 -6 35.333 -10.667 54 -14s39.334 -5 62.001 -5c87.333 0 151.333 23 192 69c16 17.333 27.833 37.666 35.5 60.999
s11.5 54.666 11.5 93.999v287c12 -12.667 26.167 -22.667 42.5 -30s33.833 -11 52.5 -11c18 0 35 3.5 51 10.5s29.833 16.333 41.5 28s21 25.5 28 41.5s10.5 33 10.5 51c0 9.33301 -1 18.666 -3 27.999c8.66699 6.66699 16.334 14 23.001 22s14 18.333 22 31z
M638.998 573.998c-6.66699 -3.33301 -14.001 -5.83301 -22.001 -7.5s-17 -2.5 -27 -2.5c-23.333 0 -41.833 4.33301 -55.5 13s-26.167 19 -37.5 31c16.667 12.667 35.334 19 56.001 19h1c19.333 0 36.5 -5 51.5 -15s26.167 -22.667 33.5 -38zM648.997 531.998
c0 -26.667 -9.16602 -49.168 -27.499 -67.501s-40.833 -27.5 -67.5 -27.5s-49.167 9.16699 -67.5 27.5s-27.5 40.833 -27.5 67.5c0 9.33301 1.33301 18.5 4 27.5s6.33398 17.167 11.001 24.5c11.333 -13.333 26.166 -25.666 44.499 -36.999s42.166 -17 71.499 -17
c21.333 0 41 3.66699 59 11v-9zM458.998 -27.0029l-37.001 -1c0 -2 -0.333008 -8.66699 -1 -20s-2.16699 -24.166 -4.5 -38.499s-6 -29 -11 -44s-11.5 -27.5 -19.5 -37.5c-10.667 -12.667 -22.667 -22.834 -36 -30.501s-27.166 -13.5 -41.499 -17.5
s-28.833 -6.66699 -43.5 -8s-28.334 -2 -41.001 -2c-14.667 0 -27.667 0.666992 -39 2s-21.333 3 -30 5c-9.33301 2 -17.166 4.16699 -23.499 6.5s-12.166 4.16602 -17.499 5.49902c-17.333 6.66699 -32.5 13.834 -45.5 21.501s-27.833 17.834 -44.5 30.501l-21 -29
c18.667 -14 36 -25.167 52 -33.5s32 -15.833 48 -22.5c17.333 -6 35.333 -10.667 54 -14s39.334 -5 62.001 -5c22 0 41.833 0.666992 59.5 2s34.167 4.33301 49.5 9s29.666 11.667 42.999 21s26.666 21.666 39.999 36.999c10 12 18.167 27.167 24.5 45.5
s11.333 36.333 15 54s6 32.667 7 45z" />
    <glyph glyph-name="partialdiff" unicode="&#xe005;" horiz-adv-x="788" 
d="M459 -27l-37.001 -1c0 -2 -0.333008 -8.66699 -1 -20s-2.16699 -24.166 -4.5 -38.499s-6 -29 -11 -44s-11.5 -27.5 -19.5 -37.5c-10.667 -12.667 -22.667 -22.834 -36 -30.501s-27.166 -13.5 -41.499 -17.5s-28.833 -6.66699 -43.5 -8s-28.334 -2 -41.001 -2
c-14.667 0 -27.667 0.666992 -39 2s-21.333 3 -30 5c-9.33301 2 -17.166 4.16699 -23.499 6.5s-12.166 4.16602 -17.499 5.49902c-17.333 6.66699 -32.5 13.834 -45.5 21.501s-27.833 17.834 -44.5 30.501l-21 -29c18.667 -14 36 -25.167 52 -33.5s32 -15.833 48 -22.5
c17.333 -6 35.333 -10.667 54 -14s39.334 -5 62.001 -5c22 0 41.833 0.666992 59.5 2s34.167 4.33301 49.5 9s29.666 11.667 42.999 21s26.666 21.666 39.999 36.999c10 12 18.167 27.167 24.5 45.5s11.333 36.333 15 54s6 32.667 7 45z" />
    <glyph glyph-name="summation" unicode="&#xe006;" horiz-adv-x="684" 
d="M366 693h-39.002c-11.333 -13.333 -24.166 -24.833 -38.499 -34.5s-33.833 -14.5 -58.5 -14.5s-44.167 4.83301 -58.5 14.5s-27.166 21.167 -38.499 34.5h-39c6.66699 -10.667 14.167 -21 22.5 -31s18 -18.833 29 -26.5s23.333 -13.834 37 -18.501s29.5 -7 47.5 -7
s33.833 2.33301 47.5 7s26 10.834 37 18.501s20.667 16.5 29 26.5s15.833 20.333 22.5 31zM685.998 693l-39.0029 -0.00195312c-11.333 -13.333 -24.166 -24.833 -38.499 -34.5s-33.833 -14.5 -58.5 -14.5c-23.333 0 -42 4.33301 -56 13s-26 18.667 -36 30v43h-36v-37h-8
l8 -12v-537c0 -35.333 -3 -62.666 -9 -81.999s-15 -36 -27 -50c-10 -12 -21.833 -21.667 -35.5 -29s-27.667 -13.166 -42 -17.499s-28.833 -7.33301 -43.5 -9s-28.334 -2.5 -41.001 -2.5c-14.667 0 -27.667 0.666992 -39 2s-21.333 3 -30 5
c-9.33301 2 -17.166 4.16699 -23.499 6.5s-12.166 4.16602 -17.499 5.49902c-17.333 6.66699 -32.5 13.834 -45.5 21.501s-27.833 17.834 -44.5 30.501l-21 -29c18.667 -14 36 -25.167 52 -33.5s32 -15.833 48 -22.5c17.333 -6 35.333 -10.667 54 -14s39.334 -5 62.001 -5
c87.333 0 151.333 23 192 69c16 17.333 27.833 37.666 35.5 60.999s11.5 54.666 11.5 93.999v496c11.333 -8.66699 24.5 -16 39.5 -22s32.5 -9 52.5 -9c18 0 33.833 2.33301 47.5 7s26 10.834 37 18.501s20.667 16.5 29 26.5s15.833 20.333 22.5 31zM365.995 -177.002
h-39.002c-11.333 -13.333 -24.166 -24.833 -38.499 -34.5s-33.833 -14.5 -58.5 -14.5s-44.167 4.83301 -58.5 14.5s-27.166 21.167 -38.499 34.5h-39c6.66699 -10.667 14.167 -21 22.5 -31s18 -18.833 29 -26.5s23.333 -13.834 37 -18.501s29.5 -7 47.5 -7
s33.833 2.33301 47.5 7s26 10.834 37 18.501s20.667 16.5 29 26.5s15.833 20.333 22.5 31z" />
    <glyph glyph-name="product" unicode="&#xe007;" horiz-adv-x="788" 
d="M642 575h-11.001c-9.33301 25.333 -25.166 46.333 -47.499 63s-47.833 25 -76.5 25h-1c-28.667 0 -54 -8.33301 -76 -25s-37.667 -37.667 -47 -63h-13l9 -14c-2 -9.33301 -3 -19 -3 -29c0 -18 3.5 -35 10.5 -51s16.333 -29.833 28 -41.5s25.5 -21 41.5 -28
s33 -10.5 51 -10.5s35 3.5 51 10.5s29.833 16.333 41.5 28s21 25.5 28 41.5s10.5 33 10.5 51c0 12 -1.33301 22.333 -4 31zM594.999 566c-9.33301 -10.667 -21.001 -20 -35.001 -28s-32 -12 -54 -12s-39.833 4 -53.5 12s-25.5 17.333 -35.5 28
c7.33301 18 18.833 32.667 34.5 44s33.834 17 54.501 17h1c20 0 37.833 -5.66699 53.5 -17s27.167 -26 34.5 -44zM600.998 525c-2 -24.667 -11.9961 -45.5 -29.9961 -62.5s-39.667 -25.5 -65 -25.5s-47 8.5 -65 25.5s-28 37.833 -30 62.5
c11.333 -9.33301 24.666 -17.166 39.999 -23.499s33.666 -9.5 54.999 -9.5s39.666 3.16699 54.999 9.5s28.666 14.166 39.999 23.499zM687.002 6l-21.002 29.001c-16.667 -12.667 -31.5 -22.834 -44.5 -30.501s-28.167 -14.834 -45.5 -21.501
c-5.33301 -1.33301 -11.166 -3.16602 -17.499 -5.49902s-14.166 -4.5 -23.499 -6.5c-8.66699 -2 -18.667 -3.66699 -30 -5s-24.333 -2 -39 -2c-12.667 0 -26.334 0.833008 -41.001 2.5s-29.334 4.66699 -44.001 9s-28.667 10.166 -42 17.499s-25 17 -35 29
c-12 14 -21 30.667 -27 50s-9 46.666 -9 81.999v378v39l8 12h-8v157h-36v-118c-12 12.667 -26.167 22.667 -42.5 30s-33.833 11 -52.5 11h-1c-27.333 0 -51.666 -7.5 -72.999 -22.5s-37 -34.167 -47 -57.5h-12l8 -12c-4 -12 -6 -25 -6 -39c0 -18 3.5 -35 10.5 -51
s16.333 -29.833 28 -41.5s25.5 -21 41.5 -28s33 -10.5 51 -10.5c18.667 0 36.167 3.66699 52.5 11s30.5 17.333 42.5 30v-287c0 -39.333 3.83301 -70.666 11.5 -93.999s19.5 -43.666 35.5 -60.999c40.667 -46 104.667 -69 192 -69c22.667 0 43.334 1.66699 62.001 5
s36.667 8 54 14c16 6.66699 32 14.167 48 22.5s33.333 19.5 52 33.5zM224 568.001c-9.33301 -9.33301 -20.666 -17.333 -33.999 -24s-30 -10 -50 -10c-22 0 -40 4 -54 12s-25.667 17.333 -35 28c7.33301 15.333 18.666 28 33.999 38s32.333 15 51 15h1
c19.333 0 36.833 -5.5 52.5 -16.5s27.167 -25.167 34.5 -42.5zM231 530.001c-0.666992 -26 -10.165 -48.001 -28.498 -66.001s-40.5 -27 -66.5 -27c-13.333 0 -25.833 2.5 -37.5 7.5s-21.834 11.667 -30.501 20s-15.334 18.333 -20.001 30s-7 24.167 -7 37.5v5
c11.333 -10 25 -18.667 41 -26s35.333 -11 58 -11c20 0 37.333 2.83301 52 8.5s27.667 12.834 39 21.501zM687.002 -184l-21.0029 29c-16.667 -12.667 -31.5 -22.834 -44.5 -30.501s-28.167 -14.834 -45.5 -21.501c-5.33301 -1.33301 -11.166 -3.16602 -17.499 -5.49902
s-14.166 -4.5 -23.499 -6.5c-8.66699 -2 -18.667 -3.66699 -30 -5s-24.333 -2 -39 -2c-12.667 0 -26.334 0.666992 -41.001 2s-29.167 4 -43.5 8s-28.166 9.83301 -41.499 17.5s-25.333 17.834 -36 30.501c-8 10 -14.5 22.5 -19.5 37.5s-8.66699 29.667 -11 44
s-3.83301 27.166 -4.5 38.499s-1 18 -1 20l-36 1l1.5 -18.5c1 -12.333 3.16699 -27.333 6.5 -45s8.16602 -35.667 14.499 -54s14.5 -33.5 24.5 -45.5c12.667 -15.333 25.834 -27.666 39.501 -36.999s28.167 -16.333 43.5 -21s31.833 -7.66699 49.5 -9s37.5 -2 59.5 -2
c22.667 0 43.334 1.66699 62.001 5s36.667 8 54 14c16 6.66699 32 14.167 48 22.5s33.333 19.5 52 33.5z" />
    <glyph glyph-name="pi" unicode="&#xe008;" horiz-adv-x="587" 
d="M286 613h-39.002c-11.333 -13.333 -24.166 -24.833 -38.499 -34.5s-33.833 -14.5 -58.5 -14.5s-44.167 4.83301 -58.5 14.5s-27.166 21.167 -38.499 34.5h-39c6.66699 -10.667 14.167 -21 22.5 -31s18 -18.833 29 -26.5s23.333 -13.834 37 -18.501s29.5 -7 47.5 -7
s33.833 2.33301 47.5 7s26 10.834 37 18.501s20.667 16.5 29 26.5s15.833 20.333 22.5 31zM585.998 188l-33.0029 12.9941c-18.667 -38 -49.167 -68.167 -91.5 -90.5s-100.166 -33.5 -173.499 -33.5c-33.333 0 -64.666 2.33301 -93.999 7s-55 12.334 -77 23.001
s-39.5 24.667 -52.5 42s-19.5 38.666 -19.5 63.999c0 17.333 2.16699 33 6.5 47s11.333 26.833 21 38.5s22.334 22.834 38.001 33.501s34.834 21.667 57.501 33c30.667 14.667 56.5 28.834 77.5 42.501s38.167 28.334 51.5 44.001s23.166 32.667 29.499 51
s10.166 39.5 11.499 63.5c11.333 -10 25 -18.5 41 -25.5s35 -10.5 57 -10.5c18 0 33.833 2.33301 47.5 7s26 10.834 37 18.501s20.667 16.5 29 26.5s15.833 20.333 22.5 31h-39c-11.333 -13.333 -24.166 -24.833 -38.499 -34.5s-33.833 -14.5 -58.5 -14.5
s-44.167 4.83301 -58.5 14.5s-27.166 21.167 -38.499 34.5h-1v6h-31v-14l8 8c-1.33301 -26 -4.33301 -49 -9 -69s-12.5 -38.333 -23.5 -55s-26.333 -32.167 -46 -46.5s-45.167 -29.166 -76.5 -44.499c-28 -13.333 -51.5 -26.333 -70.5 -39s-34.5 -26.167 -46.5 -40.5
s-20.667 -29.833 -26 -46.5s-8 -35.667 -8 -57c0 -32.667 7.5 -60 22.5 -82s35.167 -39.5 60.5 -52.5s54.666 -22.333 87.999 -28s68 -8.5 104 -8.5c44.667 0 83.667 3.5 117 10.5s62 16.833 86 29.5s44 27.834 60 45.501s29 37.167 39 58.5zM571.995 -87.0059h-39.002
c-11.333 -13.333 -24.166 -24.833 -38.499 -34.5s-33.833 -14.5 -58.5 -14.5s-44.167 4.83301 -58.5 14.5s-27.166 21.167 -38.499 34.5h-39c6.66699 -10.667 14.167 -21 22.5 -31s18 -18.833 29 -26.5s23.333 -13.834 37 -18.501s29.5 -7 47.5 -7s33.833 2.33301 47.5 7
s26 10.834 37 18.501s20.667 16.5 29 26.5s15.833 20.333 22.5 31z" />
    <glyph glyph-name="integral" unicode="&#xe009;" horiz-adv-x="638" 
d="M614 492c0 11.333 -1.66797 23 -5.00098 35l-1 -7c-7.33301 31.333 -22.333 56.333 -45 75s-49 28 -79 28h-1c-29.333 0 -55.166 -8.5 -77.499 -25.5s-37.833 -38.5 -46.5 -64.5h-14l10 -14c-2 -9.33301 -3 -18.333 -3 -27c0 -18 3.5 -35 10.5 -51
s16.333 -29.833 28 -41.5s25.5 -21 41.5 -28s33 -10.5 51 -10.5s35 3.5 51 10.5s29.833 16.333 41.5 28s21 25.5 28 41.5s10.5 33 10.5 51zM572.999 526c-10 -10.667 -22 -20.333 -36 -29s-32.667 -13 -56 -13c-21.333 0 -38.833 3.83301 -52.5 11.5
s-25.167 16.5 -34.5 26.5c6 19.333 17.167 35 33.5 47s34.833 18 55.5 18h1c20 0 38 -5.66699 54 -17s27.667 -26 35 -44zM578.999 486.001c-2 -25.333 -12.001 -46.499 -30.001 -63.499s-39.667 -25.5 -65 -25.5c-24.667 0 -45.667 8 -63 24s-27.666 35.667 -30.999 59
c10.667 -8.66699 23.5 -15.834 38.5 -21.501s32.5 -8.5 52.5 -8.5c22 0 41 3.5 57 10.5s29.667 15.5 41 25.5zM585.998 188.002l-33.002 12.998c-18.667 -38 -49.167 -68.167 -91.5 -90.5s-100.166 -33.5 -173.499 -33.5c-33.333 0 -64.666 2.33301 -93.999 7
s-55 12.334 -77 23.001s-39.5 24.667 -52.5 42s-19.5 38.666 -19.5 63.999c0 17.333 2.16699 33 6.5 47s11.333 26.833 21 38.5s22.334 22.834 38.001 33.501s34.834 21.667 57.501 33c35.333 16.667 64.333 33 87 49s40.5 33.5 53.5 52.5s21.5 40.667 25.5 65
s5.33301 53.5 4 87.5h-31c0.666992 -27.333 -0.5 -51.333 -3.5 -72s-9.83301 -39.5 -20.5 -56.5s-25.834 -32.833 -45.501 -47.5s-45.5 -29.667 -77.5 -45c-28 -13.333 -51.5 -26.333 -70.5 -39s-34.5 -26.167 -46.5 -40.5s-20.667 -29.833 -26 -46.5s-8 -35.667 -8 -57
c0 -32.667 7.5 -60 22.5 -82s35.167 -39.5 60.5 -52.5s54.666 -22.333 87.999 -28s68 -8.5 104 -8.5c44.667 0 83.667 3.5 117 10.5s62 16.833 86 29.5s44 27.834 60 45.501s29 37.167 39 58.5zM599.996 -184l-22 29c-16.667 -12.667 -31.334 -22.834 -44.001 -30.501
s-27.667 -14.834 -45 -21.501c-5.33301 -1.33301 -11.333 -3.16602 -18 -5.49902s-14.334 -4.5 -23.001 -6.5c-9.33301 -2 -19.5 -3.66699 -30.5 -5s-24.167 -2 -39.5 -2c-12.667 0 -26.167 0.666992 -40.5 2s-28.833 4 -43.5 8s-28.667 9.83301 -42 17.5
s-25 17.834 -35 30.501c-8.66699 10 -15.5 22.5 -20.5 37.5s-8.66699 29.667 -11 44s-3.83301 27.166 -4.5 38.499s-1 18 -1 20l-36 1l1.5 -18.5c1 -12.333 3.33301 -27.333 7 -45s8.5 -35.667 14.5 -54s14 -33.5 24 -45.5c12.667 -15.333 25.834 -27.666 39.501 -36.999
s28.167 -16.333 43.5 -21s32 -7.66699 50 -9s37.667 -2 59 -2c22.667 0 43.334 1.66699 62.001 5s36.667 8 54 14c16.667 6.66699 33 14.167 49 22.5s33.333 19.5 52 33.5z" />
    <glyph glyph-name="Omega" unicode="&#xe00a;" horiz-adv-x="638" 
d="M614 597c0 18 -3.49902 35 -10.499 51s-16.333 29.833 -28 41.5s-25.334 21 -41.001 28s-32.5 10.5 -50.5 10.5h-1c-18 0 -35 -3.5 -51 -10.5s-29.833 -16.333 -41.5 -28s-21 -25.5 -28 -41.5s-10.5 -33 -10.5 -51s3.5 -35 10.5 -51s16.333 -30 28 -42
s25.5 -21.333 41.5 -28s33 -10 51 -10s35 3.33301 51 10s29.833 16 41.5 28s21 26 28 42s10.5 33 10.5 51zM536.001 676h-9l-52 -50l-28 -27v19v58h-15c14.667 10.667 31.667 16 51 16h1c18.667 0 36 -5.33301 52 -16zM579.001 597c0 -27.333 -9.66699 -50 -29 -68l-62 70
l65 63c8 -8.66699 14.333 -18.5 19 -29.5s7 -22.833 7 -35.5zM527.001 512c-12.667 -6.66699 -27.001 -10 -43.001 -10c-14.667 0 -28 3 -40 9c0.666992 6 1.33398 13 2.00098 21s1 14.333 1 19v9l20 20zM418 528c-19.333 18 -29 41 -29 69c0 13.333 2.5 25.833 7.5 37.5
s12.167 22.167 21.5 31.5v-138zM586 293l-33.002 12.999c-18.667 -38 -49.167 -68.167 -91.5 -90.5s-100.166 -33.5 -173.499 -33.5c-33.333 0 -64.666 2.33301 -93.999 7s-55 12.167 -77 22.5s-39.5 24.166 -52.5 41.499s-19.5 39 -19.5 65c0 17.333 2.16699 33 6.5 47
s11.333 26.833 21 38.5s22.334 22.834 38.001 33.501s34.834 21.667 57.501 33c35.333 16.667 64.333 33 87 49s40.5 33.5 53.5 52.5s21.5 40.667 25.5 65s5.33301 53.5 4 87.5h-31c0.666992 -27.333 -0.5 -51.333 -3.5 -72s-9.83301 -39.5 -20.5 -56.5
s-25.834 -32.833 -45.501 -47.5s-45.5 -29.667 -77.5 -45c-28 -13.333 -51.5 -26.333 -70.5 -39s-34.5 -26.167 -46.5 -40.5s-20.667 -30 -26 -47s-8 -35.833 -8 -56.5c0 -32.667 7.5 -60 22.5 -82s35.167 -39.5 60.5 -52.5s54.666 -22.333 87.999 -28s68 -8.5 104 -8.5
c44.667 0 83.667 3.5 117 10.5s62 16.833 86 29.5s44 27.834 60 45.501s29 37.167 39 58.5zM599.998 -79.001l-22.001 28.9971c-16.667 -13.333 -31.334 -23.666 -44.001 -30.999s-27.667 -14.333 -45 -21c-12 -4.66699 -25.667 -8.66699 -41 -12
c-9.33301 -2 -19.5 -3.66699 -30.5 -5s-24.167 -2 -39.5 -2c-12.667 0 -26.167 0.666992 -40.5 2s-28.833 4 -43.5 8s-28.667 9.83301 -42 17.5s-25 17.834 -35 30.501c-8.66699 10 -15.5 22.5 -20.5 37.5s-8.66699 29.667 -11 44s-3.83301 27 -4.5 38s-1 17.5 -1 19.5
l-36 2l1.5 -18.5c1 -12.333 3.33301 -27.333 7 -45s8.5 -35.667 14.5 -54s14 -33.5 24 -45.5c12.667 -15.333 25.834 -27.666 39.501 -36.999s28.167 -16.333 43.5 -21s32 -7.66699 50 -9s37.667 -2 59 -2c22.667 0 43.334 1.66699 62.001 5s36.667 8 54 14
c16.667 6 33 13.333 49 22s33.333 20 52 34z" />
    <glyph glyph-name="radical" unicode="&#xe00b;" horiz-adv-x="587" 
d="M582 611h-37.999c-11.333 -13.333 -24.333 -24.833 -39 -34.5s-34 -14.5 -58 -14.5c-24.667 0 -44.334 4.83301 -59.001 14.5s-27.667 21.167 -39 34.5h-38c6.66699 -10.667 14.167 -21 22.5 -31s18 -18.833 29 -26.5s23.333 -13.834 37 -18.501s29.5 -7 47.5 -7
s33.833 2.33301 47.5 7s26 10.834 37 18.501s20.5 16.5 28.5 26.5s15.333 20.333 22 31zM588.001 213c0 20.667 -2.66602 39.5 -7.99902 56.5s-14 32.667 -26 47s-27.667 27.833 -47 40.5s-42.666 25.667 -69.999 39c-32 14.667 -57.667 29.167 -77 43.5
s-34.333 29.5 -45 45.5s-17.667 33.5 -21 52.5s-4.66602 40.5 -3.99902 64.5l-2 -4c1.33301 2 2 5.66699 2 11v8h-27l-7 -9c-10 -12 -22.333 -22.667 -37 -32s-34 -14 -58 -14c-24.667 0 -44.334 4.83301 -59.001 14.5s-27.667 21.167 -39 34.5h-38
c6.66699 -10.667 14.167 -21 22.5 -31s18 -18.833 29 -26.5s23.333 -13.834 37 -18.501s29.5 -7 47.5 -7c22 0 41 3.5 57 10.5s29.667 15.167 41 24.5c0.666992 -24 4.16699 -45.167 10.5 -63.5s16.166 -35.166 29.499 -50.499s30.5 -30 51.5 -44s46.833 -28.333 77.5 -43
c22.667 -11.333 42 -22.166 58 -32.499s28.833 -21.333 38.5 -33s16.667 -24.5 21 -38.5s6.5 -29.667 6.5 -47c0 -26 -6.5 -47.667 -19.5 -65s-30.667 -31.166 -53 -41.499s-48.166 -17.833 -77.499 -22.5s-60.333 -7 -93 -7c-74 0 -132 11.167 -174 33.5
s-72.333 52.5 -91 90.5l-33 -13c10 -21.333 22.833 -40.833 38.5 -58.5s35.5 -32.834 59.5 -45.501s52.667 -22.5 86 -29.5s72.666 -10.5 117.999 -10.5c36 0 70.667 2.66699 104 8s62.666 14.666 87.999 27.999s45.5 30.833 60.5 52.5s22.5 49.167 22.5 82.5zM296.002 -89
h-37.999c-11.333 -13.333 -24.333 -24.833 -39 -34.5s-34 -14.5 -58 -14.5c-24.667 0 -44.334 4.83301 -59.001 14.5s-27.667 21.167 -39 34.5h-38c6.66699 -10.667 14.167 -21 22.5 -31s18 -18.833 29 -26.5s23.333 -13.834 37 -18.501s29.5 -7 47.5 -7
s33.833 2.33301 47.5 7s26 10.834 37 18.501s20.5 16.5 28.5 26.5s15.333 20.333 22 31z" />
    <glyph glyph-name="approxequal" unicode="&#xe00c;" horiz-adv-x="638" 
d="M614 215c0 21.333 -2.66699 40.335 -8 57.002s-14 32.167 -26 46.5s-27.5 27.833 -46.5 40.5s-42.5 25.667 -70.5 39c-32 15.333 -57.833 30.333 -77.5 45s-34.834 30.5 -45.501 47.5s-17.5 35.833 -20.5 56.5s-4.16699 44.667 -3.5 72h-31
c-1.33301 -34 0 -63.167 4 -87.5s12.5 -46 25.5 -65s30.833 -36.5 53.5 -52.5s51.667 -32.333 87 -49c22.667 -11.333 41.834 -22.333 57.501 -33s28.334 -21.834 38.001 -33.501s16.667 -24.5 21 -38.5s6.5 -29.667 6.5 -47c0 -25.333 -6.5 -46.666 -19.5 -63.999
s-30.5 -31.333 -52.5 -42s-47.833 -18.334 -77.5 -23.001s-60.834 -7 -93.501 -7c-73.333 0 -131.166 11.167 -173.499 33.5s-72.833 52.5 -91.5 90.5l-33 -13c10 -21.333 23 -40.833 39 -58.5s36 -32.834 60 -45.501s52.5 -22.5 85.5 -29.5s72.167 -10.5 117.5 -10.5
c36 0 70.667 2.83301 104 8.5s62.666 15 87.999 28s45.5 30.5 60.5 52.5s22.5 49.333 22.5 82zM271 492.002c0 18 -3.5 34.998 -10.5 50.998s-16.333 29.833 -28 41.5s-25.5 21 -41.5 28s-33 10.5 -51 10.5h-1c-30.667 0 -57.5 -9.5 -80.5 -28.5
s-38.167 -42.833 -45.5 -71.5h-10l7 -11c0 -3.33301 -0.166992 -6.66602 -0.5 -9.99902s-0.5 -6.66602 -0.5 -9.99902c0 -18 3.5 -35 10.5 -51s16.333 -29.833 28 -41.5s25.5 -21 41.5 -28s33 -10.5 51 -10.5s35 3.5 51 10.5s29.833 16.333 41.5 28s21 25.5 28 41.5
s10.5 33 10.5 51zM231 517c-10 -11.333 -22 -21.333 -36 -30s-32.667 -13 -56 -13s-42 4.33301 -56 13s-26 18.667 -36 30c5.33301 20 16.5 36.667 33.5 50s36.5 20 58.5 20h1c21.333 0 40.5 -6.66699 57.5 -20s28.167 -30 33.5 -50zM232 471
c-5.33301 -21.333 -16.5 -39 -33.5 -53s-36.833 -21 -59.5 -21s-42.5 7 -59.5 21s-28.167 31.667 -33.5 53c11.333 -8.66699 24.5 -16 39.5 -22s32.833 -9 53.5 -9s38.5 3 53.5 9s28.167 13.333 39.5 22zM479 -27l-35.9941 -1c0 -2 -0.333008 -8.66699 -1 -20
s-2.33398 -24.166 -5.00098 -38.499s-6.33398 -29 -11.001 -44s-11.334 -27.5 -20.001 -37.5c-10 -12.667 -21.667 -22.834 -35 -30.501s-27.333 -13.5 -42 -17.5s-29.167 -6.66699 -43.5 -8s-27.833 -2 -40.5 -2c-15.333 0 -28.5 0.666992 -39.5 2s-21.167 3 -30.5 5
c-8.66699 2 -16.334 4.16699 -23.001 6.5s-12.667 4.16602 -18 5.49902c-17.333 6.66699 -32.333 13.834 -45 21.501s-27.334 17.834 -44.001 30.501l-22 -29c18.667 -14 36 -25.167 52 -33.5s32.333 -15.833 49 -22.5c17.333 -6 35.333 -10.667 54 -14s39.334 -5 62.001 -5
c21.333 0 41 0.666992 59 2s34.667 4.33301 50 9s29.666 11.667 42.999 21s26.666 21.666 39.999 36.999c10 12 18 27.167 24 45.5s10.833 36.333 14.5 54s6 32.667 7 45z" />
    <glyph glyph-name="Delta" unicode="&#xe00d;" 
d="M792 347c0 49.333 -4.66309 93.9961 -13.9961 133.996s-22.5 74.167 -39.5 102.5s-37.833 50.166 -62.5 65.499s-52.334 23 -83.001 23c-25.333 0 -48.666 -5.16699 -69.999 -15.5s-40 -24.5 -56 -42.5s-29.667 -38.667 -41 -62s-19.666 -48 -24.999 -74
c-4.66699 23.333 -11.334 45.333 -20.001 66s-19.5 38.5 -32.5 53.5s-28.333 26.833 -46 35.5s-37.834 13 -60.501 13c-39.333 0 -73.833 -15 -103.5 -45s-51.167 -72.667 -64.5 -128h-10l7 -11c-7.33301 -35.333 -11 -73.666 -11 -114.999
c0 -47.333 4.66699 -89.5 14 -126.5s22 -68.167 38 -93.5s35.167 -44.833 57.5 -58.5s46.5 -20.5 72.5 -20.5c22 0 41.667 4.33301 59 13s32.666 20.5 45.999 35.5s24.5 32.5 33.5 52.5s15.833 41.333 20.5 64c5.33301 -25.333 13.666 -49.666 24.999 -72.999
s25.166 -43.666 41.499 -60.999s35 -31.166 56 -41.499s44.167 -15.5 69.5 -15.5c32 0 60.333 8.16699 85 24.5s45.5 39 62.5 68s29.833 63.333 38.5 103s13 82.834 13 129.501zM760.004 346.996c0 -44 -3.83398 -83.835 -11.501 -119.502s-18.834 -66 -33.501 -91
s-32.167 -44.333 -52.5 -58s-42.833 -20.5 -67.5 -20.5h-1c-21.333 0 -42.5 5.66699 -63.5 17s-39.833 28.833 -56.5 52.5s-30.167 53.667 -40.5 90s-15.5 79.5 -15.5 129.5c0 30.667 2 58.667 6 84c11.333 -11.333 25.5 -21 42.5 -29s37.5 -12 61.5 -12
c18 0 33.833 2.33301 47.5 7s26 10.834 37 18.501s20.667 16.5 29 26.5s15.833 20.333 22.5 31h-39c-11.333 -13.333 -24.166 -24.833 -38.499 -34.5s-33.833 -14.5 -58.5 -14.5c-24 0 -43.167 4.66699 -57.5 14s-27.166 20.333 -38.499 33
c14.667 56.667 37 98.334 67 125.001s61.667 40 95 40c25.333 0 48.166 -6.83301 68.499 -20.5s37.833 -33 52.5 -58s25.834 -55.333 33.501 -91s11.5 -75.5 11.5 -119.5zM384.003 346.994c0 -44.667 -3.66406 -83.4971 -10.9971 -116.497s-17.5 -60.333 -30.5 -82
s-28 -37.834 -45 -48.501s-35.167 -16 -54.5 -16h-1c-20 0 -39 5.5 -57 16.5s-33.833 27.5 -47.5 49.5s-24.5 49.5 -32.5 82.5s-12 71.167 -12 114.5c0 29.333 2 56.666 6 81.999c11.333 -10.667 25.166 -19.834 41.499 -27.501s36.166 -11.5 59.499 -11.5
c18 0 33.833 2.33301 47.5 7s26 10.834 37 18.501s20.667 16.5 29 26.5s15.833 20.333 22.5 31h-39c-11.333 -13.333 -24.166 -24.833 -38.499 -34.5s-33.833 -14.5 -58.5 -14.5c-23.333 0 -41.833 4.33301 -55.5 13s-26.167 19 -37.5 31c12 48 30.167 83.667 54.5 107
s51.166 35 80.499 35c19.333 0 37.666 -5.33301 54.999 -16s32.5 -26.834 45.5 -48.501s23.167 -49 30.5 -82s11 -71.833 11 -116.5zM536.006 -137.003h-39.002c-11.333 -13.333 -24.166 -24.833 -38.499 -34.5s-33.833 -14.5 -58.5 -14.5s-44.167 4.83301 -58.5 14.5
s-27.166 21.167 -38.499 34.5h-39c6.66699 -10.667 14.167 -21 22.5 -31s18 -18.833 29 -26.5s23.333 -13.834 37 -18.501s29.5 -7 47.5 -7s33.833 2.33301 47.5 7s26 10.834 37 18.501s20.667 16.5 29 26.5s15.833 20.333 22.5 31z" />
    <glyph glyph-name="nonbreakingspace" unicode="&#xe00e;" horiz-adv-x="266" 
 />
    <glyph glyph-name="apple" unicode="&#xe00f;" horiz-adv-x="699" 
d="M684 532c0 18 -3.50195 34.999 -10.502 50.999s-16.333 29.833 -28 41.5s-25.334 21 -41.001 28s-32.5 10.5 -50.5 10.5h-1c-18.667 0 -36.167 -3.66699 -52.5 -11s-30.5 -17.333 -42.5 -30v118h-36v-191h-109c-0.666992 1.33301 -1 3 -1 5s-0.333008 4 -1 6l9 13h-13
c-8.66699 26 -24.167 47.5 -46.5 64.5s-47.833 25.5 -76.5 25.5h-1c-29.333 0 -55.166 -8.5 -77.499 -25.5s-37.833 -38.5 -46.5 -64.5h-11l7 -11c-2 -10 -3 -20 -3 -30c0 -18 3.5 -35 10.5 -51s16.333 -29.833 28 -41.5s25.5 -21 41.5 -28s33 -10.5 51 -10.5
c16.667 0 32.5 3 47.5 9s28.333 14.167 40 24.5s21.167 22.5 28.5 36.5s12 29.333 14 46h109v-363c0 -35.333 -3 -62.666 -9 -81.999s-15 -36 -27 -50c-10 -12 -21.833 -21.667 -35.5 -29s-27.667 -13.166 -42 -17.499s-28.833 -7.33301 -43.5 -9s-28.334 -2.5 -41.001 -2.5
c-14.667 0 -27.667 0.666992 -39 2s-21.333 3 -30 5c-9.33301 2 -17.166 4.16699 -23.499 6.5s-12.166 4.16602 -17.499 5.49902c-17.333 6.66699 -32.5 13.834 -45.5 21.501s-27.833 17.834 -44.5 30.501l-21 -29c18.667 -14 36 -25.167 52 -33.5s32 -15.833 48 -22.5
c17.333 -6 35.333 -10.667 54 -14s39.334 -5 62.001 -5c87.333 0 151.333 23 192 69c16 17.333 27.833 37.666 35.5 60.999s11.5 54.666 11.5 93.999v287c12 -12.667 26.167 -22.667 42.5 -30s33.833 -11 52.5 -11c18 0 35 3.5 51 10.5s29.833 16.333 41.5 28
s21 25.5 28 41.5s10.5 33 10.5 51zM593.998 617.999l-53 -51l-27 -26v18v60c12.667 5.33301 25.667 8 39 8h1c14.667 0 28 -3 40 -9zM648.998 531.999c0 -26 -9 -48 -27 -66l-66 73l64 61c19.333 -18 29 -40.667 29 -68zM596.998 446.999
c-6.66699 -3.33301 -13.5 -5.83301 -20.5 -7.5s-14.5 -2.5 -22.5 -2.5c-14.667 0 -28 3 -40 9v53l20 20zM482.998 467.999c-16 18 -24 39.333 -24 64s8 46 24 64v-128zM272.998 563.999c-9.33301 -10.667 -21 -20 -35 -28s-32 -12 -54 -12s-40 4 -54 12
s-25.667 17.333 -35 28c6.66699 18.667 18 33.834 34 45.501s34 17.5 54 17.5h1c20.667 0 39 -5.83301 55 -17.5s27.333 -26.834 34 -45.501zM278.998 522.999c-2.66699 -24 -12.9961 -44.333 -30.9961 -61s-39.333 -25 -64 -25s-46 8.33301 -64 25s-28.333 37 -31 61
c11.333 -9.33301 24.666 -17.166 39.999 -23.499s33.666 -9.5 54.999 -9.5s39.666 3.16699 54.999 9.5s28.666 14.166 39.999 23.499zM459.002 -27.001l-37.001 -1c0 -2 -0.333008 -8.66699 -1 -20s-2.16699 -24.166 -4.5 -38.499s-6 -29 -11 -44s-11.5 -27.5 -19.5 -37.5
c-10.667 -12.667 -22.667 -22.834 -36 -30.501s-27.166 -13.5 -41.499 -17.5s-28.833 -6.66699 -43.5 -8s-28.334 -2 -41.001 -2c-14.667 0 -27.667 0.666992 -39 2s-21.333 3 -30 5c-9.33301 2 -17.166 4.16699 -23.499 6.5s-12.166 4.16602 -17.499 5.49902
c-17.333 6.66699 -32.5 13.834 -45.5 21.501s-27.833 17.834 -44.5 30.501l-21 -29c18.667 -14 36 -25.167 52 -33.5s32 -15.833 48 -22.5c17.333 -6 35.333 -10.667 54 -14s39.334 -5 62.001 -5c22 0 41.833 0.666992 59.5 2s34.167 4.33301 49.5 9
s29.666 11.667 42.999 21s26.666 21.666 39.999 36.999c10 12 18.167 27.167 24.5 45.5s11.333 36.333 15 54s6 32.667 7 45z" />
    </font>
</defs>
</svg>
